<?xml version="1.0" encoding="UTF-8"?>
<svg id="Capa_1" data-name="Capa 1" xmlns="http://www.w3.org/2000/svg" xmlns:xlink="http://www.w3.org/1999/xlink" viewBox="0 0 1920 111">
  <defs>
    <style>
      .cls-1 {
        fill: #dcdcdc;
        filter: url(#outer-glow-1);
      }

      .cls-2 {
        fill: #909090;
      }

      .cls-3 {
        fill: #636363;
      }

      .cls-4 {
        fill: #6f6f6f;
      }

      .cls-5 {
        fill: #fff;
      }

      .cls-6 {
        fill: url(#Degradado_sin_nombre_3);
      }

      .cls-7 {
        fill: #4a4a4a;
      }

      .cls-8 {
        fill: #a4a4a4;
      }
    </style>
    <linearGradient id="Degradado_sin_nombre_3" data-name="Degradado sin nombre 3" x1="1016.39" y1="104" x2="1016.39" y2="-14.26" gradientTransform="translate(-58.55 89.74) scale(1 -1)" gradientUnits="userSpaceOnUse">
      <stop offset=".14" stop-color="silver"/>
      <stop offset="1" stop-color="#a6a6a6"/>
    </linearGradient>
    <filter id="outer-glow-1" x="568.96" y="-21.28" width="202" height="201" filterUnits="userSpaceOnUse">
      <feOffset dx="0" dy="0"/>
      <feGaussianBlur result="blur" stdDeviation="14"/>
      <feFlood flood-color="#dfdfdf" flood-opacity=".45"/>
      <feComposite in2="blur" operator="in"/>
      <feComposite in="SourceGraphic"/>
    </filter>
  </defs>
  <rect class="cls-6" x="-15.77" y="-14.26" width="1947.22" height="118.26" transform="translate(1915.67 89.74) rotate(-180)"/>
  <path class="cls-8" d="M612.81,88.21c-6.44-3.06-13.06-6.04-19.11-9.83-1.01,0-2.04.08-3.01-.13-.38-.08-.74-.21-1.1-.34-1.81-.66-3.58-1.38-5.3-2.17-.05-.67-.03-1.37-.14-2.03-.03-.22-.08-.46-.26-.63-.18-.18-.55-.26-.77-.11.04-1.3.02-2.55-.14-3.84-.06-.49-.14-.99-.45-1.43-.25-.36-.64-.65-1.02-.93-.39-.29-.78-.58-1.17-.87-.19-.14-.39-.29-.63-.38-.56-.21-1.25-.1-1.83-.28-.27-.35-.73-.68-1.12-.95-.34-.24-.72-.45-1.11-.64-.58-.27-1.19-.5-1.83-.68-.14-.04-.28-.08-.39-.15-.1-.07-.17-.16-.26-.24-.26-.22-.7-.25-1.05-.38-.62-.22-1.19-.76-1.83-.58-.16.05-.3.14-.46.17-.22.05-.44,0-.67-.02-1.19-.06-2.15,1.13-3.3.86-.03.14-.06.27-.09.41-.28.02-.39.15-.45.36-.06.21,0,.42.02.64.16,1.25-.56,2.5-.34,3.74.06.35.19.69.15,1.04-.03.28-.18.54-.27.81-.22.62-.17,1.28-.14,1.93.01.25.02.5-.08.73-.11.27-.35.5-.42.78-.06.24.02.48.02.72,0,.47-.27.91-.54,1.33-.07.1-.14.21-.26.28-.18.09-.41.08-.62.09-.62.04-1.14.36-1.62.66-1.01.63-2.01,1.26-3.02,1.89-.18-.46.21-1.11-.26-1.44-.15-.11-.37-.14-.57-.17-.51-.07-1.03-.1-1.54-.1-1.17-1.01-3.31-.9-4.77-1.66-.43-.22-.78-.52-1.18-.78-.67-.44-1.46-.77-2.23-1.09-.68-.28-1.36-.57-2.04-.85-.12-.05-.24-.1-.33-.18-.09-.08-.13-.18-.21-.27-.29-.3-.89-.27-1.3-.48-.3-.16-.46-.43-.7-.65-.29-.26-.7-.42-1.14-.46-.49-.55-.47-1.47-.42-2.13.11-1.46.03-2.93-.26-4.37-.03-.14-.06-.29-.01-.43.04-.11.11-.21.16-.31.09-.22.04-.45,0-.68-.46-2.12-.57-4.27-.64-6.42,0-.31-.05-.66-.38-.83-.02-.18-.31-.44-.5-.55-.19-.11-.42-.17-.64-.23-.86-.24-1.71-.48-2.57-.71.01-.12-.19-.3-.33-.33s-.31-.03-.45-.07c-.05-.01-.1-.04-.13-.07-.03-.05-.02-.1-.02-.15.04-.4-.46-.78-.99-.75,0-.21-.01-.47-.02-.68-.58-.32-1.15-.64-1.73-.97.02-.33-.14-.83-.11-1.16-1.54-.25-3.2-.38-4.78-.37-.17,0-.35,0-.52-.03-.14-.03-.26-.09-.39-.13-.31-.1-.67-.12-.99-.05-.06.01-.12.03-.18.02-.19-.03-.15-.24-.07-.38-3.5-.12-6.88-.28-10.38-.39-1.63-.05-3.26-.11-4.89-.16-5.64-.19-11.32-.38-16.92.15-1.07.1-2.2.01-3.28-.04-1.71-.08-3.43-.17-5.14-.05-.73.05-1.49.14-2.2-.02,0,0-2.5-.04-6.32-.1-1.83.61-3.67,1.2-5.51,1.79.39,2.74-1.2,5.82-4.77,5.82-2.33,0-3.81-1.31-4.46-2.98-.04.01-.07.02-.11.03.66,2.85-.9,6.3-4.68,6.3-1.21,0-2.17-.36-2.93-.93-.76.58-1.74.93-2.96.93-1.72,0-2.97-.72-3.77-1.77-.15.12-.32.22-.5.32-.76,1.33-2.14,2.29-4.13,2.29-1.77,0-3.05-.75-3.84-1.84-2.15.36-4.31.68-6.49.93-3.52,10.01-5.6,25.32-6.91,32.1l192.78,3v-2.8c-1.98-.66-3.93-1.64-5.74-2.51Z"/>
  <path class="cls-2" d="M1120.48,116.93v-31.94c7.28-.46,14.75-.91,22.05-.69,1.67.05,3.33.14,5,.19,7.16.23,14.58-.04,21.67-1.03-.04-.3-.03-.6.02-.9.02-.09.04-.18.09-.26.09-.13.26-.17.42-.2.7-.14,1.41-.28,2.11-.43.06-.01.12-.03.16-.07.05-.05.06-.12.08-.19.07-.22.27-.38.46-.51.39-.27.8-.52,1.23-.75-.04-.2-.06-.4-.05-.6.02-.26.34-.26.6-.25,1.25.08,2.52.01,3.76-.19.11-.02.23-.04.34-.08.15-.06.27-.17.39-.27.23-.2.46-.4.69-.6,3.88-.05,7.61-.04,11.49-.09,5.63-.07,10.37-4.38,15.47-6.74.54-.25,1.08-.51,1.62-.78.56-.28,1.12-.57,1.66-.89.39-.23.77-.47,1.18-.66,1.7-.77,3.84-.52,5.27-1.72.17.03.29-.2.35-.36s.04-.33.03-.5c-.01-.62.18-1.22.37-1.81.02-.06.04-.13.09-.18.06-.06.14-.09.23-.12.88-.27,1.76-.54,2.63-.82.02-.38-.07-.71-.05-1.09.53-.12,1.1-.44,1.64-.56.17-.04.35-.08.45-.23.1-.14.09-.32.16-.47.15-.31.57-.34.91-.44.37-.11.7-.37.91-.7.16-.27.34-.89.42-1.19.08-.32.06-.65.03-.98-.12-1.59-.24-3.18-.36-4.77-.02-.27-.04-.55-.05-.82-.01-.25-.01-.51,0-.76.02-.56.11-1.11.19-1.66.27-1.75.55-3.51.82-5.26.21-1.34,0-2.93.09-4.28.01-.18.03-.37.12-.53.09-.16.23-.27.33-.42.33-.52-.07-1.24.19-1.8.11-.24.33-.41.48-.62.29-.4.34-.97.11-1.41.28-.09.29-.47.3-.76s.21-.68.48-.57c1.27-.26,2.46-.56,3.73-.82.96-.2,1.92-.39,2.9-.37.51.01,1.02.08,1.52.16.56.08,1.14.17,1.62.46.24.15.45.36.5.64.19,1.13.25,2.18.11,3.32-.08.64-.25,1.28-.22,1.92.04.98.51,1.89.61,2.86.1.97-.2,1.98-.81,2.74.07,3.38.14,6.59.22,9.97-.08.02.06.04.14.07.52.23,1.07.42,1.62.55.61.15,1.27.25,1.73.68-.13-.95-.17-1.88-.18-2.84,0-.17,0-.35.05-.51.05-.16.16-.32.32-.38-.04-.53-.1-1.06-.14-1.59,0-.13-.02-.27.02-.39s.12-.25.25-.29c.01-1.19.02-2.39-.04-3.58,0-.19-.02-.39,0-.58.03-.19.09-.37.12-.56.06-.52-.17-1.15.21-1.51.08-.08.2-.16.2-.28-.08-1.95.05-4.02.1-5.97,0-.31.6-.31.91-.3.05,0,.11,0,.15.04.03.03.05.08.06.13.09.34.3.63.47.93s.3.67.2,1c.19-.05.41.19.51.36.36.56.57,1.19.71,1.83.04.21.06.47-.11.59-.05.03-.11.06-.15.11-.02.04-.02.09-.02.14.02.34.03.69.05,1.03,0,.05,0,.1.04.13.03.03.08.03.12.03.15,0,.3,0,.44,0,.02.6.05,1.19.1,1.79,0,.11.03.24.11.32.09.07.26.03.26-.08.16-.03.2-.26.19-.43-.04-.59-.02-1.18.05-1.76.07-.55.18-1.18-.17-1.61.11-.66.16-1.4.35-2.05.07-.23.14-.46.3-.63.1-.1.22-.17.34-.23.38-.18.8-.27,1.22-.25.05.29.04.62.09.91.07.44.14.87.22,1.31.01.07.02.14,0,.21-.01.06-.04.12-.08.17-.1.17-.21.33-.33.48.08.99.12,1.95.19,2.95.03.51.06,1.02.09,1.52.07,1.33.12,2.65.25,3.97.01.13.03.27-.02.4-.03.07-.07.13-.09.2-.03.1-.02.22,0,.32.08.49.15.98.23,1.47.17.07.38-.03.44-.2.27-.8.29-1.69.34-2.54.02-.31.04-.63.03-.94-.02-.79-.2-1.57-.26-2.35-.05-.7,0-1.41.16-2.1-.15-.09-.14-.3-.11-.47.09-.55.17-1.1.26-1.65.07-.45.17-.94.52-1.21-.08-.33.26-.84.57-.97.31-.13.66-.11,1-.09-.15.68-.31,1.35-.47,2.03.18.2.53-.05.57-.31.04-.27-.07-.54-.03-.81.02-.15.1-.29.14-.43.15-.56-.18-1.18,0-1.74.1-.33.36-.59.58-.86.22-.27.4-.62.31-.96-.03-.12-.1-.26-.04-.37.05-.08.14-.11.23-.13.27-.06.54-.07.81-.04.02.22-.19.4-.24.62-.03.16.03.33.11.48.28.55.74,1.01.92,1.61.09.29.09.6.1.91.01.5.03,1.01.04,1.51,0,.1.01.22.08.29.07.07.23.04.23-.06,0-1.33.18-2.82.18-4.16.21-.12.63-.3.86-.2s.36.4.24.61c.35-.15.73-.2,1.11-.16.29-.31.48-.72.54-1.14.01-.09.02-.18.06-.26.1-.18.33-.22.54-.25,1.26-.17,2.5-.52,3.68-1.02.11-.05.23-.1.31-.19.12-.14.14-.34.16-.53.04-.59.05-1.18.05-1.77.32.11.76.2,1.08.32.25.09.53.2.62.44.05.12.04.26.12.37.09.14.26.18.42.23.15.05.32.16.32.32,0,.07-.03.15,0,.21.04.07.13.08.21.08.55,0,1.1.08,1.63.25.15.05.32.12.36.27.2-.09.41-.44.45-.66,0-.03.01-.06.03-.08.02-.01.04-.02.06-.02.84-.08,1.69-.13,2.53-.15,0,.06.01.12.02.18.01.14.2.11.33.06.13-.05.23-.16.37-.2.41-.12.76.45,1.18.41.11-.01.25-.06.34.01.06.05.07.13.08.21.04.37.11.75.21,1.11.06.22.14.45.31.6.52.45,1.42-.16,2,.22.23.14.46.43.69.3.21-.12.17-.51.41-.57.16-.04.29.12.43.21.29.17.65.02.97-.07.28-.09.57-.13.86-.14.2,0,.42.02.58.15.16.13.21.4.05.54.16.19.49.05.7-.09.37-.23.76-.5.87-.92.03-.1.04-.21.1-.28.04-.05.11-.07.17-.1.57-.23,1.15-.46,1.72-.69.1-.04.2-.08.31-.08.15,0,.29.07.44.1.18.03.37-.01.55-.06.3-.07.6-.14.9-.22.1-.02.21-.05.31,0,.08.04.14.11.18.2.19.41.01.96.33,1.27.18.18.47.23.61.44.12.19.08.43,0,.64-.08.21-.18.41-.18.64,0,.22.17.46.39.44-.05.06-.08-.07-.13-.01.09,0,.19,0,.28,0,.27,1.15.13,2.35,0,3.52-.07.58-.14,1.15-.21,1.73-.13,1.08.25,2.15.26,3.24,0,.52.07,1.13.51,1.42-.14.24-.1.55-.11.83-.02.44-.03.87-.05,1.31,0,.14,0,.3.07.41.03.04.07.08.09.13.05.13-.08.25-.11.39-.01.07,0,.14.01.21.04.23.09.47.13.7.01.08.03.16.07.23.03.05.09.1.11.15.07.15-.05.35.06.48.06.08.19.09.27.16.11.09.11.26.12.4.01.14.08.32.22.33.48.05.95.15,1.3.49.07.07.14.15.24.19.11.04.24.02.34.08.18.12.13.47.34.53.07.02.15,0,.22,0,.21,0,.33.24.38.44.05.2.08.44.25.56.24.18.68.05.81.32.04.08.04.18.09.26.04.06.1.09.17.12.5.21,1.1.15,1.55-.15-.06.45.52.68.76,1.07.03.05.06.11.11.13.08.03.17-.02.25-.02.15,0,.23.17.28.31.08.22.16.44.24.67.39.06.92.25,1.31.32.37.06.75.12,1.05.35.28.21.47.55.8.65.74.23,1.39.38,2.16.54.97.21,1.99.06,2.98.24.04-.05.18.02.22.07.04.05.05.11.05.17.04.35.06.7.06,1.06,0,.16,0,.32.08.46s.24.25.39.19c-.02.31.08.63.28.87.13.16.31.32.27.52-.01.05-.04.11-.02.16.03.1.18.1.28.06.1-.04.22-.1.31-.03-.04.19.1.4.3.44,1.04.18,1.88.97,2.93.92.32-.01.64-.06.94.05.22.08.41.24.64.33.54.21,1.13-.05,1.68-.2,1.41-.37,2.92,0,4.37-.22.27-.04.55-.11.82-.06.36.06.67.32,1.02.42.29.09.6.07.91.04.68-.07,1.36-.22,2.01-.44.2-.07.41-.14.63-.14.49,0,1.01.4,1.43.14.11-.06.19-.16.31-.2.18-.05.39.1.39.28.44.08.85.06,1.29.03,2.47-.14,4.94-.29,7.4-.43,1-.06,2.01-.12,2.95-.47.17-.55.3-1.19.47-1.73.04-.12.07-.24.04-.36-.02-.06-.05-.11-.06-.18,0-.07.03-.13.06-.2.13-.24.28-.49.53-.58.97-.33,1.99-.48,2.93-.88.45-.19.89-.39,1.33-.6.07-.03.14-.07.22-.1.29-.13.59-.27.9-.32.4-.06.8.03,1.2.07.71.09,1.42.05,2.14.02,2.58-.11,5.15-.22,7.72-.48.46-.05.93-.1,1.38-.23.4-.12.79-.3,1.17-.48.3-.14.59-.28.89-.41.48-.23.97-.45,1.45-.68.17-.08.34-.16.47-.29.21-.22.28-.55.27-.85,1.05-.31,2.18-.67,3.23-.98.04-.01.09-.03.11-.07.02-.03,0-.07,0-.11,0-.17.2-.26.37-.29.14-.03.29-.04.43-.1.13-.06.25-.18.26-.33,0-.09-.03-.2.02-.28.06-.09.2-.08.31-.06-.03-.69.1-1.59.34-2.24.07-.18.15-.37.08-.55-.05-.12-.16-.2-.21-.32-.04-.09-.03-.2-.02-.29.07-.72.14-1.44.21-2.16.04-.38.09-.8.38-1.06.24.06.66.09.89.15.27.06.57.13.83.02.12-.05.23-.13.37-.15.13-.01.29.09.26.22.31-.05.53-.33.63-.62.1-.3.1-.61.13-.92,0-.06.02-.12.05-.17.04-.07.1-.11.17-.15.23-.15.46-.31.69-.46.04-.69.11-1.37.15-2.07,0-.09.01-.19.05-.27.04-.09.12-.16.19-.24.15-.15.28-.31.39-.48-.04-.53.08-1.16.04-1.68,0-.09-.01-.19.02-.27.03-.07.08-.12.11-.19.07-.19-.09-.42,0-.6.1-.19.4-.19.49-.37.03-.07.03-.15.04-.22.03-.27.23-.51.47-.65.24-.14.51-.21.78-.28.36.39.2,1.01.56,1.4.06.06.13.11.17.19.05.09.05.19.05.29,0,.55,0,1.09,0,1.64.42.32.56.93.61,1.45.05.52.02,1.06.17,1.57.08-.43.45-.72.86-.86-.05-.31.04-.64.24-.88.09-.1.19-.2.25-.32.13-.25.04-.55.03-.83,0-.28.14-.63.42-.62-.02-.82-.03-1.65-.05-2.47,0-.15,0-.33.13-.42.07-.05.17-.06.26-.06.27,0,.53-.02.8-.02.03.54.17,1,.2,1.54.01.23.03.46.04.7.09,1.54.18,3.09.27,4.63,0,.15.02.3.08.44.04.08.09.15.12.23.06.15.04.32.02.47-.04.3-.08.59-.11.89-.02.15-.04.31.02.45.06.14.21.26.36.21.05.49.09.98.14,1.46,0,.09.02.18.03.27.04.44.08.87.12,1.31.49.31.98.62,1.48.94.12.08.25.16.38.21.12.05.25.09.37.13.38.14.73.35,1.03.62.09.08.18.17.28.24.19.12.41.16.63.21.91.22,1.7.76,2.51,1.21.81.45,1.73.84,2.66.71.14-.02.28-.05.42-.02.19.04.32.19.48.29,1.03.66,2.44.55,3.66.57.37,0,.74,0,1.11.01-.04.42.03.96.12,1.37.57.3,1.21.57,1.78.87.28.15.57.3.88.33.14.02.28,0,.41.04.12.03.24.09.35.15.5.23,1.05.33,1.6.41,1.5.25,3,.5,4.5.74.21.36.7.58,1.07.77.78.41,1.73.11,2.61.1.1,0,.2,0,.3.02.23.05.44.22.67.2.45-.04.87-.2,1.3-.32.16-.05.33-.09.5-.09.28.01.53.16.74.33.64-.31,1.34-.56,1.97-.87.18-.09.36-.18.56-.22.35-.08.71-.02,1.07-.02.33,0,.66-.07.99-.14.31-.06.63-.13.94-.19.5-.1,1-.21,1.47-.41.49-.21.96-.54,1.49-.53.2,0,.44.05.59-.09.07-.06.1-.15.17-.2.07-.06.17-.07.27-.08.24-.02.49-.05.73-.07.18-.02.15-.17.17-.34.02-.18-.01-.36.03-.53.03-.15.11-.29.19-.42.1-.19.19-.39.26-.59.47-.14.94-.17,1.4-.31.23-.07.47-.14.68-.25.17-.09.34-.22.54-.22.13,0,.26.04.38,0,.08-.03.14-.1.21-.16.19-.14.46-.12.69-.15.35-.05.68-.24.9-.52.23-.3.09-.82-.14-1.12.36-.19.8-.52,1.16-.71.06-.03.12-.07.15-.13.02-.07-.01-.15,0-.22.02-.1.15-.16.25-.15.11,0,.2.06.31.08.26.06.56-.08.68-.32.03-.06.05-.12.11-.15.17-.09.28.21.46.28.06.02.13.01.19,0,.8-.14,1.6-.3,2.39-.49,0-1.07.1-2.24.16-3.32.01-.28.03-.55.05-.83.01-.26.03-.51.05-.77.15-2.11.55-4.2.54-6.31,0-.34-.01-.67.04-1,.05-.29.15-.56.24-.84.25-.76.44-1.54.57-2.33.12-.05.25-.09.37-.14.18-.07.31-.41.36-.6.04-.17.17-.3.28-.44.43-.55.57-1.27.7-1.96.1-.06.23-.09.35-.08-.04-.52-.06-1.1.02-1.62.2-.22.45-.5.66-.7.05-.05.1-.1.17-.13.08-.03.16-.03.25-.03.27,0,.54-.04.8-.1-.02-.1.23-.08.33-.09.38-.04.76-.08,1.14-.11.13-.01.26-.03.38,0,.07.02.14.05.22.07.26.07.54-.02.81-.07.34-.06.69-.06,1.03,0,0-.1,0-.21.04-.31.49-.05,1.04-.16,1.53-.21.09,0,.18-.02.26-.05.13-.05.22-.15.34-.22.19-.11.41-.14.62-.16.64-.07,1.28-.14,1.92-.21.25-.03.5-.05.74-.03.12,0,.24.03.36,0,.29-.06.56-.37.84-.24.36-.11.75-.68,1.12-.76.24-.05.52.06.72-.08.07-.05.13-.13.21-.15.11-.02.21.08.32.08.11,0,.2-.09.29-.16.18-.16.4-.26.61-.37.58-.28,1.17-.57,1.75-.85-.15-.25.08-.61.31-.79.23-.17.54-.22.82-.25,2.35-.26,4.72.01,7.05.34.05.26.01.49-.05.74.33.14.7.29,1.03.43.05.02.1.04.14.01.05-.02.07-.09.12-.09.03,0,.06.02.08.03.38.28.76.56,1.14.85.34.25.78.3,1.19.42.92.28,1.88.42,2.84.42.38,0,.76-.02,1.14.02.29.03.58.09.85.19.19.07.21.32.25.52.2,0,.4.02.6.08.05.01.1.03.12.07.02.04,0,.1-.02.14-.04.1-.09.2-.13.3-.04.09.12.2.21.23.78.28,1.55.56,2.33.84.38.14.77.28,1.16.35.36.06.72.07,1.08.08.55.01,1.1.03,1.65.04.11-.16.58-.2.77-.17.2.03.38.11.58.15,1.05.21,1.97-.89,3.04-.87.14,0,.28.02.41-.05.07-.04.13-.11.19-.16.21-.19.52-.25.79-.16.06-.2.26-.33.47-.37s.42,0,.62.03c-.01-.17.05-.4.03-.57.21.02.43-.06.56-.22.04-.04.07-.09.12-.13.05-.03.11-.04.16-.06.12-.03.25-.05.37-.01.12.04.22.17.17.29.11.1.29.03.39-.07.1-.1.18-.24.3-.31.1-.06.22-.08.33-.09.32-.04.65-.09.97-.13.22-.41.83-.49,1.29-.56.29-.04.57-.08.86-.12.27-.04.55-.08.8-.2.15-.07.29-.18.45-.24.51-.2,1.12.06,1.62-.17.39-.19,1.03-.55,1.46-.49,0-.16.01-.33.02-.49.59.13,1.19-.17,1.79-.15.18,0,.38.04.51-.08.02-.08.04-.16.06-.24.22,0,.45,0,.67-.01.03-.27.37-.45.61-.32.02-.18.05-.36.07-.54,4.48-.16,8.94-.26,13.43-.28.39,0,.78,0,1.17,0,.15,0,.32,0,.42.12,2.3.05,4.6.1,6.88-.11.5-.05,1-.1,1.49-.02.49.08.98.31,1.25.73.53.1.9.1,1.44.14-.02-.1.02-.21.09-.28.4.11.8.23,1.2.35.11.03.23.07.34.1.57.17,1.15.35,1.72.52.21.06.47.2.43.42.18-.14.41.15.37.37-.03.22-.18.44-.12.66.06.24.33.36.57.44,1.61.54,3.24,1.03,4.88,1.47.23.06.47.12.66.26.32.22.48.65.39,1.02.31.15.47.55.36.87.3.14.66.19.96.32.03.02.07.03.09.06.13.13-.03.37.06.52.03.05.09.08.14.11.34.17.67.35,1.01.52-.15,1.12-.15,2.22-.04,3.35.04.47.09.94.27,1.38.49,1.24,1.8,1.91,3,2.47.87.41,1.95-.08,2.91-.19-.02-.1,0-.2.06-.29.18-.12.44-.03.58.13.14.16.19.38.24.59.2-.18.49-.18.76-.22s.57-.14.65-.39c.04-.11.03-.24.1-.32.06-.07.16-.09.26-.1.43-.07.87-.13,1.3-.2.16-.02.34-.05.49.01.23.09.35.34.44.57.19.45.37.91.56,1.36.18-.02.34.32.42.49.08.17.09.36.11.54.1.97.46,1.91,1.03,2.7.16-.03.3.11.35.26.05.15.04.31.05.47.03.36.22.7.5.93.01-.13.13-.32.14-.45.03-.27.45-.52.6-.74.03-.05.07-.1.12-.13.05-.03.11-.04.17-.05.33-.06.67-.11,1-.17-.06.39-.08.84-.13,1.23-.01.08-.02.16-.02.24.02.29.25.52.41.77.23.38.28.85.33,1.3l.13,1.39c.38.52.03,1.28.19,1.91.03.12.08.24.09.37.02.16-.03.32-.07.48-.15.62-.22,1.25-.2,1.89,0,.12-.04.29-.16.28.45.14.87.23,1.32.38.12.04.25.08.33.18.06.07.08.17.11.25.09.29.26.55.42.81.19.31.39.62.66.86.51.45,1.22.59,1.89.7.08.01.17.03.23.09.06.06.09.15.11.24.07.31.13.61.2.92,0,.03.08.12.09.1.01-.02.04-.02.07-.02.72.13,1.4.44,1.98.9.03.08.07.16.1.23,1.16.45,2.35.84,3.58.99.28.03.59.07.79.28,0,.63.02,1.15.3,1.71.38.23.77.51,1.16.74.12.08.26.15.4.13.11-.02.19-.1.3-.12.3-.06.49.32.79.39.2.05.41-.06.61-.02.19.04.32.21.45.35.36.39.98.67,1.41.36.12.42.64.55,1.07.63,1.17.22,2.31.59,3.39,1.1.16.08.32.15.46.26.23.16.41.37.66.5.38.21.84.21,1.25.35.41.14.8.56.64.97.16,0,.31,0,.47,0,.2.43.79.45,1.26.4-.01.31-.02.65.16.9.18.26.61.35.79.1.17.16.33.32.5.48.03-.08.24-.06.32-.09.79-.33,1.7-.12,2.5.21.79.33,1.55.78,2.38.95.17.04.35.06.5.13.19-.21.54-.15.81-.04s.51.29.79.32c.22.02.44-.05.66-.03.22.01.47.16.46.38.55-.34,1.16-.35,1.77-.17.43.13.86.39,1.3.29.24-.05.44-.21.68-.25.27-.05.55.07.8.18.26.11.52.23.78.34.81-.28,1.95-.11,2.8.03,1.77.28,3.56.35,5.35.41.13,0,.26.01.36.1.07.06.11.16.17.22.1.09.25.1.38.1.64,0,1.28,0,1.92,0,.74,0,1.58.05,2.06.6.94-.08,1.95-.13,2.87.09.29.07.58.18.87.23.61.1,1.23-.02,1.85.02.62.05,1.22.27,1.84.38.22.04.44.06.67.08.75.07,1.49.14,2.24.21.38.04.78.07,1.13-.1.19.19.48.21.75.22.69.03,1.48.4,2.18.43v21.71l-500,17.71Z"/>
  <path class="cls-2" d="M507.15,79.88c-.31-.02-.66-.06-.88-.36-.41.26-.88.21-1.32.15-.87-.11-1.75-.22-2.62-.33-.26-.03-.52-.07-.78-.12-.72-.16-1.42-.52-2.15-.6-.72-.08-1.45.12-2.16-.04-.35-.08-.68-.24-1.02-.36-1.07-.36-2.25-.27-3.35-.15-.57-.88-1.54-.95-2.41-.96-.75,0-1.5,0-2.24,0-.16,0-.33,0-.45-.15-.08-.1-.12-.25-.2-.34-.11-.13-.27-.15-.42-.15-2.09-.11-4.18-.2-6.25-.65-.99-.22-2.32-.49-3.27-.05-.3-.18-.61-.36-.91-.54-.3-.18-.62-.35-.94-.28-.28.06-.52.31-.79.39-.51.16-1.01-.25-1.52-.45-.72-.29-1.43-.27-2.07.27,0-.35-.28-.59-.54-.61-.26-.02-.52.09-.78.05-.33-.05-.62-.33-.92-.51-.31-.18-.72-.28-.94.06-.18-.12-.39-.16-.59-.21-.98-.28-1.86-.99-2.79-1.5-.93-.52-1.99-.84-2.92-.33-.1.05-.34,0-.38.14-.19-.26-.39-.51-.58-.77-.21.4-.72.25-.92-.16-.21-.41-.2-.94-.18-1.43-.55.08-1.24.05-1.47-.63-.18,0-.37,0-.55,0,.18-.64-.27-1.31-.75-1.53-.48-.22-1.01-.22-1.46-.55-.28-.21-.5-.55-.77-.8-.17-.16-.35-.29-.54-.41-1.26-.81-2.59-1.4-3.96-1.74-.5-.13-1.11-.33-1.25-.99-.5.5-1.22.05-1.64-.57-.15-.23-.3-.49-.52-.56-.24-.07-.48.1-.72.03-.34-.11-.57-.71-.92-.62-.12.03-.23.15-.35.18-.17.04-.33-.08-.47-.2-.45-.37-.9-.8-1.35-1.17-.33-.89-.34-1.71-.35-2.71-.23-.33-.59-.39-.92-.44-1.44-.23-2.83-.86-4.19-1.57-.04-.12-.08-.25-.11-.37-.67-.72-1.47-1.21-2.31-1.42-.03,0-.07,0-.08.03-.01.04-.1-.11-.11-.15-.08-.49-.16-.97-.24-1.46-.02-.14-.05-.28-.12-.38-.07-.09-.18-.12-.27-.14-.79-.18-1.61-.39-2.21-1.11-.32-.38-.55-.87-.77-1.36-.19-.41-.38-.82-.49-1.28-.03-.14-.06-.29-.12-.4-.09-.16-.24-.23-.38-.29-.53-.23-1.02-.37-1.54-.6.14.02.19-.25.18-.44-.02-1,.06-2.01.24-2.99.04-.25.1-.51.08-.76-.01-.2-.07-.39-.1-.58-.18-.99.23-2.2-.22-3.02-.05-.73-.1-1.46-.15-2.2-.05-.71-.11-1.45-.38-2.06-.18-.4-.45-.75-.47-1.21,0-.12,0-.25.02-.37.06-.62.09-1.34.16-1.95-.39.09-.78.18-1.17.27-.07.02-.14.03-.2.09-.06.05-.1.13-.14.2-.18.35-.67.75-.71,1.18-.02.2-.15.51-.17.71-.33-.36-.54-.91-.58-1.48-.02-.25,0-.51-.06-.74-.06-.24-.23-.45-.41-.41-.67-1.25-1.09-2.74-1.2-4.28-.02-.29-.03-.6-.13-.86-.09-.27-.28-.81-.49-.78-.22-.72-.43-1.43-.65-2.15-.11-.36-.25-.76-.51-.91-.18-.1-.38-.06-.57-.02-.51.1-1.01.21-1.52.31-.11.02-.23.05-.3.16-.09.14-.08.34-.12.51-.1.4-.45.57-.76.62-.31.05-.65.06-.89.34-.06-.33-.12-.68-.28-.94-.16-.26-.46-.39-.67-.21-.07.13-.1.3-.07.45-1.12.18-2.38.95-3.4.31-1.41-.89-2.94-1.95-3.51-3.91-.2-.69-.26-1.44-.31-2.18-.05-.73-.07-1.44-.08-2.16-9.73.3-19.69-3.21-29.3-5.83-3.12.79-6.27,1.4-9.47,1.71-8.24.79-15.57-1.63-22.16-5.7,0,.01-.02.02-.03.04-.16.25-.42.39-.66.35.02.27-.06.63-.04.9-.24-.06-.49-.11-.73-.05-.24.06-.48.27-.54.59-.31-.15-.68-.05-.92.25-.07.09-.14.2-.22.26-.14.11-.31.08-.47.07-1.25-.02-2.32,1.71-3.55,1.38-.23-.06-.44-.19-.67-.23-.23-.04-.77.02-.9.27-.64-.02-1.28-.05-1.93-.07-.42-.01-.84-.03-1.26-.13-.47-.11-.92-.33-1.36-.55-.91-.45-1.82-.89-2.72-1.34-.11-.05-.3-.22-.25-.37.05-.16.1-.31.15-.47.02-.07.05-.15.02-.22-.02-.07-.08-.1-.14-.12-.23-.08-.46-.12-.7-.12-.06-.31-.08-.71-.3-.82-.32-.16-.66-.26-1-.31-.44-.06-.89-.02-1.33-.02-1.12,0-2.24-.22-3.32-.66-.47-.19-.99-.27-1.38-.66-.45-.45-.89-.89-1.33-1.34-.03-.03-.06-.06-.1-.05-.06,0-.08.11-.14.15-.05.04-.11,0-.17-.02-.39-.22-.82-.46-1.21-.68.07-.4.11-.77.06-1.18-2.73-.52-5.5-.96-8.24-.54-.34.05-.69.12-.96.4-.27.27-.53.85-.36,1.25-.68.45-1.37.9-2.05,1.34-.25.16-.5.33-.71.58-.1.12-.2.26-.34.26-.13,0-.25-.16-.37-.13-.1.02-.17.15-.25.23-.23.23-.56.05-.84.13-.43.12-.89,1.02-1.31,1.2-.32-.19-.63.3-.98.39-.14.03-.28,0-.42-.01-.29-.03-.58.01-.87.05-.75.11-1.5.22-2.25.33-.25.04-.51.08-.73.25-.14.11-.25.27-.4.35-.1.05-.2.07-.3.08-.58.08-1.21.25-1.79.33-.04.16-.06.33-.05.49-.4-.11-.81-.11-1.21-.01-.31.08-.64.22-.94.1-.09-.03-.17-.08-.25-.11-.15-.05-.3-.03-.45,0-.44.06-.89.12-1.33.18-.11.02-.41-.02-.38.14-.31.1-.62.16-.94.16-.1,0-.2,0-.29.05-.08.04-.14.12-.2.2-.25.33-.53.77-.77,1.12-.09.81-.07,1.74-.02,2.56-.14-.03-.29.02-.41.12-.15,1.09-.32,2.22-.82,3.1-.13.22-.27.43-.32.7-.05.3-.2.84-.42.95-.14.07-.29.15-.43.22-.14,1.25-.37,2.49-.66,3.7-.11.44-.23.87-.28,1.33-.07.52-.05,1.06-.05,1.59.01,3.35-.46,6.66-.63,9.99-.02.41-.04.81-.05,1.22-.02.44-.04.88-.05,1.32-.07,1.7-.19,3.55-.19,5.26-.92.31-1.85.57-2.79.78-.08.02-.16.03-.23,0-.21-.1-.34-.58-.53-.44-.06.05-.09.15-.13.24-.15.38-.49.59-.8.5-.12-.04-.24-.12-.36-.13-.12-.01-.27.07-.29.23-.02.11.03.24,0,.35-.03.1-.1.16-.17.21-.42.29-.93.83-1.35,1.12.27.47.43,1.3.16,1.77-.25.44-.64.75-1.05.83-.28.05-.58.02-.81.24-.08.08-.15.2-.25.25-.14.07-.29,0-.44,0-.23,0-.42.2-.63.35-.25.18-.53.29-.8.4-.54.22-1.1.27-1.64.49-.09.32-.19.64-.31.94-.08.22-.18.43-.22.67-.04.28,0,.57-.03.85-.03.28,0,.52-.2.55-.28.04-.57.08-.85.11-.11.01-.22.03-.31.12-.08.09-.13.23-.2.32-.18.22-.45.15-.69.14-.62-.02-1.17.5-1.74.84-.55.32-1.13.49-1.72.65-.37.1-.73.21-1.1.31-.38.11-.77.21-1.16.22-.42.01-.84-.09-1.25.04-.23.07-.44.21-.65.35-.74.49-1.56.9-2.31,1.39-.25-.27-.55-.5-.87-.52-.2-.01-.4.06-.59.14-.5.19-1,.44-1.52.5-.27.04-.52-.24-.79-.32-.12-.04-.24-.03-.35-.03-1.03,0-2.14.49-3.05-.16-.43-.31-1-.66-1.25-1.22-1.75-.39-3.5-.78-5.26-1.18-.64-.14-1.28-.29-1.86-.66-.14-.09-.27-.18-.41-.23-.16-.05-.32-.04-.48-.07-.37-.06-.7-.29-1.03-.52-.66-.47-1.41-.9-2.07-1.38-.1-.65-.19-1.51-.14-2.17-.43,0-.87-.01-1.3-.02-1.43-.02-3.08.15-4.28-.9-.19-.16-.35-.4-.57-.46-.16-.05-.33,0-.49.03-1.08.21-2.15-.4-3.1-1.12s-1.87-1.58-2.93-1.92c-.25-.08-.51-.14-.73-.33-.12-.1-.22-.24-.32-.37-.35-.43-.76-.77-1.21-.99-.15-.07-.29-.13-.44-.21-.16-.09-.3-.22-.44-.34-.58-.49-1.15-.99-1.73-1.48-.03-.43-.06-.86-.09-1.29-3.95-.8-7.54-2.55-11.24-4.1-.14.3-.34.54-.6.59.03-.2-.15-.37-.3-.34-.15.02-.28.16-.43.23-.31.16-.65.06-.97-.04-.28-.09-.77-.15-1.04-.24-.33.41-.4,1.07-.44,1.68-.08,1.14-.16,2.28-.25,3.43-.01.16-.02.32.02.47.05.19.19.32.25.51.08.28-.02.59-.09.87-.28,1.03-.43,2.46-.39,3.55-.13-.03-.29-.05-.36.1-.06.13-.02.29-.02.44-.01.23-.15.42-.31.52-.16.1-.33.12-.5.16-.2.05-.43.19-.43.46,0,.06.01.12,0,.18-.02.06-.08.09-.13.11-1.23.49-2.55,1.07-3.78,1.56.01.49-.06,1-.31,1.35-.15.21-.35.34-.55.46-.56.36-1.13.72-1.69,1.07-.34.22-.69.44-1.03.66-.45.28-.89.57-1.37.75-.52.21-1.07.29-1.61.36-3,.4-6.01.58-9.02.76-.83.05-1.67.1-2.49-.04-.47-.08-.94-.21-1.4-.12-.37.07-.71.29-1.05.5-.08.05-.17.11-.25.16-.52.32-1.03.65-1.56.95-1.1.63-2.29.87-3.42,1.39-.3.14-.47.55-.62.92-.04.1-.08.2-.07.31,0,.1.05.19.07.28.04.18,0,.38-.04.56-.2.87-.35,1.88-.54,2.75-1.1.55-2.28.65-3.45.74-2.88.23-5.77.45-8.65.68-.52.04-1,.07-1.51-.05,0-.29-.25-.53-.46-.45-.14.05-.24.21-.36.31-.49.4-1.1-.22-1.67-.23-.25,0-.49.12-.73.23-.76.34-1.55.57-2.35.69-.35.05-.72.08-1.06-.06-.41-.17-.77-.57-1.19-.67-.32-.07-.64.03-.96.1-1.69.36-3.45-.24-5.1.35-.65.23-1.34.65-1.97.32-.26-.14-.48-.39-.74-.52-.35-.17-.73-.1-1.1-.07-1.23.08-2.21-1.18-3.42-1.46-.23-.05-.4-.39-.35-.69-.1-.1-.24-.01-.36.05-.12.06-.29.07-.33-.1-.02-.09.02-.17.03-.26.05-.32-.17-.57-.32-.82-.23-.38-.35-.88-.33-1.37-.17.09-.37-.07-.46-.3-.09-.22-.09-.49-.09-.74,0-.56-.03-1.12-.08-1.68,0-.1-.02-.2-.06-.27-.05-.08-.2-.18-.25-.11-1.15-.27-2.34-.05-3.48-.38-.89-.25-1.65-.48-2.52-.85-.39-.16-.61-.7-.93-1.03-.35-.36-.8-.46-1.23-.55-.45-.1-1.07-.4-1.53-.5-.09-.35-.19-.7-.28-1.06-.06-.22-.16-.48-.33-.49-.1,0-.2.09-.3.04-.06-.04-.1-.13-.13-.2-.28-.61-.96-.98-.89-1.7-.52.49-1.23.58-1.8.24-.08-.04-.15-.1-.2-.19-.06-.12-.06-.28-.11-.41-.16-.43-.67-.23-.95-.51-.2-.2-.24-.57-.29-.89-.06-.32-.2-.69-.45-.7-.09,0-.17.04-.26,0-.25-.09-.19-.65-.4-.84-.11-.1-.26-.07-.39-.13-.11-.06-.19-.18-.28-.3-.41-.53-.95-.7-1.51-.77-.17-.02-.24-.29-.26-.52-.01-.23-.01-.49-.14-.64-.09-.11-.24-.13-.31-.26-.12-.21.02-.53-.06-.77-.03-.09-.09-.16-.13-.24-.05-.11-.07-.24-.09-.36l-.15-1.12c-.01-.11-.03-.22-.01-.33.03-.21.18-.41.12-.62-.02-.08-.07-.13-.1-.2-.1-.19-.09-.43-.09-.66.02-.69.04-1.38.06-2.07.01-.44-.03-.93.13-1.32-.51-.45-.59-1.41-.59-2.24,0-1.73-.45-3.42-.3-5.14.08-.91.16-1.82.24-2.74.16-1.86.33-3.76,0-5.58-.08,0-.16,0-.23,0-.01,0-.02,0-.04,0,0,0,0,0,0,0-.02,0-.05,0-.07,0,.01-.01.02-.01.03-.01-.19-.08-.33-.38-.33-.67,0-.35.12-.68.21-1.01.09-.33.14-.72,0-1.01-.16-.33-.5-.41-.71-.69-.37-.5-.17-1.38-.38-2.02-.04-.13-.11-.25-.21-.31-.11-.07-.24-.03-.36.01l-1.05.34c-.21.07-.43.14-.64.09-.18-.04-.34-.16-.52-.16-.12,0-.24.07-.36.13-.67.36-1.34.73-2.01,1.09-.07.04-.15.08-.2.16-.08.12-.09.29-.12.45-.12.66-.59,1.09-1.01,1.46-.25.21-.63.44-.82.14.18-.21.13-.64-.06-.85-.18-.21-.44-.24-.68-.23-.34,0-.68.08-1,.22-.37.16-.79.39-1.13.12-.17-.13-.32-.39-.51-.33-.27.09-.24.7-.48.9-.27.22-.54-.24-.81-.47-.68-.59-1.73.37-2.34-.34-.2-.24-.29-.6-.36-.95-.12-.58-.2-1.16-.25-1.76-.01-.12-.02-.26-.09-.33-.1-.12-.26-.04-.39-.02-.5.06-.9-.83-1.38-.65-.16.06-.28.23-.43.32-.15.09-.37.13-.38-.09,0-.1-.01-.19-.02-.29-.99.03-1.97.11-2.96.24-.02,0-.05,0-.07.03-.03.03-.03.08-.04.13-.04.35-.29.89-.53,1.04-.05-.24-.25-.36-.42-.43-.61-.26-1.26-.39-1.9-.39-.09,0-.2,0-.25-.12-.04-.1,0-.22,0-.33,0-.26-.2-.43-.38-.51-.18-.09-.38-.15-.49-.37-.01-.03-.02-.07-.03-.1-.33.19-.58.36-.78.55-.84,6.59-2.01,16.15-3.3,16.65-3.1,1.19-.05.09-3.5.28-.02.41-3.64,2.24-4.95,1.87-.26-.07-.59-.13-.94-.15-1.07,1.13-2.19,2.22-3.31,3.29-.35,1.26-.76,2.66-.77,2.94-.06,1.33-.08,2.75-.39,4.02-.07.27-.31.43-.51.32-.09-.78-.18-1.55-.27-2.33-.02-.17-.04-.35,0-.51.03-.11.08-.21.11-.32.05-.2.04-.42.02-.63-.04-.55-.06-1.11-.09-1.66-1.29,1.24-2.57,2.5-3.77,3.84-1.55,1.74-3.12,3.48-5.05,4.71.03.81.08,1.61.16,2.43-.53-.68-1.3-.85-2.02-1.08-.18-.06-.36-.14-.55-.21-.13.04-.26.1-.39.14-2.82.78-5.75.23-8.61.57-2.39.28-4.74.98-7.17.95-.17,0-.32-.02-.48-.03l.11,2c.03.52.06,1.05-.04,1.55-.09.48-.3,1.46-.49,1.88-.24.53-.62.93-1.06,1.11-.39.16-.88.21-1.06.7-.09.24-.07.53-.19.75-.12.22-.33.3-.53.36-.62.19-1.29.7-1.91.89-.03.61.08,1.13.06,1.73-1.03.43-2.05.86-3.08,1.29-.1.04-.2.08-.26.19-.05.08-.08.19-.1.29-.22.93-.45,1.89-.43,2.87,0,.27.03.54-.04.8-.06.25-.21.62-.41.57-1.67,1.9-4.17,1.51-6.16,2.73-.48.29-.92.68-1.37,1.04-.63.51-1.29.97-1.94,1.41-.63.42-1.26.84-1.89,1.23-5.96,3.75-11.5,10.57-18.07,10.68-4.53.08-8.88.06-13.42.14-.27.31-.54.63-.81.94-.14.16-.28.33-.45.43-.13.07-.26.1-.39.13-1.45.32-2.92.42-4.39.3-.3-.02-.68-.02-.7.39-.01.32,0,.64.06.95-.5.36-.97.75-1.43,1.19-.23.21-.46.46-.54.81-.02.11-.04.22-.09.3-.05.07-.12.09-.19.11-.82.22-1.64.45-2.46.67-.18.05-.38.11-.49.31-.06.12-.09.26-.11.41-.06.47-.07.95-.02,1.43-4.09.77-8.27,1.26-12.46,1.52,1.69,4.21,3.87,8.21,6.67,11.86,6.05,7.87,14.59,13.31,23.57,17.26,16.9,7.43,35.26,10.85,52.91,16.26l456.46-21.93v-34.4c-.81-.05-1.73-.63-2.54-.68Z"/>
  <circle class="cls-1" cx="670" cy="79.08" r="58.27"/>
  <path class="cls-2" d="M731.95,122.4c36.28,2.77,72.52,5.57,108.9,6.82,35.94,1.24,71.9.9,107.85,1.62,54.91,1.11,110.36,3.19,165.08-2.37-1.63-1.84-3.5-3.54-5.95-4.74-2.48-1.22-13.28,3.61-15.8,2.55-2.88-1.21-9.07-5.77-12.08-6.63-11.68-3.35-24.32-6.05-35.11-9.5-8.72-2.79-14.22-12.56-23.53-15.86.38-.91-.15-2.03-1.02-2.49-.86-.46-1.93-.35-2.82.06.18-.4.05-.91-.3-1.16-.35-.25-.88-.2-1.18.11.05-.44-.18-.9-.57-1.12-.38-.22-.89-.18-1.24.09.15-.4-.04-.89-.42-1.07-.38-.18-.88-.02-1.09.34-.24-.69-1.28-.9-1.76-.35-.08-.41-.7-.57-.97-.25.14-.55-.19-1.18-.73-1.35-.53-.17-1.96,0-2.16.53.15-.42.16-.93-.14-1.26-.3-.32-.96-.24-1.06.19.02-.38-.25-.75-.61-.84-.36-.09-.77.11-.93.46-.48-.14-.96-.28-1.44-.42-.34-.1-.71-.2-1.05-.11-.35.09-.66.45-.56.8-.06-.55-.24-1.12-.68-1.46-.43-.33-1.17-.29-1.43.19.07-.51-.28-1.04-.77-1.17s-1.05.17-1.23.66c0-.42-.32-.81-.72-.88-.41-.07-.84.2-.97.59-.29-.63-1.4-.52-1.58.15-.49-.48-1.49-.04-1.46.66-.24-.17-.5-.35-.8-.34-.29,0-.59.31-.48.59-.4-.38-1.16-.16-1.31.37-.11-.22-.42-.21-.66-.16-.34.06-.67.13-1.01.19-.28.05-.68.18-.85.4.06-.32-.05-.66-.29-.87-.31-.27-.82-.28-1.14-.02.1-.38-.11-.82-.47-.97-.36-.15-.81,0-1.01.33.14-.47-.05-1.02-.45-1.29-.4-.27-.98-.24-1.35.07.05-.46-.07-.97-.44-1.24-.36-.28-.98-.19-1.17.23-.04-.34-.32-.64-.65-.72-.33-.07-.71.09-.89.38-.32-.43-1.74-.4-1.8.13.21-.76-.19-1.64-.89-1.98-.7-.34-1.63-.1-2.09.53.03-.49-.54-.86-1.02-.74-.47.12-.79.59-.89,1.07-.1-.37-.46-.65-.83-.66-.38,0-.75.26-.86.63-.16-.41-.45-.82-.87-.92s-.94.3-.81.72c-.01-.49-.6-.78-1.07-.67-.47.11-1.39.36-1.72.72.29-.56.16-1.31-.3-1.73-.46-.43-1.21-.49-1.73-.15.07-.42-.17-.88-.55-1.07s-.88-.09-1.17.22c-.38-.57-1.35-.59-1.75-.03-.01-.41-.52-.65-.91-.54-.39.11-.68.44-.94.76-.2.25-.4.49-.61.74-.21-.26-.44-.53-.76-.63-.32-.1-.74.07-.78.41-.07-.29-.39-.5-.68-.43-.29.06-1.02.79-.96,1.09-.24-.64-1.21-.82-1.66-.32-.23-.67-1.08-1.04-1.72-.75-.15.07-.31.17-.46.11-.14-.05-.2-.21-.29-.32-.24-.3-.74-.31-1-.03-.47-.52-1.37-.55-1.88-.07-.05-.38-.51-.58-.88-.48-.37.1-.64.39-.9.68-.18-.25-.56-.3-.84-.17-.28.12-.49.38-.64.65-.09.16-.19.34-.36.41-.12.05-.25.03-.37,0-.67-.1-1.62-.05-2.28-.14-.16-.41-.71-.61-1.09-.4-.25-.79-1.37-1.13-2.01-.61-.05-.62-.81-1.05-1.35-.77-.21-.3-.61-.45-.96-.36-.35.09-.63.42-.67.78.03-.47-.58-.72-1.03-.62-.47.1-.88.43-1.1.86.05-.28-.2-.54-.47-.6-.27-.06-.55.03-.82.12-.93.3-2.29.83-2.66,1.75.01-.28.02-.58-.14-.81-.16-.23-.55-.3-.7-.07.09-.68-.77-1.27-1.35-.93.15-.34-.14-.75-.49-.87-.36-.11-.74-.02-1.1.08-.24-.53-1.11-.58-1.41-.08-.05-.43-.43-.8-.85-.85-.43-.05-.87.24-1.01.65,0-.4-.26-.8-.63-.94-.37-.14-.83-.01-1.08.3-.01-.37-.36-.7-.73-.68-.37.02-.68.38-.66.75.05-.46-.55-.76-.98-.6-.43.16-1.07.47-1.31.86-.21-.34-.73-.44-1.05-.19,0-.43-.56-.58-.98-.6-.75-.04-1.5-.08-2.25-.12-.42-.54-1.42-.37-1.64.27-.12-.23-.31-.41-.53-.53-.48.26-.85.72-1,1.25-2.65-.01-5.52,0-8.18.01.26-.39.27-.92.04-1.32-.24-.4-.71-.64-1.17-.59-.01-.34-.03-.7-.2-.99-.17-.29-.55-.49-.85-.34-.22-.68-1.12-1.03-1.73-.66-.19-.63-1.09-.9-1.59-.48.07-.32-.22-.66-.54-.65-.32.01-.58.38-.48.69,0-.29-.3-.55-.58-.5-.29.05-.48.41-.36.68-.46-.28-1.14.23-1.01.75.04-.14-.18-.24-.3-.15-.12.09-.14.26-.14.41,0,.36-.14,1-.02,1.34-7.86,1.32-15.6,1.22-23.44-.24-.09-.68-.71-1.63-1.3-1.99s-1.47-.24-1.81.36c-.05-.45-.44-.85-.89-.9-.45-.05-.92.24-1.07.66-.19-.42-.4-.87-.81-1.09-.4-.22-1.03-.05-1.1.41-.07-.77-1.3-1.08-1.71-.42-.14-.83-1.48-1.08-1.89-.35-.36-.65-1.48-.61-1.8.06-.89-.48-2.04-.43-2.89.12-.05.36-.53.44-.89.49-.36.05-.79.41-.57.7-.14.42-1.08-.13-1.41-.43-.33-.3-.8-.67-1.15-.41-.1.08-.18.2-.31.23-.22.04-.34-.23-.46-.41-.33-.49-1.19-.43-1.46.1-.05-.57-1-.73-1.24-.21-.11-.32-.53-.42-.86-.36-.33.06-.66.22-1,.19-.22-.02-.44-.11-.66-.11-.97,0-1.28,1.65-2.25,1.66-.4,0-.89-.28-1.16.02-.09.11-.12.26-.22.36-.22.21-.57,0-.87-.03-.27-.02-.53.11-.77.25-.52.29-1.03.58-1.54.87-.38-.89-2.31-1.14-2.95-.42-.25-.5-.67-1.09-1.22-.96-.13.03-.25.1-.38.11-.32.04-.59-.24-.88-.39-.29-.15-.79,0-.72.31-.29-.19-.66-.38-.96-.2-.1.06-.17.16-.26.23-.16.13-.36.18-.56.23-1.18.29-2.36.58-3.54.87-1.29.32-2.82-.34-4.14-.53-.84-.12-1.69-.23-2.53-.14-1.64.18-3.27,1.14-4.85.65-.44-.53-.88-.92-1.54-1.08-.17-.04-.35-.07-.51-.15-.32-.17-.5-.53-.76-.78-.26-.25-.77-.36-.95-.04-.26-.57-1.23-.59-1.52-.04-.42-.33-1.13-.15-1.35.33-.12-.21-.4-.31-.63-.21-.22.09-.35.37-.28.6-.22-.08-.46-.13-.68-.04-.21.09-.36.35-.27.56-.18-.16-.48-.11-.66.04-.19.15-.29.38-.39.6-.2.44-.4.88-.61,1.33-2.46-.14-4.99-.35-7.46-.47-.15,0-.31-.02-.46-.08-.5-.22-.64-1.03-1.19-1.06-.22-.01-.42.12-.64.1-.16-.01-.3-.1-.44-.18-.43-.24-.92-.38-1.41-.42-.29-.02-.66.05-.74.33-.48-.39-1.34.13-1.22.73-.14-.55-1.14-.9-1.56-.53-.34-.48-1.15-.53-1.54-.08-.18-.24-.39-.49-.68-.57-.29-.08-.67.13-.64.43-.26-.39-.97-.32-1.15.12-.12-.31-.63-.34-.79-.06-.07.12-.09.27-.19.35-.13.1-.31.04-.48.03-.5-.03-.91.58-.69,1.03-.58-.82-2.31-.77-3.03-.07-.14-.43-.58-.75-1.04-.74-.46,0-.88.34-1.01.78-.2-.24-.5-.39-.81-.39-.18.3-.36.61-.55.91-.54-.26-1.29.18-1.31.79-.52-.28-1.26.16-1.26.75-.4-.36-1.17.04-1.1.58-.16-.22-.49-.29-.73-.15-.23.14-.34.46-.22.71-1.35.93-3.09.91-4.72.99-6.76.34-13.53.76-20.3,1.28-.88-.03-1.76.17-2.55.56-.86.43-1.96.17-2.88-.11-.33-.1-.65-.24-.99-.26-.34-.02-.72.13-.86.44-.18-.69-1.32-.82-1.66-.2-.17-.3-.45-.57-.79-.6-.35-.03-.72.28-.65.62-.01-.35-.35-.64-.7-.61-.35.04-.62.4-.56.74-.18-.32-.62-.46-.95-.29-.33.17-.48.61-.32.94-.37-.27-.97-.13-1.18.28-.07.13-.12.3-.26.34-.11.03-.22-.02-.33-.04-.32-.04-.62.35-.48.65-.38-.03-.74.33-.72.71-.39.02-.78.2-1.04.49-.84.93-2.73.24-3.75-.49-.28-.2-.54-.44-.88-.53-.33-.09-.76.06-.83.39-.15-.32-.35-.65-.68-.78-.33-.13-.8.04-.84.39-.17-.62-1.3-.56-1.4.08.03-.31-.26-.6-.57-.58-.31.02-.56.34-.51.64-.23-.11-.49-.11-.74-.11-.74,0-1.5,0-2.17.31-.67.3-1.23.98-1.14,1.71-.85-.44-1.88-.11-2.79.22-.32.12-.72.41-.57.71-.17-.27-.55-.37-.84-.23-.29.14-.44.51-.33.8-.17-.28-.57-.38-.85-.22-.28.16-.39.57-.23.85-.27-.27-.66.19-.77.56-7.19,1.43-14.66,2.84-21.93,3.94-.09-.38-.59-.5-.98-.55-.39-.05-.8.16-.98.5-.09-.28-.41-.47-.7-.41-.29.05-.52.34-.51.64-.29-.24-.76-.23-1.05.01-.29.24-.38.7-.19,1.03-.25-.21-.66-.2-.9.02-.25.22-.3.61-.12.89-.59-.44-1.6.14-1.52.87-.17-.34-.62-.53-.96-.37-.35.16-.47.69-.19.95-.26-.27-.56-.56-.93-.61-.38-.05-.82.29-.71.65-.42-.56-1.36-.61-1.84-.1-.05.05-.24-.03-.2-.08.04-.05.01-.13-.02-.19-.31-.5-.93-.8-1.52-.71-.59.09-1.1.55-1.25,1.13-.17-.43-.67-.7-1.13-.61-.46.09-.82.54-.81,1-.12-.39-.35-.78-.73-.92-.38-.14-.91.1-.92.51-.08-.37-.43-.66-.82-.67-.38-.01-.76.26-.87.62-.34-.39-1.08-.28-1.31.18-.4-.31-1.16-.3-1.62-.06-.46.23-.76.74-.74,1.25-.39-.24-.92-.23-1.3.03-.38.26-.58.76-.48,1.2-.48-.36-1.29.22-1.1.79-.39-.38-1.3-.39-1.81-.18-.51.21-.86.74-.86,1.28-.65-.44-1.72.12-1.72.9-.35-.09-.73-.18-1.08-.09-.35.09-.67.45-.58.8-.42-.39-1.05-.09-1.28.44-.06.15-.09.32-.2.44-.1.1-.24.15-.38.19-3.19.92-6.37,1.87-9.55,2.83,1.18,3.65,2.37,7.31,3.55,10.96,28.04,1.97,56.04,4.39,84.07,6.53Z"/>
  <path class="cls-2" d="M937.23,87.37c2.76-.61,5.52-1.21,8.29-1.8.12-.03.24-.05.33-.12.1-.07.12-.18.17-.28.2-.34.74-.53,1.11-.28-.07-.22.2-.45.51-.51.31-.06.63,0,.94.06,0-.5.93-.85,1.49-.57,0-.34.31-.68.75-.81.44-.13,1.23-.13,1.57.11-.16-.36.54-.73.95-.5-.08-.28.09-.6.42-.76.33-.17.79-.18,1.13-.02-.02-.32.24-.65.64-.8.4-.15,1.06-.16,1.41.04.2-.3.84-.36,1.13-.12.09-.23.42-.4.75-.39.33,0,.64.19.71.43,0-.26.46-.41.8-.32.33.09.53.34.63.58,0-.29.31-.58.71-.63.4-.06.84.11.98.39.13-.36.57-.66,1.09-.72.51-.06,1.06.13,1.32.45.03.04.06.09.02.12-.04.03.13.08.17.05.42-.32,1.24-.29,1.6.06-.1-.23.29-.44.61-.41.33.03.58.22.81.39-.24-.17-.13-.5.17-.6.3-.1.69.02.84.24-.07-.46.81-.83,1.32-.55-.15-.17-.11-.43.11-.56.21-.14.57-.14.78,0-.16-.21-.09-.5.16-.65.25-.16.66-.16.91,0-.01-.19.19-.37.44-.4.25-.03.53.08.61.26.16-.22.52-.35.85-.32.34.03.77.11.85.35,6.32-.7,12.8-1.6,19.05-2.51.09-.24.43-.53.67-.36-.14-.18-.05-.43.2-.54.24-.1.6-.04.74.14-.09-.19.04-.42.29-.51.25-.09.58-.02.73.15-.13-.2.21-.38.49-.45.78-.21,1.68-.42,2.42-.14-.08-.46.41-.89.99-1.09.58-.19,1.24-.2,1.88-.2.22,0,.45,0,.64.07-.05-.19.17-.4.44-.41.27-.01.52.18.49.37.09-.4,1.07-.44,1.21-.05.04-.22.44-.33.73-.25.29.08.47.29.59.5.06-.21.43-.31.72-.25.29.06.52.21.76.34.89.46,2.53.9,3.26.31.23-.19.56-.3.91-.31-.02-.24.3-.47.63-.45-.12-.19.13-.44.42-.41.1,0,.19.04.28.02.12-.03.17-.14.23-.22.18-.26.71-.35,1.03-.18-.14-.21,0-.49.27-.6.28-.11.67-.02.83.18-.05-.22.18-.45.48-.47.3-.02.6.17.61.39-.06-.21.26-.41.56-.39.3.02.54.19.69.38.3-.4,1.28-.31,1.44.13.12-.2.45-.29.74-.28.3.01.58.1.86.16.8.18,1.75.35,2.5.07.68-.25,1.45-.37,2.22-.36,5.88-.33,11.76-.6,17.63-.81,1.42-.05,2.93-.04,4.1-.63-.1-.16,0-.36.19-.45.2-.09.49-.04.63.09-.06-.34.61-.59.96-.37,0-.37.64-.65,1.09-.48.02-.38.67-.67,1.14-.5.16-.19.32-.39.47-.58.27,0,.54.09.71.25.11-.28.48-.49.87-.5.4,0,.78.19.9.47.63-.45,2.13-.48,2.63.04-.19-.28.16-.68.6-.66.14,0,.3.05.42-.02.09-.05.11-.15.17-.22.14-.18.58-.16.69.04.15-.28.77-.33,1-.08-.03-.19.3-.32.55-.27.25.05.43.21.59.36.34-.28,1.04-.25,1.34.05.37-.24,1.23-.01,1.35.33-.1-.38.64-.71,1.06-.46.08-.18.39-.22.65-.21.43.02.85.11,1.23.26.12.05.24.11.38.11.19.01.37-.07.55-.06.47.02.6.53,1.03.67.12.04.26.05.4.05,2.14.08,4.34.21,6.48.3.17-.28.35-.56.53-.84.09-.14.18-.28.34-.38.16-.1.42-.13.58-.03-.08-.13.05-.3.23-.36.19-.06.4-.03.59.02-.06-.15.05-.32.25-.38.19-.06.44,0,.54.14.2-.31.81-.42,1.18-.21.25-.35,1.09-.34,1.32.02.16-.2.59-.14.82.02.23.16.38.39.66.5.14.05.29.07.44.1.58.1.96.35,1.34.68,1.37.31,2.78-.3,4.21-.41.73-.06,1.47.01,2.2.09,1.14.12,2.48.54,3.59.33,1.02-.19,2.05-.37,3.08-.55.17-.03.35-.06.48-.14.08-.05.14-.11.23-.15.25-.12.58,0,.83.12-.06-.2.37-.29.62-.2.25.09.48.27.77.25.11-.01.22-.05.33-.07.47-.08.84.29,1.06.61.55-.46,2.23-.3,2.56.26.45-.18.89-.37,1.34-.55.21-.09.43-.17.67-.16.26.02.56.15.76.02.09-.06.11-.16.19-.23.23-.2.65-.01,1-.02.84,0,1.11-1.05,1.95-1.05.19,0,.38.06.57.07.29.02.58-.09.87-.12.29-.04.66.02.75.23.2-.33,1.03-.23,1.07.13.23-.33.98-.37,1.27-.06.11.12.21.29.4.26.11-.01.18-.09.27-.14.31-.17.71.07,1,.26.29.19,1.1.54,1.22.27-.19-.18.18-.41.5-.44.31-.03.73-.08.77-.31.74-.35,1.73-.38,2.51-.08.27-.43,1.25-.45,1.56-.04.36-.46,1.53-.31,1.64.22.36-.42,1.43-.22,1.49.27.05-.29.6-.4.95-.26.35.14.53.42.7.69.14-.27.54-.46.93-.42.39.03.73.28.77.57.3-.38,1.06-.45,1.57-.23.51.23,1.05.83,1.13,1.26,6.81.93,13.53.99,20.36.15-.11-.22.02-.62.02-.85,0-.1.02-.2.12-.26.1-.06.3,0,.26.1-.11-.33.48-.65.88-.48-.1-.17.07-.4.32-.43.25-.03.51.13.51.32-.08-.2.14-.43.42-.44.28,0,.53.21.47.41.44-.27,1.21-.1,1.38.3.53-.23,1.32-.01,1.5.42.26-.09.59.03.74.22.15.19.17.41.18.63.4-.03.81.12,1.02.38.2.25.19.6-.03.84,2.3,0,4.8-.02,7.1,0,.13-.34.45-.63.87-.8.2.07.36.19.46.34.2-.41,1.07-.52,1.43-.17.65.02,1.31.05,1.96.08.37.01.85.11.85.38.27-.16.73-.1.91.12.2-.25.76-.45,1.13-.55.37-.1.9.09.85.38-.02-.24.25-.46.57-.48.32-.01.62.19.63.43.22-.2.61-.28.94-.19.32.09.56.34.55.59.12-.26.51-.44.88-.41.37.03.7.26.74.54.26-.32,1.02-.29,1.22.05.31-.06.65-.12.95-.05.31.07.56.33.43.55.51-.22,1.26.16,1.17.59.13-.15.47-.1.61.04.14.15.13.34.12.52.32-.58,1.5-.92,2.31-1.11.23-.06.47-.11.71-.07.24.04.46.2.41.38.19-.27.55-.48.95-.55.39-.06.92.09.89.39.04-.23.28-.44.58-.5.31-.06.65.04.83.23.47-.18,1.13.1,1.18.49.56-.33,1.53-.12,1.75.39.33-.13.81,0,.95.25.58.06,1.4.03,1.98.09.11.01.22.02.32,0,.15-.04.23-.16.31-.26.13-.17.31-.34.56-.42.25-.08.57-.05.73.11.22-.18.46-.37.78-.43.32-.06.72.06.76.31.44-.31,1.22-.29,1.63.04.22-.18.66-.17.86.02.08.07.13.17.25.21.13.04.27-.03.4-.07.56-.19,1.3.05,1.49.47.4-.32,1.23-.2,1.44.2-.05-.19.58-.65.83-.69.25-.04.53.09.59.27.03-.21.4-.32.67-.26.28.06.48.23.66.4.18-.16.35-.31.53-.47.23-.2.47-.41.81-.48.34-.07.78.08.79.34.35-.35,1.19-.34,1.52.02.25-.2.69-.26,1.02-.14.33.12.53.41.48.68.45-.22,1.11-.18,1.5.09.4.27.51.75.26,1.1.29-.23,1.08-.39,1.49-.45.41-.07.92.12.93.43-.11-.27.34-.52.71-.46s.62.32.76.58c.1-.23.42-.41.75-.4.33,0,.64.18.72.42.09-.31.37-.6.77-.68.41-.08.91.16.88.47.4-.41,1.21-.56,1.82-.34.61.22.95.78.78,1.26.04-.34,1.28-.36,1.56-.09.16-.19.48-.29.77-.24.29.05.53.24.57.46.16-.27.7-.32,1.02-.15.32.18.43.5.38.79.32-.2.82-.22,1.17-.05.35.17.52.52.39.82.18-.21.57-.31.88-.21.31.1.49.37.4.62.28-.17.72-.16.99.01.27.17.35.49.18.72-.03-.25.48-.37.81-.42.29-.04.59-.08.88-.12.21-.03.48-.04.58.1.13-.34.8-.47,1.14-.24-.09-.18.16-.37.42-.37.25,0,.48.11.69.22-.02-.44.85-.73,1.27-.42.15-.43,1.12-.49,1.37-.09.11-.25.49-.42.84-.38.35.04.63.3.63.56.15-.31.64-.5,1.07-.42s.73.42.67.74c.23-.31.87-.33,1.24-.12.38.21.54.58.59.93-.08-.22.19-.45.49-.51.3-.06.62,0,.92.07.42.09.83.18,1.25.27.13-.22.49-.35.8-.29.31.06.55.29.53.53.09-.28.66-.32.92-.12.26.2.25.53.12.8.18-.34,1.42-.44,1.88-.33.46.11.76.51.63.86.23-.2.77-.1.84.16.42-.35,1.32-.21,1.53.22.18-.23.62-.33.95-.22.33.12.49.43.36.68.3-.17.74-.2,1.07-.06.33.14.53.43.49.71.27-.2.72-.23,1.03-.07.31.16.42.49.26.74.77-.26,1.7-.33,2.45-.04.75.29,1.21,1,.88,1.58,8.08,2.1,12.86,8.31,20.43,10.08,9.38,2.2,20.35,3.91,30.49,6.04,2.61.55,7.99,3.45,10.49,4.21,2.19.67,11.57-2.39,13.72-1.62,7.76,2.78,8.87,9.65,17.32,10.59-7.41,15.73-14.79,31.48-22.13,47.23-120.39-27.47-246.41-27.38-366.73.25-10.33-23.34-20.66-46.68-30.98-70.03Z"/>
  <g>
    <g>
      <path class="cls-5" d="M950.8,46.56c-.02-.33-.05-.69-.18-.95-.13-.26-.39-.31-.46-.01,0-.81-.63-1.43-.98-.97.06-.42-.17-.88-.41-.98-.24-.1-.48.05-.71.2-.21-.61-.79-.59-.93.03-.08-.51-.36-.91-.64-.93-.28-.02-.54.36-.6.86-.03-.48-.25-.92-.5-1.05-.26-.13-.54.06-.67.45-.05-.44-.3-.79-.54-.74-.24.05-.41.5-.36.94-.01-.55-.43-.85-.7-.63s-.65.64-.77,1.13c-.17-.39-.52-.46-.7-.14-.04-.51-.42-.64-.69-.64-.49,0-.99.02-1.48.02-.32-.61-.96-.34-1.05.44-.1-.26-.24-.47-.4-.59-.29.35-.49.92-.54,1.55-.27.03-.55.05-.83.08,4.71.67,9.43,1.31,14.16,1.92Z"/>
      <path class="cls-5" d="M1018.92,52.83c-2.43-2.25-4.78-4.05-6.78-4.01.08-1.15-.47-2.33-1.1-2.66-.63-.33-1.29.04-1.79.72.05-.5-.13-1.08-.4-1.29s-.6-.04-.74.39c-.05-.53-.28-1.01-.56-1.17-.28-.17-.6,0-.77.39.03-.49-.18-1.03-.45-1.16-.27-.13-.56.17-.64.64-.27-.75-.97-.77-1.19-.02-.12-.46-.54-.51-.66-.08,0-.67-.33-1.33-.7-1.42s-1.25.42-1.29,1.08c.03-.52-.05-1.13-.3-1.44-.25-.31-.65-.08-.64.45-.05-.44-.29-.82-.53-.85-.25-.03-.47.3-.52.73-.33-.06-.66-.13-.99-.19-.24-.05-.49-.09-.69.09s-.35.66-.23,1.05c-.13-.63-.34-1.26-.67-1.57-.33-.3-.79-.11-.89.51-.04-.61-.35-1.16-.68-1.21-.33-.05-.65.41-.68,1.01-.06-.49-.33-.89-.6-.89-.27,0-.51.4-.53.89-.29-.68-.98-.34-.99.48-.39-.47-.96.24-.84,1.05-.18-.15-.38-.31-.56-.25-.19.07-.33.47-.22.78-.31-.37-.77.03-.79.68-.1-.24-.3-.17-.45-.07-.21.14-.41.28-.62.42-.18.12-.41.33-.49.62-.01-.38-.13-.77-.32-.97-.24-.26-.57-.17-.74.19,0-.46-.19-.94-.45-1.05-.25-.12-.52.14-.6.57.02-.57-.19-1.19-.48-1.43-.3-.25-.66-.11-.86.33-.04-.55-.19-1.12-.47-1.38-.28-.26-.66-.05-.72.47-.08-.4-.3-.7-.53-.73-.23-.03-.44.22-.52.6-.27-.45-1.18-.18-1.14.46.02-.93-.36-1.9-.86-2.18-.5-.28-1.07.15-1.27.98-.05-.58-.47-.92-.76-.7-.29.22-.43.83-.42,1.41-.12-.42-.39-.7-.63-.64-.25.05-.45.43-.47.88-.16-.46-.4-.89-.69-.94-.29-.05-.57.5-.43.98-.08-.57-.5-.82-.78-.62-.29.2-.85.64-1.01,1.11.11-.7-.07-1.56-.42-1.99-.35-.43-.85-.39-1.14.09-.01-.51-.23-1.01-.5-1.17-.27-.16-.58.02-.73.43-.32-.62-.95-.5-1.14.22-.06-.48-.42-.69-.66-.5-.24.19-.38.62-.51,1.03-.1.32-.2.64-.3.96-.17-.28-.35-.56-.57-.63-.22-.07-.47.19-.45.59-.08-.34-.32-.53-.5-.41-.18.12-.56,1.07-.49,1.41-.24-.72-.89-.81-1.12-.15-.23-.76-.83-1.09-1.21-.65-.09.1-.18.24-.28.19-.1-.04-.16-.22-.23-.34-.19-.32-.52-.27-.65.09-.37-.55-.95-.47-1.22.16-.08-.44-.4-.62-.63-.46-.23.16-.37.54-.5.91-.15-.27-.4-.28-.57-.1-.17.18-.27.51-.34.85-.04.2-.08.43-.18.53-.07.07-.16.06-.24.06-.45-.04-1.06.14-1.5.1-.15-.47-.53-.64-.76-.35-.26-.91-1.02-1.18-1.38-.49-.1-.72-.64-1.15-.97-.76-.17-.33-.45-.47-.66-.32-.22.15-.37.56-.35,1-.03-.56-.45-.79-.74-.62-.29.17-.53.6-.62,1.13,0-.33-.19-.62-.37-.66-.18-.04-.36.09-.52.22-.57.45-1.4,1.22-1.55,2.34,22.63,2.9,45.35,5.07,68.12,6.27Z"/>
      <path class="cls-5" d="M926.06,43.09c.32.05.64.1.96.15,1.7.26,3.41.5,5.11.75-.03-.16-.04-.34-.1-.48-.19-.46-.52-.72-.81-.64-.04-.4-.08-.82-.21-1.16-.14-.34-.4-.55-.59-.36-.2-.8-.81-1.16-1.18-.7-.18-.74-.78-1.01-1.08-.49.02-.38-.19-.77-.4-.74-.21.03-.35.48-.26.84-.02-.35-.24-.64-.42-.57s-.28.5-.19.82c-.32-.31-.73.32-.6.94.02-.17-.14-.28-.21-.17-.07.11-.07.31-.06.49.02.34,0,.9.04,1.31Z"/>
    </g>
    <path class="cls-5" d="M928.4,53.01c-19.89-2.92-39.53-6.53-59.14-10.94-7.01-1.58-14.02-3.13-21.06-4.52-.05.12-.08.27-.08.43-.25-.48-.76-.11-.73.53-.1-.28-.31-.41-.47-.28-.16.13-.23.5-.16.8-.9.91-2.04.64-3.11.5-4.42-.59-8.84-1.17-13.26-1.76-.57-.19-1.15-.12-1.68.2-.58.35-1.28-.15-1.86-.66-.21-.18-.41-.4-.63-.48-.22-.08-.47.02-.58.36-.08-.84-.81-1.21-1.07-.55-.09-.39-.26-.76-.48-.86-.22-.1-.48.19-.45.6.01-.41-.19-.82-.42-.85-.23-.02-.42.35-.4.76-.1-.41-.38-.65-.6-.52-.22.13-.34.62-.26,1.04-.23-.39-.62-.34-.78.09-.05.14-.09.33-.19.35-.07.02-.14-.07-.21-.11-.21-.12-.42.29-.35.66-.25-.11-.5.24-.51.69-.26-.06-.52.07-.7.36-.6.92-1.78-.28-2.4-1.33-.17-.29-.32-.63-.53-.8s-.5-.09-.56.29c-.07-.41-.19-.84-.39-1.06-.21-.22-.52-.12-.57.28-.07-.76-.8-.93-.91-.2.04-.35-.13-.76-.33-.8-.2-.05-.38.27-.37.64-.14-.18-.31-.24-.47-.29-.47-.16-.96-.32-1.42-.11-.45.21-.86.88-.85,1.74-.52-.7-1.21-.55-1.81-.36-.22.07-.49.31-.42.7-.09-.35-.33-.56-.52-.46-.19.1-.32.49-.27.86-.09-.36-.34-.58-.53-.45-.19.13-.29.57-.21.94-.16-.38-.44.07-.54.48-4.74,0-9.66-.2-14.41-.83-.03-.46-.33-.74-.57-.89-.24-.16-.52-.02-.68.32-.03-.35-.22-.65-.41-.66-.19-.02-.37.26-.39.6-.17-.35-.46-.47-.67-.27-.21.2-.31.71-.22,1.14-.14-.31-.4-.41-.58-.23-.18.18-.25.63-.16.99-.33-.67-1.04-.28-1.05.59-.08-.44-.34-.78-.58-.69-.24.09-.37.66-.22,1.04-.14-.39-.3-.8-.53-.96-.24-.16-.55.1-.52.55-.21-.76-.81-1.08-1.17-.62-.03.04-.15-.1-.12-.15.03-.05.02-.15,0-.23-.14-.67-.51-1.18-.9-1.24-.38-.06-.76.32-.91.94-.06-.54-.36-1-.66-1.02s-.58.38-.62.92c-.03-.48-.14-.99-.37-1.27-.23-.27-.59-.15-.64.32-.01-.45-.21-.89-.45-1.01-.24-.12-.51.07-.62.46-.18-.54-.66-.64-.85-.17-.22-.48-.7-.68-1.02-.55-.32.13-.56.63-.6,1.22-.22-.39-.56-.54-.83-.35-.27.19-.45.7-.44,1.23-.26-.55-.84-.13-.78.57-.2-.55-.78-.84-1.13-.75-.35.09-.63.59-.7,1.21-.33-.64-.96-.44-1.15.26,24.41,3.11,48.68,7.22,73.08,10.41,25.05,3.28,50.28,5.02,75.51,6.28,13.09.65,26.22,1.07,39.34,1.03-10.27-1.22-20.53-2.6-30.76-4.1Z"/>
    <path class="cls-5" d="M731.68,53.26c9.26-.22,18.56-.55,27.82-.31,12.55.33,25.15,1.68,37.71,3.08,1.66-.12,3.32-.24,4.97-.35-22.99-3.37-46-6.56-69.12-8-12.66,2.6-25.53,5.24-32.72,6.66,2.31-.02,4.62.01,6.93.06,8.08-1.27,16.22-.95,24.4-1.15Z"/>
  </g>
  <path class="cls-5" d="M1926.54,53.58c-13.41-.98-26.92-.49-40.33.05-15.43.62-30.87.66-46.3,1.29-12.92.53-25.95,1.19-39,1.59,37.58,1.27,75.11,2.08,112.75,2.12,4.53,0,8.97.86,13.46,1.32,4.59.48,10.78,1.51,15.15-.28,1.34-.55,1.2-.33.58-2-.16-.43-.18-.59-.17-.65-.05-.03-.14-.09-.3-.24.17.15-.66-.41-1.31-.67-4.11-1.65-9.79-2.17-14.53-2.52Z"/>
  <path class="cls-5" d="M1869.14,44.08c12.12-.12,24.23-.86,36.35-.99,7.51-.08,15.05-.02,22.54.61,5.86.49,12.14,1.05,17.55,3.54.36.17.71.35,1.05.54l-.5-12.76c-4.6.24-9.19.48-13.79.71-.2.01-.4.02-.58-.04-.2-.07-.31-.22-.46-.34-.54-.42-1.5-.49-1.88.03-.05-.36-.61-.59-1.12-.55-.51.03-.96.25-1.38.45-.35-.74-1.99-.9-2.66-.27-.24-.51-.94-.89-1.7-.92s-1.95.29-2.3.78c0-.59-1.31-.87-1.78-.37-.07-.45-.54-.85-1.15-.97-.61-.12-1.32.04-1.73.4-.19-.49-.8-.87-1.5-.94s-1.71.17-2.11.6c-.49-.37-1.51-.22-1.8.26-.3-.31-.9-.44-1.4-.3-.5.14-.84.53-.8.91-.18-.38-.98-.44-1.42-.18-.45.26-.59.7-.58,1.11-.18-.44-.85-.75-1.49-.69-.65.06-1.2.48-1.25.95-.43-.5-1.3-.77-2.12-.67-.82.1-1.53.58-1.73,1.16-.02.07-.03.15.05.19.08.04-.15.17-.23.14-.84-.33-2.08.01-2.41.68,0-.38-.72-.56-1.2-.39-.48.17-.75.53-.99.88.26-.34-.12-.8-.64-.84-.53-.04-1.04.28-1.13.66-.18-.72-1.76-.95-2.37-.35.13-.32-.11-.68-.52-.81-.41-.13-.95-.01-1.21.27.12-.37-.17-.78-.66-.92-.48-.14-1.11,0-1.41.32-.1-.29-.52-.49-.93-.45-.41.04-.76.31-.78.61-.38-.27-1.01-.34-1.51-.18-.5.16-1.11.44-1.09.82-10.13,1.16-20.69,1.98-30.9,2.61-.27-.33-.96-.67-1.23-.33.12-.32-.17-.67-.6-.76-.44-.08-.95.13-1.07.45.04-.32-.29-.63-.72-.69-.43-.06-.91.15-1.05.46.1-.34-.53-.51-1.01-.53-1.33-.08-2.84-.11-3.84.54-.13-.73-1.11-1.23-2.12-1.35-1.01-.11-2.04.08-3.03.28-.34.07-.7.14-.96.31-.02-.31-.48-.55-.9-.49-.42.07-.71.43-.57.72-.35-.59-1.89-.36-1.92.29-.17-.33-.86-.38-1.27-.16-.41.21-.58.59-.67.94-.2-.31-.83-.34-1.26-.17-.42.17-.7.47-1.02.74-1.15.97-3.51,2.12-4.95,1.43-.45-.22-1.03-.29-1.58-.21-.09-.37-.7-.63-1.21-.51.09-.32-.43-.63-.86-.51-.15.04-.28.12-.43.12-.21,0-.33-.16-.46-.27-.42-.34-1.28-.33-1.7.02.11-.36-.23-.75-.72-.84-.5-.08-1.06.16-1.2.52-.02-.35-.51-.63-.99-.58-.48.05-.86.42-.76.76,0-.35-.61-.56-1.07-.44-.46.11-.76.45-.89.78-.66-.52-2.16-.11-2.21.6-.28-.27-.84-.32-1.3-.22-.46.1-.86.31-1.27.49-1.17.5-2.59,1.01-3.9.8-1.19-.2-2.46-.18-3.65.05-9.42,1.08-18.84,2.15-28.26,3.23-2.28.26-4.68.64-6.78,0,.09-.27-.13-.56-.48-.65-.36-.09-.8.05-.97.29-.04-.54-1.2-.78-1.67-.35-.15-.58-1.27-.86-1.92-.49-.18-.59-1.31-.88-2-.52-.32-.26-.65-.53-.97-.79-.43.06-.81.27-1.03.54-.27-.41-.94-.65-1.57-.57-.63.08-1.17.47-1.26.93-1.16-.55-3.56-.28-4.17.64.21-.48-.5-1.01-1.18-.89-.22.04-.46.14-.67.06-.17-.06-.22-.2-.34-.3-.29-.25-.98-.12-1.08.21-.34-.4-1.34-.34-1.62.1-.02-.3-.59-.44-.98-.3-.38.13-.61.42-.82.69-.64-.37-1.75-.18-2.12.36-.66-.3-1.96.23-2.04.8.03-.62-1.27-.98-1.85-.51-.18-.26-.7-.26-1.1-.19-.32.06-.62.14-.92.24,44.74,6.29,90.92.42,135.84-.02Z"/>
  <path class="cls-5" d="M1718.61,51.75c-4.87-.95-9.73-2.06-14.55-3.36-2.1.69-4.52,0-6.81.05-.06,0-.11,0-.17.01,7.12,1.35,14.31,2.43,21.53,3.3Z"/>
  <g>
    <path class="cls-4" d="M28.52,134.34c15.76,1.77,31.23,1.8,47.06,1.28,32.31-1.06,64.56-3.41,96.84-5.13,28.68-1.53,57.4-2.57,86.12-1.88,29.3.71,58.6,3.71,87.83,5.7,57.93,3.95,115.92,7.22,173.98,8.08,94.79,1.41,189.8-4.66,284.52-.52l1.13-37.17c-16.33,1.6-23.77-8.35-40.07-10.06-4.52-.48-19.73,7.09-24.28,6.72-5.2-.41-17.17-3.26-22.41-3.36-23.18-.44-37.7-1.18-60.89-1.49-13.09-.18-30.23-11.15-43.32-11.32.37-.96-.81-1.98-2.33-2.29-1.52-.31-3.24-.03-4.58.51.19-.42-.17-.91-.8-1.1-.64-.19-1.48-.06-1.9.29-.04-.44-.54-.86-1.21-1.01-.68-.15-1.49-.04-1.99.28.15-.41-.3-.87-.95-.99-.66-.12-1.44.11-1.68.51-.56-.65-2.31-.69-2.96-.08-.24-.39-1.28-.45-1.64-.1.1-.56-.61-1.14-1.52-1.23-.91-.09-3.19.29-3.39.84.15-.43.04-.95-.52-1.22-.57-.27-1.62-.1-1.68.34-.06-.38-.59-.7-1.2-.74-.61-.04-1.23.22-1.4.59-.81-.07-1.63-.14-2.44-.21-.58-.05-1.2-.1-1.74.04-.54.14-.96.53-.73.87-.22-.54-.65-1.08-1.43-1.35-.78-.27-1.96-.13-2.29.39,0-.51-.69-.99-1.51-1.05-.83-.06-1.67.31-1.86.81-.08-.41-.69-.76-1.37-.78-.68-.01-1.33.31-1.45.72-.61-.58-2.39-.34-2.54.35-.9-.42-2.43.16-2.25.84-.43-.14-.89-.28-1.37-.24-.48.05-.9.38-.67.64-.73-.32-1.93-.01-2.07.53-.22-.21-.73-.16-1.12-.08-.54.11-1.08.21-1.62.32-.45.09-1.08.26-1.32.5.03-.32-.21-.65-.65-.83-.57-.23-1.39-.18-1.87.12.09-.39-.34-.8-.95-.91-.61-.11-1.33.09-1.59.45.14-.48-.28-1.01-.99-1.23-.71-.22-1.64-.12-2.19.23,0-.46-.31-.95-.95-1.19s-1.64-.08-1.87.36c-.14-.34-.64-.6-1.2-.64-.56-.03-1.14.17-1.38.48-.6-.39-2.92-.21-2.91.33.2-.78-.6-1.61-1.81-1.88-1.21-.26-2.68.07-3.32.75-.03-.49-1.04-.8-1.78-.63-.75.17-1.19.67-1.28,1.16-.22-.36-.85-.6-1.48-.57-.62.03-1.18.34-1.3.71-.33-.39-.86-.77-1.57-.83-.71-.06-1.49.39-1.21.8-.1-.48-1.11-.72-1.86-.56-.75.15-2.21.49-2.7.88.39-.58.06-1.32-.75-1.7-.82-.38-2.05-.37-2.85.02.04-.43-.41-.86-1.06-1.01-.65-.15-1.45-.01-1.88.32-.71-.54-2.29-.47-2.87.13-.08-.41-.95-.6-1.57-.46-.62.14-1.04.5-1.42.84-.3.26-.59.53-.89.79-.38-.24-.8-.49-1.33-.56-.53-.07-1.2.13-1.21.47-.16-.29-.71-.46-1.18-.37s-1.56.87-1.43,1.16c-.48-.62-2.08-.72-2.77-.19-.46-.65-1.9-.96-2.92-.61-.23.08-.48.19-.74.15-.23-.04-.36-.19-.52-.3-.42-.28-1.26-.26-1.64.05-.84-.48-2.3-.45-3.08.07-.12-.38-.91-.54-1.5-.42-.59.12-1.01.44-1.39.74-.33-.24-.95-.26-1.4-.11-.45.14-.76.42-.98.7-.13.17-.27.36-.54.43-.19.05-.4.04-.61.03-1.11-.06-2.66.06-3.77,0-.31-.4-1.22-.56-1.83-.33-.5-.78-2.36-1.04-3.37-.49-.14-.61-1.43-1-2.3-.69-.37-.29-1.04-.41-1.61-.3-.57.11-1,.45-1.03.82,0-.47-1.01-.68-1.75-.56-.76.13-1.41.48-1.72.92.06-.28-.37-.53-.83-.57-.45-.04-.91.06-1.33.16-1.5.35-3.69.95-4.22,1.88,0-.28-.02-.58-.3-.81-.28-.22-.93-.28-1.16-.03.1-.68-1.36-1.23-2.29-.86.22-.35-.28-.75-.87-.84-.59-.1-1.21.02-1.8.13-.43-.52-1.87-.54-2.32-.02-.12-.43-.75-.78-1.46-.81-.71-.03-1.41.27-1.62.69-.01-.4-.47-.79-1.09-.91-.62-.12-1.36.02-1.75.34-.04-.37-.64-.68-1.24-.65-.6.03-1.1.4-1.04.77.05-.46-.95-.74-1.65-.56s-1.73.5-2.1.91c-.37-.34-1.23-.41-1.73-.15-.03-.43-.94-.56-1.63-.57-1.23-.02-2.47-.04-3.7-.06-.71-.53-2.34-.34-2.69.31-.2-.22-.52-.41-.9-.51-.77.28-1.36.74-1.6,1.28-4.36.05-9.08.11-13.44.16.42-.39.43-.93.03-1.32-.4-.4-1.18-.63-1.93-.58-.03-.34-.07-.7-.35-.99-.29-.29-.91-.48-1.41-.33-.36-.68-1.85-1.02-2.84-.65-.32-.63-1.79-.89-2.61-.47.11-.32-.36-.66-.89-.64-.53.02-.94.38-.79.69,0-.29-.49-.55-.96-.5-.47.06-.78.41-.59.68-.75-.27-1.86.23-1.65.76.07-.14-.3-.24-.5-.15-.2.09-.23.26-.23.41,0,.36-.23,1-.03,1.34-12.89,1.33-25.66,1.13-38.44-.55-.12-.69-1.09-1.65-2.03-2.02-.94-.37-2.39-.29-2.98.3-.06-.45-.67-.86-1.4-.93-.73-.07-1.51.2-1.79.63-.29-.43-.61-.88-1.25-1.11-.64-.23-1.68-.09-1.81.37-.06-.78-2.05-1.13-2.77-.49-.17-.84-2.34-1.13-3.07-.42-.55-.66-2.37-.67-2.94-.01-1.42-.52-3.29-.52-4.72,0-.11.36-.89.41-1.48.45-.59.04-1.32.37-.99.67-.26.42-1.75-.18-2.26-.5-.51-.31-1.24-.71-1.85-.47-.18.07-.31.19-.52.21-.36.03-.53-.25-.72-.44-.5-.5-1.91-.49-2.38.02-.04-.57-1.56-.78-1.99-.28-.14-.33-.82-.45-1.37-.41-.55.04-1.09.18-1.64.14-.36-.03-.7-.14-1.06-.15-1.57-.05-2.25,1.57-3.83,1.52-.66-.02-1.42-.34-1.89-.05-.16.1-.22.26-.4.34-.39.19-.93-.04-1.42-.09-.44-.04-.87.08-1.28.2-.87.25-1.74.51-2.61.76-.53-.91-3.64-1.3-4.76-.62-.36-.52-.97-1.13-1.87-1.05-.21.02-.41.08-.63.08-.53.02-.93-.28-1.39-.45-.46-.17-1.29-.07-1.2.26-.45-.21-1.03-.43-1.53-.27-.17.05-.3.14-.45.21-.27.11-.61.15-.93.18-1.96.19-3.92.39-5.87.58-2.13.21-4.54-.58-6.65-.88-1.35-.19-2.71-.38-4.09-.37-2.69.03-5.48.83-7.96.19-.63-.57-1.28-1-2.33-1.22-.27-.06-.56-.1-.8-.2-.5-.2-.72-.57-1.11-.85-.39-.28-1.18-.43-1.53-.13-.33-.59-1.88-.72-2.44-.19-.63-.37-1.8-.27-2.24.19-.16-.22-.6-.35-.98-.28-.38.07-.63.33-.56.57-.33-.11-.73-.18-1.09-.11-.36.07-.65.31-.53.53-.27-.18-.75-.16-1.08-.03-.33.13-.54.34-.74.55-.41.42-.81.84-1.22,1.25-3.96-.41-8.02-.9-11.97-1.32-.25-.03-.5-.05-.72-.13-.76-.28-.84-1.1-1.71-1.19-.35-.04-.7.06-1.05.02-.25-.03-.46-.14-.67-.23-.65-.29-1.4-.49-2.19-.59-.47-.06-1.06-.04-1.26.23-.69-.44-2.18-.04-2.11.57-.12-.56-1.64-1.04-2.39-.72-.45-.52-1.74-.67-2.46-.28-.25-.26-.52-.54-.97-.65-.45-.12-1.1.04-1.12.34-.34-.42-1.49-.45-1.87-.03-.13-.32-.93-.42-1.26-.16-.13.11-.19.25-.38.32-.23.08-.51,0-.77-.04-.79-.1-1.59.46-1.33.93-.74-.89-3.53-1.08-4.85-.48-.13-.45-.77-.82-1.5-.87-.73-.05-1.5.21-1.79.63-.26-.27-.72-.45-1.21-.5-.36.28-.72.55-1.09.83-.81-.34-2.11,0-2.29.59-.77-.35-2.06-.02-2.2.56-.56-.41-1.89-.13-1.91.41-.21-.24-.72-.36-1.13-.26-.41.1-.65.41-.53.67-2.39.72-5.19.43-7.83.26-10.93-.72-21.87-1.44-32.8-2.16-1.39-.19-2.86-.16-4.23.08-1.5.26-3.16-.19-4.54-.65-.49-.16-.95-.36-1.49-.44-.54-.08-1.18-.01-1.49.27-.08-.71-1.83-1.06-2.57-.52-.17-.33-.53-.65-1.07-.74-.54-.1-1.22.14-1.22.48.09-.34-.36-.7-.92-.73-.56-.03-1.11.27-1.12.62-.18-.35-.84-.57-1.41-.47-.57.1-.95.5-.8.86-.5-.34-1.5-.32-1.96.04-.15.12-.29.27-.53.29-.18.01-.34-.07-.51-.1-.5-.11-1.09.22-.97.54-.6-.1-1.28.17-1.38.55-.63-.06-1.3.04-1.81.27-1.63.74-4.41-.32-5.78-1.24-.38-.25-.71-.54-1.21-.7s-1.22-.1-1.45.21c-.12-.35-.34-.71-.81-.91-.48-.2-1.27-.13-1.46.21-.06-.64-1.85-.82-2.23-.22.15-.29-.2-.64-.69-.69s-1,.21-1.02.52c-.32-.16-.73-.22-1.13-.27-1.16-.16-2.35-.31-3.51-.17-1.16.15-2.27.69-2.39,1.42-1.18-.62-2.92-.52-4.46-.4-.55.05-1.28.23-1.15.57-.17-.3-.73-.49-1.23-.42-.5.07-.87.4-.81.71-.16-.31-.76-.5-1.26-.4-.5.1-.82.46-.66.77-.33-.33-1.11.04-1.41.37-11.82-.24-24.06-.67-35.83-1.45,0-.39-.71-.63-1.3-.78-.58-.15-1.3-.05-1.73.23-.03-.29-.45-.55-.92-.58-.48-.02-.95.2-1.06.48-.36-.31-1.08-.42-1.64-.26-.55.16-.87.58-.72.94-.3-.27-.93-.36-1.41-.22-.47.14-.73.51-.56.82-.73-.58-2.54-.28-2.72.44-.12-.37-.73-.67-1.34-.61-.61.06-1.02.54-.7.86-.29-.33-.62-.69-1.19-.84-.56-.15-1.39.06-1.37.44-.41-.65-1.85-.95-2.81-.58-.09.04-.36-.09-.27-.13.09-.04.08-.12.05-.19-.26-.57-1.1-1.02-2.05-1.09-.95-.07-1.95.23-2.42.74-.08-.46-.73-.86-1.48-.89-.75-.04-1.5.29-1.69.74,0-.4-.19-.84-.72-1.08-.53-.24-1.44-.15-1.64.23.04-.38-.38-.75-.96-.87-.58-.12-1.28.04-1.61.36-.35-.47-1.54-.57-2.09-.19-.48-.41-1.65-.61-2.46-.51s-1.5.5-1.7.99c-.49-.34-1.31-.48-2.01-.34-.7.14-1.23.56-1.29,1.01-.57-.48-2.08-.15-2.05.44-.43-.47-1.82-.75-2.7-.69s-1.66.46-1.92.98c-.8-.61-2.69-.39-3.06.36-.5-.19-1.03-.39-1.62-.4-.59-.01-1.24.23-1.27.59-.46-.5-1.57-.39-2.17.05-.17.12-.29.28-.52.36-.2.07-.44.07-.66.07-5.32-.07-10.65-.13-15.97-.2l-.11,62.63c11.98,1.18,23.9,2.93,35.88,4.28Z"/>
    <path class="cls-4" d="M1283.86,132.87c43.93-4.04,88.17-.79,132.06,2.2,53.29,3.63,106.68,2.71,160.06,2.07,35.74-.43,71.47-1.3,107.17-3.02,34.92-1.68,69.65-5.15,104.51-7.49,53.98-3.63,109.22-5.29,161.25-20.76l-1.47-37.7c-1.18.65-2.48,1.14-3.85,1.47-5.89,1.41-12.22.8-18.16.11-2.92-.34-5.72-.61-8.54-.81-10.39,5.28-23.16,6.67-34.46,6.42-8.87-.2-18.16-1.74-26.78-3.8-3.42-.82-6.65-2.47-9.92-3.64-3.99-.09-7.98-.17-11.96-.27-6.29,1.65-12.61,1.81-19.11.92-1.28-.17-2.39-.4-3.62-.81-2.71-.9-3.94-1.03-6.82-.67-2.75.35-5.48.43-8.25.56-6.31.31-14.07.65-19.96-2.02-4.63-.2-9.27-.41-13.9-.64-12.14-.59-24.44-1.35-36.72-2.6-1.6.08-3.19.21-4.78.42-6.93.94-12.43,0-19.07-1.98-6.11-1.83-12.53-.75-18.59-2.47-3.5-1-6.84-3.99-10.31-5.58-1.1-.32-2.19-.65-3.29-.98-.31-.03-.62-.05-.93-.05-1.27.02-2.29-.36-3.06-.98,0,0,0,0,0,0-.77.06-1.32-.43-1.89-.85-.52-.18-1.04-.35-1.56-.53-.28.04-.54.13-.82.17-.47.06-.95-.06-1.42-.08s-1.06.12-1.17.46c-.39-.49-1.7-.23-1.71.34-.43-.5-1.65-.46-2.06.06-.15.2-.3.48-.6.46-.18,0-.3-.13-.46-.19-.53-.23-1.15.19-1.58.53-.43.33-1.7.98-1.94.57.28-.31-.37-.62-.88-.64-.51-.02-1.19-.04-1.3-.4-1.25-.47-2.87-.4-4.08.16-.51-.64-2.09-.57-2.54.11-.66-.69-2.52-.32-2.63.52-.64-.62-2.35-.2-2.38.58-.13-.45-1.03-.56-1.58-.31-.55.26-.81.72-1.04,1.16-.26-.42-.94-.66-1.57-.57-.63.09-1.14.52-1.18.98-.53-.57-1.79-.61-2.59-.21-.8.4-1.6,1.4-1.68,2.1-10.98,2.1-22.01,2.71-33.19,1.8.16-.35-.07-.98-.08-1.34,0-.15-.04-.32-.21-.4-.17-.08-.49.03-.42.17.16-.53-.82-1-1.46-.7.15-.28-.13-.62-.54-.66-.41-.04-.83.23-.81.53.12-.32-.25-.67-.71-.67s-.85.36-.74.67c-.72-.4-1.98-.09-2.24.55-.87-.34-2.14.05-2.43.74-.43-.14-.97.08-1.2.38-.24.3-.26.66-.27,1-.65-.03-1.32.23-1.65.64-.33.41-.3.95.08,1.33-3.77.09-7.85.18-11.62.27-.22-.53-.75-.98-1.43-1.23-.32.12-.59.31-.75.55-.32-.64-1.74-.78-2.33-.23-1.07.06-2.13.12-3.2.18-.6.03-1.38.2-1.39.63-.45-.24-1.19-.14-1.49.21-.33-.39-1.24-.69-1.85-.84s-1.47.16-1.4.62c.04-.37-.41-.73-.93-.74-.52-.01-1.02.32-1.05.69-.35-.31-.99-.43-1.53-.29s-.92.54-.91.95c-.2-.41-.82-.69-1.43-.64-.61.05-1.15.43-1.23.86-.41-.5-1.65-.44-2.01.1-.51-.09-1.05-.19-1.56-.07-.51.12-.93.53-.72.88-.83-.34-2.06.26-1.95.94-.21-.24-.76-.16-1,.07-.23.23-.24.54-.23.82-.49-.92-2.41-1.45-3.72-1.75-.37-.09-.77-.17-1.16-.12-.39.06-.76.32-.69.6-.29-.43-.86-.76-1.52-.87-.64-.1-1.51.15-1.49.62-.04-.37-.43-.7-.92-.79-.5-.09-1.07.06-1.38.36-.76-.28-1.86.14-1.96.76-.89-.53-2.49-.2-2.89.6-.53-.22-1.32-.02-1.57.39-.96.09-2.3.03-3.26.12-.18.02-.36.03-.53-.01-.24-.07-.36-.26-.48-.42-.2-.27-.48-.54-.88-.67-.39-.13-.93-.09-1.21.16-.35-.29-.72-.59-1.23-.7-.51-.11-1.19.09-1.28.47-.69-.49-1.96-.48-2.66.03-.34-.29-1.06-.29-1.41,0-.14.11-.24.27-.44.32-.22.05-.44-.05-.64-.12-.89-.31-2.12.04-2.5.71-.61-.52-1.99-.36-2.38.28.1-.3-.87-1.04-1.28-1.12-.41-.07-.88.12-1,.41-.03-.34-.61-.52-1.07-.43-.46.09-.81.35-1.13.61-.27-.25-.53-.51-.8-.76-.34-.33-.72-.67-1.26-.8-.55-.12-1.29.1-1.34.51-.52-.57-1.89-.59-2.48-.03-.38-.33-1.08-.44-1.64-.26-.56.17-.93.62-.87,1.05-.71-.36-1.77-.33-2.47.08-.69.41-.94,1.15-.59,1.73-.43-.37-1.71-.66-2.36-.79-.65-.13-1.52.14-1.59.63.23-.42-.47-.84-1.08-.76-.61.08-1.06.48-1.33.88-.12-.37-.61-.66-1.15-.67-.54-.01-1.07.25-1.25.62-.09-.49-.49-.98-1.15-1.12s-1.51.19-1.52.69c-.58-.66-1.87-.95-2.9-.65-1.03.3-1.69,1.16-1.49,1.94,0-.54-2.02-.65-2.53-.24-.22-.31-.73-.49-1.21-.43-.48.05-.91.34-1.01.68-.21-.43-1.08-.56-1.63-.3-.55.25-.79.76-.78,1.22-.49-.34-1.3-.41-1.9-.16-.6.25-.95.79-.81,1.26-.24-.35-.87-.53-1.39-.4-.52.13-.88.55-.79.94-.42-.28-1.14-.31-1.62-.06-.37.19-.57.53-.53.85-.21-.23-.76-.38-1.16-.46-.47-.09-.94-.18-1.41-.27-.34-.06-.78-.1-.96.12-.14-.54-1.19-.82-1.81-.47.19-.27-.19-.59-.6-.62-.41-.03-.81.13-1.18.28.13-.69-1.22-1.22-1.98-.77-.15-.69-1.7-.88-2.21-.27-.12-.41-.7-.71-1.28-.67-.58.04-1.1.41-1.16.82-.18-.5-.92-.84-1.64-.76s-1.29.59-1.27,1.1c-.3-.51-1.32-.61-1.99-.31-.67.3-1.02.86-1.19,1.4.19-.34-.19-.72-.67-.85-.48-.12-1.01-.05-1.51.02-.7.1-1.4.19-2.1.29-.16-.36-.71-.6-1.23-.54-.53.06-.97.4-1,.78-.07-.44-.98-.58-1.46-.29-.48.29-.55.81-.41,1.24-.2-.55-2.18-.86-2.96-.73-.78.12-1.37.72-1.26,1.28-.32-.35-1.22-.25-1.41.15-.58-.59-2.09-.49-2.55.18-.23-.39-.91-.6-1.47-.45-.56.14-.93.62-.79,1.03-.44-.31-1.15-.4-1.73-.22-.58.18-.99.61-1.01,1.06-.37-.34-1.11-.44-1.65-.23-.54.21-.83.72-.65,1.13-1.18-.5-2.67-.73-3.97-.37-1.3.36-12.38.21-12.02,1.16-11.3.6-20.63,4.53-31.94,5.13-20.02,1.06-32.91-.02-52.92,1.17-4.52.27-9.05.54-13.53,1.12-3.92.51-7.77,1.26-11.66,1.88-14.02,2.25-28.02,15.36-42.19,14.29l1.6,42.63c11.88-2.49,23.9-4.06,35.48-5.13Z"/>
    <path class="cls-4" d="M1661.71,21.55c-.13-.38-.49-.71-.89-.67-.28.03-.51.24-.65.48-.14.24-.19.52-.24.8-.33,1.79-.39,3.62-.8,5.38-.16.66-.17,1.72-.24,2.18-.06.42-.24.81-.37,1.21-.19.58-.29,1.19-.4,1.79-.47,2.49-1.18,4.94-2.14,7.29-.17.41-.34.82-.57,1.2-.19.34-.49.79-.76,1.08.29-1.86.45-3.74.61-5.61.12-1.4.54-2.78.38-4.18-.09-.81.02-1.62.11-2.43.2-1.75.17-3.5.35-5.25.14-1.38.28-2.76.43-4.14.07-.69.14-1.4-.01-2.07-.11-.48-.4-.99-.89-.97-.37.02-.65.33-.82.66-.27.52-.34,1.12-.4,1.7-.27,2.46-.6,5.01-.75,7.49-.21-3.65-.4-7.24-.43-10.89-.01-1.12-.02-2.25-.03-3.37,0-.48-.03-1.01-.34-1.38-.2-.23-.52-.37-.83-.34-.31.03-.6.22-.74.49-.12.24-.13.52-.12.8,0,1.26-.1,2.6,0,3.86-.09-.05-.21-.04-.29.02-.09.06-.14.15-.18.25-.13.33.2.75.5.94.18,2.21.02,4.46-.03,6.67-.03,1.25-.06,2.5-.09,3.76-.01.45-.02.89-.06,1.34-.04.46-.12.92-.14,1.39-.04,1.08.25,2.23.05,3.29-.3-.22-.65-.41-.98-.56-.01-2.68-.08-5.36-.21-8.04-.02-.39-.04-.79-.2-1.14-.16-.35-.49-.7-.88-.65-.31.04-.55.3-.67.59s-.12.61-.12.92c0,1.17-.06,2.37.06,3.53-.08-.53-.19-1.1-.59-1.46-.31-.27-.86-.37-1.15-.08-.44.45-.39,1.17-.29,1.79.15,1.01.33,2.02.65,2.98.32.97.89,1.85,1.58,2.59.13,1.49.26,2.97.38,4.46.11,1.31.25,2.68,1,3.76.16.23.53.55.78.42.04,1.77.07,3.54.11,5.31.01.65.03,1.3.09,1.94.07.74.2,1.47.28,2.21.33,2.9-.05,5.84.23,8.74.92.47,2.23.31,3.16-.14.38-4.93.45-9.89.22-14.83-.03-.6-.04-1.2.35-1.66,1.46-.42,2.79-1.4,3.41-2.79.18-.4.3-.81.41-1.23.75-2.72,1.41-5.25,1.83-8.05.2-1.31.44-2.75.61-4.07.26-2.04.52-4.09.78-6.13.05-.4.1-.81-.03-1.2ZM1650.74,37.69c-.05.35-.18.7-.23,1.05-.06.37-.07.83-.04,1.2-.28-1.33-.45-2.68-.51-4.03.23.04.51-.02.72-.12.01.36.06.69.08,1.05.01.28.02.57-.02.85Z"/>
    <path class="cls-4" d="M372.95,79.54c.04-4.29-.11-8.5.14-12.78-1.72-.2-3.24-1.29-4.31-2.65-1.07-1.37-1.73-2.99-2.33-4.62-1.03-2.82-1.89-5.72-2.29-8.7-.14-1.08-.17-2.33.63-3.07,1.02.43,1.64,1.47,1.92,2.54.76,2.87,1.15,5.88,2.48,8.54-.66-2.37-.65-5.02-.71-7.48-.02-.73.14-1.66.85-1.84.14-.04.32-.04.41-.16.08-.1.06-.24.05-.36-.08-.65-.12-1.29-.13-1.94,0-.62.04-1.28.4-1.79.36-.5,1.16-.74,1.62-.32.3.28.67.67.83,1.05-.05-4.32.17-8.88.45-13.19.03-.51.07-1.04.33-1.48.25-.44.79-.76,1.27-.6.67.22.79,1.09.79,1.79.03,7.76.06,15.52.08,23.28.23-3.57.79-7.24,1.02-10.81.03-.51.12-1.11.58-1.34.46-.24,1.05.08,1.29.54s.22,1,.2,1.52c-.26,5.89-.62,11.78-1.08,17.66.62-2.59,1.24-5.33,1.45-7.98.14-1.75.2-3.55.83-5.19.09-.24.21-.5.43-.63.36-.21.85.01,1.07.36.22.35.25.79.26,1.21.12,3.73-.24,7.49-1.17,11.11-.28,1.08-.66,2.22-1.55,2.88-.58.43-1.3.6-2,.77-.46,4.35-.92,8.63-1.21,12.99-.03.47-.09,1-.47,1.29-.56.43-1.68-.05-2.15-.57Z"/>
    <path class="cls-4" d="M105.92,56.76c.02-.32.03-.66-.12-.95-.15-.29-.51-.49-.8-.35-.18.09-.29.27-.38.45-.6,1.23-.77,2.62-1,3.97-.35,2.04-1.01,4.12-1.67,6.08.76-4.52,1.44-9.06,2.04-13.61.05-.4.1-.82-.05-1.19-.15-.37-.59-.66-.96-.51-.37.15-.48.61-.54,1-.42,2.75-1.1,5.55-1.52,8.3.32-3.79.64-7.59.96-11.38-.24-.06-.47-.12-.71-.17-.15-.03-.31-.06-.47-.08-.03.02-.06.05-.09.08-.32.22-.65.42-.99.61-.12,1.06-.23,2.12-.31,3.16-.09-.3-.36-.63-.57-.87-.33-.36-.96-.23-1.28.13-.32.37-.39.88-.43,1.36-.04.5-.05,1.01-.03,1.51,0,.1,0,.2-.06.28-.08.09-.21.08-.33.1-.56.09-.75.8-.78,1.37-.12,1.91-.31,3.96.04,5.84-.85-2.15-.95-4.5-1.34-6.78-.14-.85-.56-1.69-1.32-2.1-.67.52-.73,1.49-.7,2.34.1,2.33.57,4.64,1.18,6.9.35,1.3.76,2.61,1.49,3.74.73,1.13,1.84,2.08,3.16,2.35-.49,3.3-.65,6.57-.98,9.89.33.44,1.16.89,1.62.59.31-.2.39-.61.45-.97.53-3.36,1.17-6.64,1.82-9.98.55-.08,1.13-.16,1.6-.46.74-.45,1.11-1.31,1.4-2.12.97-2.74,1.5-5.62,1.66-8.52Z"/>
    <path class="cls-4" d="M1610.37,58.01c.22-4.61.2-9.47-.25-14.52-.11-1.23-.28-2.73-.95-3.77-.33-.51-.87-.82-1.46-.92-.71-.13-1.24.65-1.46,1.35-.77,2.4-.39,5.01,0,7.5.52,3.33,1.18,7.04,1.7,10.37.75.21,1.7.27,2.43,0Z"/>
    <path class="cls-4" d="M1295.48,82.76c.45-3.35.74-6.88.73-10.59,0-.91-.03-2.01-.46-2.81-.21-.39-.58-.65-1.01-.76-.51-.14-.94.4-1.15.89-.71,1.7-.6,3.62-.47,5.46.17,2.46.41,5.2.58,7.66.53.2,1.22.3,1.77.15Z"/>
    <path class="cls-4" d="M1285.84,85.61c-.19-7.06-.64-14.47-1.52-22.16-.22-1.88-.51-4.16-1.25-5.71-.36-.76-.64-.75-1.23-.68-.71.09-1.41.42-1.56,1.49-.53,3.71.15,7.1.73,12.04.64,5.51.95,10.94,2.49,15.15.74.28,1.67.32,2.35-.14Z"/>
  </g>
  <g>
    <path class="cls-7" d="M520.21,103.59c1.93.39,4.04-1.61,6.03-1.54.63.02,1.22.23,1.85.28,2.24.2,4.39-1.5,6.47-.86.38.12.72.31,1.12.41,1.1.26,2.19-.28,3.23-.61,2.49-.79,5.83-.76,8.39-.01,24.3,7.08,46.53-19.23,71.83-14.35,4.13.79,8.37,1.57,12.6,1.27,2.56-.18,5.03-.75,7.59-.93s5.23.73,7.48,1.65c5.16,2.11,10.45,4.06,15.84,5.85,3.78,1.25,7.7,2.44,11.84,2.63,2.35.11,4.73-.11,7.04.24,1.58.24,3.07.73,4.63,1.03,6.34,1.24,13.11-.68,19.56.24,3.36.48,6.68,1.72,10.02,1.25,1.55-.22,2.98-.8,4.57-.83,1.02-.01,2.02.21,3.01.41,9,1.86,18.58,2.2,27.72.99,7.33-.98,14.92-.48,22.15-1.77,5.53-.98,10.64-2.85,16.07-4.06,5.43-1.21,11.55-1.71,16.76.02,1.37.46,2.82,1.07,4.28.82.84-.15,1.53-.58,2.36-.76,1.34-.29,2.83.12,4.2-.1,1.32-.21,2.31-.96,3.5-1.41,2.82-1.05,6.29-.27,9.48-.49,3.78-.26,7.02-1.92,10.66-2.65,7.65-1.54,17.17,2.67,24.47.46,5.63-1.7,11.36-3.25,17.16-4.65,2.64-.63,5.46-1.24,8.19-.77,1.44.25,2.78.79,4.24.91,2.66.22,5.07-.95,7.62-1.49,2.19-.47,4.53-.47,6.83-.47,2.02,0,3.64.07,5.59-.28,3.57-.64,7.32-.82,11.01-.53,2.76.22,5.52.69,8.27.5,5.6-.39,9.95-3.42,14.9-5.26,5.31-1.98,11.46-2.62,17.5-2.65,4.95-.02,9.92.34,14.79,1.09,1.45.22,2.91.48,4.39.51,1.93.03,3.82-.33,5.73-.54,3.27-.37,6.62-.29,9.95-.22,21.28.48,42.56.97,63.85,1.45,2.26.05,5.37,1.02,7.49.48,5.11-1.3,10.22-2.61,15.33-3.91,1.8-.46,3.89-.9,5.57-.21.65.27,1.17.69,1.83.95.85.32,1.85.33,2.8.32,6.76-.06,13.5-.51,20.14-1.34,4.42-.55,9.94-1.72,14.15-.54,2.08-1.7,5.93-1.08,9.1-1.37,1.33-.12,2.6-.42,3.86-.73,4.72-1.17,9.48-2.52,14.5-2.59,4.73-.06,9.38,1.03,14.12,1.18,2.41.08,4.82-.09,7.22.13,5.88.55,8.22,1.54,13.23,3.83,4.78,2.18,12.67-1.68,18-.31.57.15.98,7.77,1.58,7.78.68,0,1.34-.16,1.99-.27,2.25-.4,4.71-.21,6.82.51l-1.79,68.48-704.82-18.43,4.12-28.74Z"/>
    <path class="cls-7" d="M-10.86,88.11c2.65.28,5.47-1.45,8.19-1.43.86,0,1.68.16,2.54.2,3.07.12,5.95-1.36,8.81-.87.53.09.99.25,1.54.32,1.51.2,2.98-.28,4.39-.59,3.38-.72,7.95-.77,11.48-.2,33.49,5.43,67.77,9.93,102.56,13.48,5.67.58,11.51,1.14,17.28.79,3.5-.21,6.86-.75,10.35-.95,3.5-.2,7.18.5,10.29,1.23,7.13,1.66,14.43,3.19,21.87,4.58,5.21.97,10.62,1.89,16.28,1.96,3.22.04,6.47-.19,9.64.04,2.17.16,4.22.54,6.37.77,8.72.91,17.91-.86,26.76-.23,4.61.33,9.2,1.3,13.75.83,2.11-.22,4.05-.74,6.22-.8,1.4-.03,2.77.13,4.13.28,12.38,1.37,25.5,1.45,37.95.22,9.99-.98,20.39-.74,30.23-1.98,7.52-.95,14.45-2.64,21.83-3.78,7.38-1.14,15.73-1.7,22.93-.35,1.89.35,3.9.84,5.88.59,1.14-.14,2.07-.52,3.19-.69,1.82-.27,3.87.04,5.74-.18,1.8-.21,3.12-.86,4.74-1.26,3.82-.95,8.6-.36,12.95-.62,5.15-.3,9.53-1.77,14.48-2.47,10.41-1.47,23.58,1.87,33.49-.15,7.64-1.56,15.42-2.99,23.3-4.29,3.58-.59,7.42-1.17,11.17-.83,1.97.18,3.83.6,5.84.67,3.65.13,6.9-.91,10.36-1.42,2.98-.44,6.18-.5,9.32-.55,2.76-.04,4.99-.02,7.64-.36,4.87-.62,9.99-.85,15.04-.69,3.78.12,7.58.46,11.33.24,7.65-.46,13.48-3.1,20.19-4.76,7.19-1.79,15.58-2.46,23.85-2.62,6.78-.13,13.58.07,20.26.59,1.99.16,3.99.34,6.02.33,2.65-.01,5.22-.36,7.81-.58,4.47-.38,9.14-1.2,13.6-.4,33.24,5.93,58.25-.12,87.37-.18,3.09,0,7.39.74,10.26.24,6.94-1.21,13.88-2.42,20.83-3.64,2.45-.43,5.29-.85,7.61-.3.9.21,1.62.56,2.54.76,1.17.25,2.54.23,3.85.21,9.24-.2,15.02,10.94,24.07,10.1,6.02-.56,10.01-.3,15.81.61,3.36.37,5.95,3.3,10.27,2.99,1.81-.13,5.41-2.38,7.12-2.67,6.42-1.09,5,2.1,11.88,1.94,6.47-.16,28.78-.5,35.26-.48,3.29.01,27.26,7.71,30.54,7.84,8.06.33,7.35-10.51,14.29-8.68,6.62,1.74,2.75-4.12,10.09-3.08.79.11,2.26-2.23,3.08-2.24.93,0-1.85-3.94-.95-4.05,3.06-.38,6.43-.28,9.35.28v49.31H-10.64s-.21-43.04-.21-43.04Z"/>
    <path class="cls-7" d="M1455.35,34.36c-.26-.76-.99-1.43-1.79-1.34-.55.06-1.02.48-1.29.96-.27.49-.38,1.05-.48,1.6-.65,3.58-.77,7.24-1.61,10.78-.31,1.33-.35,3.44-.48,4.37-.12.84-.48,1.62-.75,2.42-.39,1.16-.58,2.38-.81,3.58-.93,5-2.37,9.9-4.29,14.6-.33.82-.69,1.64-1.13,2.41-.39.67-.99,1.59-1.51,2.17.59-3.72.91-7.49,1.23-11.24.24-2.81,1.08-5.57.76-8.37-.19-1.62.04-3.25.22-4.87.41-3.51.34-7,.7-10.52.28-2.77.57-5.53.85-8.3.14-1.38.28-2.8-.02-4.15-.22-.96-.8-1.98-1.78-1.94-.74.03-1.31.66-1.64,1.31-.53,1.05-.68,2.24-.8,3.41-.53,4.93-1.19,10.04-1.49,14.99-.42-7.3-.79-14.49-.87-21.8-.02-2.25-.05-4.5-.07-6.75-.01-.97-.05-2.03-.69-2.76-.41-.47-1.04-.73-1.65-.68-.62.05-1.2.44-1.48.99-.24.48-.25,1.05-.25,1.59,0,2.51-.2,5.22-.02,7.72-.18-.11-.41-.08-.59.04-.17.11-.29.3-.36.49-.25.67.41,1.49,1,1.89.36,4.42.05,8.92-.06,13.36-.06,2.51-.12,5.01-.18,7.52-.02.89-.04,1.79-.13,2.68-.09.93-.24,1.85-.28,2.78-.09,2.16.51,4.47.11,6.59-.61-.43-1.29-.81-1.97-1.12-.02-5.37-.16-10.73-.41-16.09-.04-.78-.08-1.57-.41-2.28-.33-.7-.99-1.4-1.76-1.29-.62.08-1.11.6-1.34,1.19s-.24,1.22-.24,1.85c0,2.33-.12,4.75.11,7.07-.17-1.06-.38-2.21-1.18-2.92-.61-.54-1.72-.75-2.29-.17-.88.9-.77,2.34-.59,3.58.3,2.02.65,4.04,1.3,5.97.65,1.93,1.78,3.71,3.17,5.19.26,2.98.51,5.95.77,8.93.22,2.62.5,5.37,2,7.53.32.46,1.06,1.1,1.55.84.07,3.54.15,7.09.22,10.63.03,1.3.05,2.6.17,3.89.14,1.48.39,2.95.56,4.43.65,5.8-.1,11.69.46,17.5,1.85.94,4.47.63,6.33-.28.76-9.88.91-19.8.44-29.69-.06-1.2-.07-2.4.7-3.33,2.92-.83,5.58-2.81,6.83-5.58.36-.79.6-1.63.83-2.47,1.5-5.45,2.82-10.52,3.66-16.11.4-2.63.88-5.51,1.22-8.15.52-4.09,1.04-8.18,1.57-12.27.1-.8.2-1.63-.06-2.39ZM1433.39,66.68c-.1.71-.35,1.39-.46,2.1-.11.75-.15,1.65-.09,2.41-.56-2.66-.9-5.36-1.02-8.07.47.07,1.01-.05,1.45-.24.03.72.13,1.38.15,2.11.02.57.04,1.14-.04,1.7Z"/>
    <path class="cls-7" d="M65.76,20.03c-.33-.96-1.25-1.81-2.26-1.69-.7.08-1.29.6-1.63,1.22-.34.62-.48,1.32-.61,2.01-.83,4.52-.97,9.14-2.03,13.61-.4,1.68-.44,4.35-.61,5.52-.16,1.06-.61,2.04-.94,3.06-.49,1.47-.73,3-1.02,4.52-1.18,6.31-2.99,12.49-5.41,18.44-.42,1.04-.87,2.07-1.43,3.04-.49.85-1.25,2.01-1.91,2.73.74-4.7,1.15-9.45,1.55-14.19.3-3.54,1.36-7.03.95-10.56-.24-2.04.05-4.1.28-6.15.51-4.43.43-8.84.89-13.27.36-3.49.72-6.98,1.08-10.47.18-1.75.36-3.53-.03-5.24-.28-1.22-1.01-2.5-2.25-2.45-.93.04-1.65.83-2.08,1.66-.67,1.32-.85,2.83-1.01,4.31-.67,6.22-1.51,12.67-1.88,18.92-.53-9.22-1-18.29-1.1-27.52-.03-2.84-.06-5.68-.09-8.52-.01-1.22-.07-2.56-.87-3.48-.51-.59-1.31-.92-2.09-.86-.78.07-1.51.55-1.86,1.25-.31.61-.32,1.33-.31,2.01.01,3.17-.25,6.58-.02,9.75-.22-.13-.52-.1-.74.05-.22.14-.37.38-.46.62-.32.84.51,1.88,1.26,2.39.46,5.58.06,11.26-.08,16.86-.08,3.17-.15,6.33-.23,9.5-.03,1.13-.05,2.26-.16,3.38-.11,1.17-.31,2.33-.35,3.51-.11,2.72.64,5.64.14,8.32-.77-.54-1.63-1.03-2.49-1.42-.03-6.77-.2-13.55-.52-20.32-.05-.98-.1-1.99-.52-2.88-.41-.89-1.25-1.77-2.22-1.63-.78.11-1.4.76-1.69,1.5s-.3,1.54-.3,2.33c0,2.95-.16,6,.14,8.93-.21-1.34-.48-2.79-1.5-3.69-.77-.69-2.17-.95-2.9-.21-1.11,1.13-.98,2.95-.74,4.52.38,2.55.82,5.09,1.64,7.53s2.24,4.68,4,6.56c.32,3.76.65,7.52.97,11.27.28,3.31.63,6.78,2.53,9.5.4.58,1.33,1.38,1.96,1.07.09,4.47.18,8.95.28,13.42.03,1.64.07,3.28.22,4.91.17,1.87.5,3.72.71,5.59.82,7.32-.13,14.75.58,22.09,2.33,1.19,5.64.8,8-.35.96-12.47,1.15-24.99.55-37.48-.07-1.52-.09-3.03.88-4.2,3.68-1.05,7.05-3.55,8.63-7.04.45-1,.75-2.06,1.04-3.12,1.89-6.88,3.56-13.28,4.63-20.34.5-3.31,1.12-6.96,1.54-10.29.66-5.16,1.32-10.33,1.98-15.49.13-1.01.25-2.06-.07-3.02ZM38.03,60.83c-.13.9-.45,1.76-.58,2.65-.14.95-.19,2.09-.11,3.04-.7-3.36-1.13-6.77-1.28-10.19.59.09,1.28-.06,1.83-.3.03.91.16,1.74.19,2.66.03.72.05,1.43-.05,2.14Z"/>
    <path class="cls-7" d="M616.6,53.49c.21,1.44.47,2.88.93,4.26.46,1.38,1.27,2.64,2.26,3.71.18,2.12.36,4.25.55,6.37.16,1.87.35,3.83,1.43,5.37.23.33.75.78,1.11.6.05,2.53.1,5.06.16,7.58.02.93.04,1.85.12,2.77.1,1.06.28,2.1.4,3.16.47,4.14-.07,8.34.33,12.49,1.32.67,3.19.45,4.52-.2.55-7.05.65-14.13.31-21.19-.04-.86-.05-1.71.5-2.38.01,0,.03-.01.04-.01.05-1.54.18-3.05.44-4.55-.18.26-.37.51-.54.7.42-2.66.65-5.34.87-8.02.17-2,.77-3.97.54-5.97-.13-1.15.03-2.32.16-3.47.29-2.5.24-5,.5-7.5.2-1.97.41-3.95.61-5.92.1-.99.2-1.99-.02-2.96-.16-.69-.57-1.41-1.27-1.38-.52.02-.93.47-1.17.94-.38.75-.48,1.6-.57,2.44-.38,3.52-.85,7.16-1.07,10.69-.3-5.21-.57-10.34-.62-15.56-.02-1.6-.03-3.21-.05-4.81,0-.69-.04-1.45-.49-1.97-.29-.33-.74-.52-1.18-.48-.44.04-.86.31-1.05.71-.17.35-.18.75-.18,1.14,0,1.79-.14,3.72-.01,5.51-.13-.08-.3-.06-.42.03-.12.08-.21.21-.26.35-.18.48.29,1.06.71,1.35.26,3.16.03,6.37-.04,9.53-.04,1.79-.09,3.58-.13,5.37-.02.64-.03,1.28-.09,1.91-.06.66-.17,1.32-.2,1.98-.06,1.54.36,3.19.08,4.7-.43-.31-.92-.58-1.41-.8-.02-3.83-.11-7.66-.29-11.48-.03-.55-.06-1.12-.29-1.63-.23-.5-.7-1-1.25-.92-.44.06-.79.43-.95.85-.16.42-.17.87-.17,1.32,0,1.66-.09,3.39.08,5.05-.12-.76-.27-1.58-.85-2.09-.44-.39-1.23-.54-1.64-.12-.63.64-.55,1.67-.42,2.56ZM622.45,63.05c.34.05.72-.03,1.03-.17.02.52.09.99.11,1.5.01.4.03.81-.03,1.21-.07.51-.25.99-.33,1.5-.08.53-.11,1.18-.06,1.72-.4-1.9-.64-3.83-.72-5.76Z"/>
    <path class="cls-7" d="M1117.17,54.57c.55,2.25,1.19,4.5,2.37,6.65,1.18,2.15,3.23,4.13,5.77,5.79.46,3.32.93,6.63,1.39,9.95.41,2.92.9,5.99,3.65,8.38.58.51,1.92,1.22,2.83.94.13,3.95.27,7.89.4,11.84.05,1.44.1,2.89.31,4.33.25,1.65.72,3.28,1.02,4.93,1.19,6.46-.19,13.02.84,19.49,3.36,1.05,8.13.7,11.53-.31,1.39-11,1.66-22.05.79-33.07-.1-1.34-.13-2.68,1.27-3.71.04,0,.07-.02.11-.02.13-2.4.46-4.77,1.12-7.11-.46.4-.93.79-1.38,1.09,1.07-4.15,1.65-8.34,2.23-12.52.43-3.13,1.97-6.2,1.38-9.32-.34-1.8.07-3.62.41-5.42.74-3.91.62-7.8,1.28-11.71.52-3.08,1.03-6.16,1.55-9.24.26-1.54.51-3.11-.05-4.62-.4-1.07-1.45-2.21-3.25-2.16-1.34.04-2.38.73-2.99,1.46-.97,1.17-1.23,2.5-1.46,3.8-.97,5.49-2.17,11.18-2.72,16.7-.77-8.13-1.44-16.14-1.58-24.29-.04-2.5-.08-5.01-.13-7.51-.02-1.08-.1-2.26-1.26-3.07-.74-.52-1.89-.82-3.01-.76-1.12.06-2.18.49-2.69,1.1-.44.54-.46,1.17-.45,1.77.02,2.8-.36,5.81-.03,8.6-.32-.12-.75-.09-1.07.04-.32.13-.53.33-.66.55-.46.74.74,1.66,1.82,2.11.66,4.93.08,9.94-.11,14.88-.11,2.79-.22,5.59-.33,8.38-.04,1-.08,1.99-.23,2.99-.16,1.03-.44,2.06-.51,3.09-.16,2.4.92,4.98.2,7.34-1.11-.48-2.35-.91-3.59-1.25-.04-5.98-.29-11.96-.75-17.93-.07-.86-.15-1.75-.75-2.54-.6-.78-1.8-1.56-3.2-1.44-1.13.09-2.02.67-2.43,1.32-.41.65-.44,1.36-.44,2.06,0,2.6-.23,5.29.21,7.88-.31-1.18-.7-2.46-2.16-3.26-1.11-.61-3.13-.84-4.18-.18-1.6,1-1.41,2.6-1.07,3.99ZM1132.09,69.48c.86.08,1.85-.05,2.64-.27.05.81.23,1.54.28,2.35.04.63.07,1.27-.07,1.89-.18.79-.65,1.55-.84,2.34-.2.83-.27,1.84-.16,2.68-1.01-2.96-1.63-5.97-1.85-8.99Z"/>
    <path class="cls-7" d="M1081.05,65.52c-.42-.26-1.23-.17-1.68.07-.59.32-.74.83-.87,1.31.17-1.04.08-2.12.08-3.17,0-.28,0-.57-.18-.83-.17-.26-.53-.49-.98-.53-.56-.05-1.05.26-1.29.58-.24.32-.27.67-.3,1.02-.19,2.4-.29,4.8-.3,7.21-.5.14-1,.31-1.44.5-.29-.95.14-1.99.08-2.95-.03-.42-.14-.83-.2-1.24-.06-.4-.08-.8-.09-1.2-.04-1.12-.09-2.25-.13-3.37-.08-1.99-.31-4-.04-5.98.43-.18.92-.55.73-.85-.05-.09-.14-.17-.27-.22-.13-.05-.3-.06-.43-.02.13-1.12-.02-2.33-.01-3.46,0-.24,0-.5-.18-.71-.2-.25-.63-.42-1.08-.44-.45-.02-.91.09-1.21.3-.47.33-.5.8-.5,1.23-.02,1.01-.03,2.01-.05,3.02-.06,3.28-.33,6.49-.64,9.76-.22-2.22-.7-4.51-1.09-6.71-.09-.52-.2-1.06-.59-1.53-.24-.29-.67-.57-1.2-.59-.72-.02-1.15.44-1.31.87-.23.61-.12,1.24-.02,1.86.21,1.24.42,2.48.62,3.72.26,1.57.22,3.14.51,4.71.14.72.3,1.46.16,2.18-.24,1.25.38,2.49.55,3.75.23,1.68.47,3.37.9,5.03-.18-.12-.37-.28-.56-.44.27.94.4,1.89.45,2.86.01,0,.03,0,.04,0,.56.41.55.95.51,1.49-.35,4.43-.24,8.87.32,13.3,1.36.41,3.28.55,4.63.12.41-2.6-.14-5.24.34-7.84.12-.66.31-1.32.41-1.98.09-.58.11-1.16.13-1.74.05-1.59.11-3.17.16-4.76.36.11.9-.17,1.14-.38,1.1-.96,1.3-2.2,1.47-3.37.19-1.33.37-2.67.56-4,1.02-.67,1.84-1.46,2.32-2.33.47-.87.73-1.77.95-2.67.14-.56.21-1.2-.43-1.6ZM1074.74,76.74c.04-.34.02-.74-.06-1.08-.08-.32-.26-.62-.34-.94-.06-.25-.04-.51-.03-.76.02-.32.09-.62.11-.94.32.09.72.14,1.06.11-.09,1.22-.33,2.43-.74,3.62Z"/>
    <path class="cls-7" d="M205.63,97.77c.43,1.79.95,3.58,1.89,5.29.94,1.71,2.57,3.29,4.59,4.61.37,2.64.74,5.28,1.11,7.92.33,2.32.72,4.76,2.9,6.67.46.41,1.53.97,2.25.75.11,3.14.21,6.28.32,9.42.04,1.15.08,2.3.25,3.45.2,1.31.57,2.61.81,3.92.95,5.14-.15,10.36.67,15.51,2.68.84,6.47.56,9.17-.25,1.11-8.76,1.32-17.55.63-26.32-.08-1.07-.11-2.13,1.01-2.95.03,0,.06-.01.09-.02.11-1.91.36-3.79.89-5.66-.36.32-.74.63-1.1.87.85-3.3,1.31-6.64,1.78-9.97.35-2.49,1.56-4.94,1.09-7.42-.27-1.43.05-2.88.33-4.32.59-3.11.49-6.21,1.02-9.32.41-2.45.82-4.9,1.24-7.36.21-1.23.41-2.48-.04-3.68-.32-.85-1.15-1.76-2.58-1.72-1.07.03-1.9.58-2.38,1.16-.77.93-.98,1.99-1.16,3.03-.77,4.37-1.73,8.9-2.16,13.29-.61-6.47-1.15-12.84-1.26-19.33-.03-1.99-.07-3.99-.1-5.98-.01-.86-.08-1.8-1-2.44-.59-.41-1.5-.65-2.4-.6-.89.05-1.74.39-2.14.88-.35.43-.36.93-.36,1.41.01,2.23-.28,4.62-.03,6.85-.26-.09-.6-.07-.85.03-.25.1-.42.26-.52.44-.37.59.59,1.32,1.45,1.68.53,3.92.07,7.91-.09,11.84-.09,2.22-.17,4.45-.26,6.67-.03.79-.06,1.59-.18,2.38-.13.82-.35,1.64-.41,2.46-.13,1.91.73,3.96.16,5.84-.88-.38-1.87-.72-2.85-.99-.03-4.76-.23-9.52-.6-14.27-.05-.69-.12-1.4-.59-2.02-.48-.62-1.43-1.24-2.55-1.15-.9.07-1.61.54-1.94,1.05-.33.52-.35,1.08-.35,1.64,0,2.07-.18,4.21.16,6.27-.24-.94-.55-1.96-1.72-2.59-.89-.48-2.49-.67-3.32-.15-1.27.8-1.12,2.07-.85,3.18ZM217.51,109.64c.68.06,1.47-.04,2.1-.21.04.64.18,1.22.22,1.87.03.5.06,1.01-.06,1.51-.14.63-.51,1.23-.67,1.86-.16.66-.21,1.46-.13,2.13-.81-2.36-1.3-4.75-1.47-7.16Z"/>
    <path class="cls-7" d="M1900.96,21.83c-.34-1.01-1.3-1.89-2.36-1.77-.73.08-1.35.63-1.71,1.27-.36.64-.5,1.38-.64,2.11-.86,4.73-1.02,9.56-2.12,14.24-.41,1.76-.46,4.55-.64,5.77-.16,1.11-.64,2.14-.99,3.2-.51,1.54-.77,3.14-1.07,4.73-1.23,6.6-3.13,13.07-5.66,19.29-.44,1.09-.91,2.17-1.5,3.19-.52.89-1.31,2.1-2,2.86.78-4.92,1.2-9.89,1.62-14.85.31-3.71,1.43-7.36,1-11.06-.25-2.14.05-4.3.3-6.43.54-4.64.45-9.25.93-13.89.38-3.65.75-7.31,1.13-10.96.19-1.83.37-3.69-.03-5.48-.29-1.27-1.05-2.62-2.36-2.56-.97.04-1.73.87-2.17,1.74-.71,1.38-.89,2.97-1.06,4.51-.71,6.51-1.58,13.26-1.97,19.8-.56-9.65-1.05-19.14-1.15-28.8-.03-2.97-.06-5.94-.09-8.91-.01-1.28-.07-2.68-.91-3.64-.54-.62-1.37-.97-2.19-.9-.81.07-1.58.58-1.95,1.31-.32.64-.33,1.39-.33,2.1.01,3.32-.26,6.89-.02,10.2-.23-.14-.55-.1-.78.05-.23.15-.38.39-.48.65-.33.88.54,1.97,1.32,2.5.48,5.84.06,11.79-.08,17.65-.08,3.31-.16,6.62-.24,9.94-.03,1.18-.06,2.36-.17,3.54-.12,1.22-.32,2.44-.37,3.67-.11,2.85.67,5.91.14,8.71-.8-.57-1.71-1.08-2.6-1.48-.03-7.09-.21-14.18-.55-21.26-.05-1.03-.11-2.08-.54-3.01-.43-.93-1.31-1.85-2.32-1.71-.82.11-1.47.8-1.77,1.57s-.32,1.62-.32,2.44c0,3.08-.16,6.28.15,9.34-.22-1.4-.5-2.92-1.56-3.86-.81-.72-2.27-.99-3.03-.22-1.16,1.19-1.02,3.09-.78,4.73.4,2.66.86,5.33,1.72,7.89s2.35,4.9,4.19,6.86l1.01,11.8c.3,3.46.66,7.1,2.65,9.94.42.6,1.4,1.45,2.05,1.12.1,4.68.19,9.36.29,14.04.04,1.71.07,3.43.23,5.14.18,1.96.52,3.89.74,5.85.86,7.67-.14,15.44.61,23.12,2.44,1.25,5.9.83,8.37-.37,1.01-13.05,1.2-26.16.58-39.23-.08-1.59-.1-3.17.92-4.4,3.86-1.1,7.38-3.72,9.03-7.37.47-1.05.79-2.15,1.09-3.26,1.98-7.2,3.72-13.9,4.84-21.29.53-3.47,1.17-7.28,1.61-10.76.69-5.41,1.38-10.81,2.07-16.22.13-1.06.27-2.15-.08-3.16ZM1871.94,64.54c-.13.94-.47,1.84-.61,2.78-.15.99-.19,2.18-.12,3.18-.74-3.51-1.19-7.08-1.34-10.67.62.09,1.34-.06,1.92-.32.03.96.17,1.83.2,2.78.03.75.05,1.5-.05,2.24Z"/>
    <path class="cls-7" d="M523.7,98.44c1.6-9.94,2.74-20.47,2.98-31.53.06-2.7.06-5.99-1.15-8.41-.59-1.18-1.69-1.99-2.95-2.36-1.52-.45-2.85,1.12-3.5,2.56-2.26,5.02-2.06,10.76-1.82,16.26.32,7.34.84,15.54,1.16,22.89,1.57.64,3.62,1,5.27.59Z"/>
    <path class="cls-7" d="M1768.77,85.65c-1.39-7.03-2.35-14.51-2.42-22.4-.02-1.93.03-4.28,1.22-6.06.58-.87,1.64-1.5,2.86-1.82,1.46-.39,2.71.67,3.31,1.67,2.1,3.48,1.83,7.59,1.52,11.54-.41,5.26-1.02,11.15-1.43,16.41-1.51.53-3.48.88-5.06.67Z"/>
    <path class="cls-7" d="M1824.92,93.12c17.93,1.98,35.73,4.95,53.47,8.17,10.12,1.83,19.13,5.45,28.89,8.57,3.59,1.15,17.17,6.36,20.04,1.68v-21.83c-2.16-.67-4.66-.79-6.93-.33-.67.13-1.32.32-2.02.32-.61,0-1.21-.12-1.79-.25-5.44-1.23-10.68-2.9-15.59-4.96-5.15-2.16-10.22-4.82-16.2-5.22-2.43-.16-4.88.07-7.32.06-4.8-.03-9.55-.99-14.35-.81-5.1.2-9.88,1.67-14.64,2.97-1.27.35-2.56.68-3.9.83-3.21.37-7.13-.15-9.19,1.61-4.3-1.08-9.87.24-14.34.9-6.71,1-13.54,1.63-20.4,1.87-.97.03-1.98.05-2.85-.24-.68-.23-1.22-.64-1.89-.9-1.72-.65-3.83-.15-5.64.35-4.93,1.38-9.87,2.76-14.8,4.13,16.51.81,33.01,1.27,49.46,3.09Z"/>
    <path class="cls-7" d="M1910.35,98.27c-9.76-2.57-18.97-7.38-28.9-9.21-19.68-3.63-39.42-7.08-59.33-9.15-19.6-2.04-39.29-2.01-58.93-3.5-15.85-1.2-30.7-5.57-45.94-9.22-4.95.02-9.9.03-14.85.05-3.37.01-6.77.02-10.08.48-1.93.26-3.83.67-5.8.69-1.5.01-2.99-.21-4.47-.39-4.95-.62-10-.86-15.03-.7-6.13.19-12.35.99-17.69,3.11-4.98,1.98-9.31,5.11-14.98,5.65-2.79.27-5.6-.14-8.41-.28-3.75-.19-7.55.09-11.16.82-1.97.4-3.62.37-5.67.42-2.33.06-4.7.12-6.91.65-2.57.61-4.98,1.84-7.69,1.69-1.49-.08-2.86-.59-4.33-.8-2.78-.4-5.63.28-8.28.98-5.85,1.55-11.62,3.25-17.28,5.1-7.35,2.4-17.12-1.56-24.84.18-3.67.83-6.92,2.57-10.74,2.93-3.23.3-6.77-.39-9.6.73-1.2.48-2.18,1.26-3.51,1.5-1.38.25-2.9-.11-4.26.21-.84.2-1.52.65-2.37.82-1.47.3-2.96-.29-4.36-.7-5.34-1.6-11.53-.93-17.01.42-5.48,1.35-10.61,3.36-16.19,4.48-7.3,1.47-15.01,1.18-22.42,2.34-9.24,1.46-18.97,1.36-28.15-.26-1.01-.18-2.03-.38-3.06-.34-1.6.06-3.05.68-4.61.95-3.37.56-6.78-.6-10.2-.99-6.56-.75-13.38,1.35-19.84.27-1.59-.26-3.11-.72-4.72-.91-2.35-.28-4.76,0-7.15-.05-4.2-.08-8.21-1.17-12.08-2.32-5.52-1.65-10.93-3.46-16.22-5.44-2.31-.86-5.04-1.7-7.63-1.46s-5.09.88-7.68,1.13c-4.28.41-8.61-.25-12.81-.94-25.8-4.21-50.23-8.64-75.07-15.08-2.62-.68-7-1.55-9.51-.69-1.05.36-2.14.93-3.26.69-.4-.08-.75-.27-1.14-.38-2.13-.59-4.26,1.17-6.54,1.03-.64-.04-1.24-.23-1.88-.23-2.02-.02-4.11,2.03-6.08,1.7l.16,61.07h715.46v-35.59c-5.49,1.04-12.08-.15-16.98-1.44Z"/>
  </g>
  <path class="cls-3" d="M330.94,75.78c.55-6.56.77-13.48.38-20.71-.1-1.76-.26-3.91-1.16-5.42-.44-.74-1.2-1.21-2.04-1.39-1.01-.22-1.8.87-2.15,1.84-1.22,3.39-.81,7.12-.38,10.69.57,4.77,1.32,10.09,1.89,14.86,1.06.34,2.41.47,3.46.12Z"/>
</svg>