<svg xmlns="http://www.w3.org/2000/svg" viewBox="0 0 109.42 109.42" width="109" height="109"><g data-name="Capa 2"><g data-name="Capa 1"><path d="M51.29 0h6.84c.27.06.54.13.82.18 2.81.43 5.66.69 8.42 1.32a54.62 54.62 0 0141.22 43.78c.33 2 .55 4 .83 6v6.84c-.06.27-.14.55-.18.82-.37 2.54-.61 5.09-1.13 7.6-4.38 21.21-22.52 38.56-43.87 42-2 .33-4.07.57-6.11.85h-6.84a5.8 5.8 0 00-.72-.17c-2.49-.37-5-.61-7.48-1.1C21.88 103.9 4.3 85.65.85 64.35.52 62.28.28 60.2 0 58.13v-6.84c.35-2.42.61-4.86 1.06-7.29C5.12 22.24 23.32 4.44 45.17.84 47.2.51 49.25.28 51.29 0zm36.26 90A48.24 48.24 0 107.41 45a48.18 48.18 0 0014.44 45 34.62 34.62 0 0119.81-22.22C35.45 63.42 31.74 57.6 31 50.11a23 23 0 017.05-19.28 23.71 23.71 0 0133.31.07 22.88 22.88 0 017.07 16.65c0 8.58-3.74 15.22-10.68 20.24A34.58 34.58 0 0187.55 90zM53 103c10.89 0 20-2.68 27.92-7.73a1.61 1.61 0 00.79-2.08 27.74 27.74 0 00-54.12.26 1.41 1.41 0 00.75 1.73A47.3 47.3 0 0053 103zM37.33 47.77a17.38 17.38 0 1017.45-17.33 17.36 17.36 0 00-17.45 17.33z" fill="#fff"/></g></g></svg>