<svg xmlns="http://www.w3.org/2000/svg" viewBox="0 0 28.35 32.99" width="28" height="33"><defs><style>.cls-1{fill:#fff}</style></defs><g id="Capa_2" data-name="Capa 2"><g id="Capa_1-2" data-name="Capa 1"><path class="cls-1" d="M13.69 29.74h-.61v.07h.1a.27.27 0 010 .13v.71a.27.27 0 010 .13h-.1v.07h.63a.51.51 0 00.4-.16.64.64 0 00.15-.45.61.61 0 00-.14-.42.58.58 0 00-.43-.08zm.22 1a.34.34 0 01-.29.13.22.22 0 01-.14 0v-.99h.09a.46.46 0 01.36.12.53.53 0 01.1.37.72.72 0 01-.12.34zM15.15 30.72a.42.42 0 010 .11h-.36v-.49H15v.07h.08v-.25H15v.08h-.27v-.45h.36a.08.08 0 010 .06V30h.12v-.21h-.86v.07h.09a.27.27 0 010 .13v.71a.27.27 0 010 .13h-.09v.07h.9v-.2h-.12zM4 30.61a.43.43 0 010 .15h-.51V30.1h.36v.1H4v-.34h-.16v.1h-.38v-.6h.33a.31.31 0 01.13 0v.16h.16v-.28H3v.1a.24.24 0 01.13 0 .49.49 0 010 .17v1a.49.49 0 010 .17.24.24 0 01-.13 0v.09h1.2v-.29H4zM5 30l-.11-.06a.59.59 0 01-.18-.13.2.2 0 010-.13.21.21 0 01.07-.18.23.23 0 01.17-.08.28.28 0 01.2.08.49.49 0 010 .19h.16v-.31a1.41 1.41 0 00-.42-.07.56.56 0 00-.38.12.39.39 0 00-.14.32c0 .17.13.33.39.47l.11.06a.67.67 0 01.17.13.25.25 0 010 .16.27.27 0 01-.28.28.36.36 0 01-.23-.08s-.05-.08-.06-.18H4.4v.33a2.47 2.47 0 00.44.05.71.71 0 00.43-.12.45.45 0 00.16-.35.37.37 0 00-.09-.25A1.1 1.1 0 005 30zM5.63 29.65h.16v-.17a.17.17 0 01.12 0h.29v1.16a.49.49 0 010 .17.32.32 0 01-.16 0H6v.09h.72v-.09h-.15a.53.53 0 010-.18v-1.21h.25a.19.19 0 01.13 0v.17h.15v-.33H5.63zM8.73 30.76s-.05-.08-.1-.18l-.58-1.28h-.11l-.58 1.27a.9.9 0 01-.1.19h-.11v.09h.41v-.09h-.13a.68.68 0 01.05-.17l.08-.17h.66l.08.16a.85.85 0 01.06.17l-.14.05v.09h.66v-.09zm-1.12-.45l.28-.61.28.61zM9.72 29.32H8.9v.1a.21.21 0 01.13 0V30.76c0 .02-.05 0-.13 0v.09h.84a.67.67 0 00.54-.22.84.84 0 00.2-.59.73.73 0 00-.2-.56.76.76 0 00-.56-.16zM10 30.6a.43.43 0 01-.38.17.36.36 0 01-.19 0V29.42h.12a.66.66 0 01.48.15.73.73 0 01.14.5.94.94 0 01-.17.53zM11.45 29.28a.76.76 0 00-.58.22.84.84 0 00-.21.6.81.81 0 00.21.6.76.76 0 00.58.22.75.75 0 00.55-.22.78.78 0 00.22-.6.81.81 0 00-.22-.6.75.75 0 00-.55-.22zm.34 1.36a.37.37 0 01-.34.18.35.35 0 01-.33-.18 1.38 1.38 0 010-1.08.37.37 0 01.33-.18.39.39 0 01.34.18 1.38 1.38 0 010 1.08zM16.69 30l-.11-.06a.67.67 0 01-.17-.13.21.21 0 01-.05-.13.26.26 0 01.24-.26.28.28 0 01.2.08.35.35 0 010 .19h.2v-.31a1.41 1.41 0 00-.42-.07.58.58 0 00-.38.12.42.42 0 00-.14.32c0 .17.13.33.4.47l.1.06a.59.59 0 01.18.13.25.25 0 010 .16.24.24 0 01-.08.2.28.28 0 01-.2.08.38.38 0 01-.23-.08s-.05-.08-.05-.18h-.16v.33a2.58 2.58 0 00.44.05.71.71 0 00.43-.12.45.45 0 00.08-.6 1.38 1.38 0 00-.28-.25zM18 29.28a.78.78 0 00-.59.22.84.84 0 00-.21.6.81.81 0 00.21.6.78.78 0 00.59.22.76.76 0 00.58-.22.81.81 0 00.21-.6.84.84 0 00-.21-.6.76.76 0 00-.58-.22zm.33 1.36a.35.35 0 01-.33.18.37.37 0 01-.34-.18 1.38 1.38 0 010-1.08.39.39 0 01.34-.18.37.37 0 01.33.18 1.38 1.38 0 010 1.08zM20 29.42a.21.21 0 01.13 0v1.05l-.86-1.18H19v.1a.27.27 0 01.13 0 .49.49 0 010 .17v1a.49.49 0 010 .17.24.24 0 01-.13 0v.09h.49v-.09a.24.24 0 01-.13 0 .49.49 0 010-.17v-.86l.87 1.19h.22v-1.27-.17a.24.24 0 01.13 0v-.1H20zM21.5 29.28a.75.75 0 00-.58.22.81.81 0 00-.22.6.78.78 0 00.22.6.75.75 0 00.58.22.76.76 0 00.58-.22.81.81 0 00.21-.6.84.84 0 00-.21-.6.76.76 0 00-.58-.22zm.33 1.36a.35.35 0 01-.33.18.38.38 0 01-.34-.18 1.38 1.38 0 010-1.08.4.4 0 01.34-.18.37.37 0 01.33.18 1.27 1.27 0 010 1.08zM25.53 30.76l-.1-.18-.58-1.28h-.11l-.59 1.27-.09.19h-.22l-.15-.18-.3-.43a.5.5 0 00.23-.17.54.54 0 00.07-.27c0-.26-.16-.4-.48-.4h-.75v.1a.27.27 0 01.13 0 .49.49 0 010 .17v1a.49.49 0 010 .17.24.24 0 01-.13 0v.09h.63v-.09h-.1a.49.49 0 010-.17v-.38H23l.44.68h.88v-.09h-.12a.41.41 0 01.05-.17l.08-.17H25l.08.16a.85.85 0 01.06.17s-.05 0-.14.05v.09h.65v-.09zM23.22 30a.36.36 0 01-.26.1h-.06v-.68h.1a.27.27 0 01.3.31.36.36 0 01-.08.27zm1.19.31l.28-.61.28.61zM18.17 24.43c-.15.07 0 .18.11.11s-.05-.17-.11-.11zM15.91 22.91A.25.25 0 0116 23a.21.21 0 01.08.06h.05a.31.31 0 00.16.07h.07l.15.07a.6.6 0 00.2.08.11.11 0 00.11.07.12.12 0 00.1-.07.22.22 0 00.11 0 .08.08 0 000-.1s0-.05-.05-.06 0-.07 0-.15a.18.18 0 000-.09.14.14 0 000-.11.07.07 0 010-.05.75.75 0 010-.16.75.75 0 00.05-.16.29.29 0 010-.09.48.48 0 000-.27 1.36 1.36 0 00-.14-.33.53.53 0 00-.09-.11.21.21 0 01-.07-.12.71.71 0 010-.15c0-.13 0-.26-.08-.32s-.22 0-.26 0l-.09.05-.13.07h-.07a.42.42 0 00-.2.1.83.83 0 00-.18.5v.07a.29.29 0 010 .09.69.69 0 000 .25.25.25 0 000 .11.16.16 0 010 .09c0 .11-.18.26-.34.34s0 .05 0 .09.42.1.53.14zm.27-.62a.29.29 0 00-.05-.19v-.06a.62.62 0 010-.18.43.43 0 000-.11.15.15 0 000-.07.8.8 0 01.14-.41.26.26 0 01.12-.05h.08a.67.67 0 00.17-.08l.08-.05a.21.21 0 01.1 0v.18a1.15 1.15 0 000 .19.33.33 0 00.12.2l.07.08a1.36 1.36 0 01.11.28.44.44 0 010 .19v.11a1 1 0 010 .14 1 1 0 00-.05.18.22.22 0 000 .08V22.89a.33.33 0 000 .29h-.05a.09.09 0 00-.06 0h-.06a.51.51 0 01-.17-.07L16.4 23h-.08-.09a.31.31 0 00-.11-.08H16l-.13-.06a.67.67 0 00.31-.57zM15.85 23.56a.07.07 0 000-.07.23.23 0 00-.15-.06.15.15 0 00-.11 0c-.06.16 0 .28.06.32h.07c.13 0 .14-.14.15-.22a.43.43 0 01-.02.03zm-.14 0v.1c0 .01 0 0 0 0v-.14c0-.07 0 0 .05 0z"/><path class="cls-1" d="M28.25 0H.1a.09.09 0 00-.1.1v29.19A2.57 2.57 0 002.67 32h10.06a1.73 1.73 0 011.28.81l.08.13a.09.09 0 00.08 0h.08l.09-.13a1.73 1.73 0 011.27-.81h10.07a3.13 3.13 0 001.46-.38 2.48 2.48 0 001.21-2.34V.1a.09.09 0 00-.1-.1zm-.09 29.29a2.3 2.3 0 01-1.11 2.17 2.93 2.93 0 01-1.37.36H15.61a1.86 1.86 0 00-1.43.9 1.86 1.86 0 00-1.44-.9H2.67a2.35 2.35 0 01-2.48-2.53V.19h28z"/><path class="cls-1" d="M2.6 26.14a2.11 2.11 0 002.19 2.23H13a1.39 1.39 0 011 .63l.07.13a.1.1 0 00.08.05.11.11 0 00.09-.05l.07-.12a1.36 1.36 0 011-.65h8.21a2.69 2.69 0 001.2-.31 2 2 0 001-1.92V2.68a.09.09 0 00-.1-.09h-23a.09.09 0 00-.09.09v13.7zm21 2h-8.25a1.48 1.48 0 00-1.08.59V16.54h.47a.51.51 0 000 .23l.06.08v.13a.89.89 0 010 .14.53.53 0 000 .17c0 .19.08.22.18.24H15c.2.05.3.32.4.58a1.35 1.35 0 00.19.4c0 .07.1.15.16.22s.14.21.22.31a2.09 2.09 0 01.14.17.88.88 0 01.24.36.7.7 0 01-.05.3.52.52 0 000 .4.42.42 0 00.46.18.4.4 0 01.19 0 .62.62 0 01.2.33l.07.18a.9.9 0 01.08.21l.05.14a.14.14 0 000 .06.12.12 0 010 .08.17.17 0 010 .05.36.36 0 000 .09.65.65 0 000 .21.5.5 0 010 .12.17.17 0 010 .07.43.43 0 00.1.29.16.16 0 00.1.05h.07v.06l.06.08.06.06a11.22 11.22 0 00-.92.9 3.83 3.83 0 00-.32.42l-.21.3a4.36 4.36 0 00-.45.61c-.13.2-.29.48 0 .72a.58.58 0 00.38.08h.2l.58.04h.05a2.61 2.61 0 00.81-.28H18.29l.25-.09.3-.11.26-.09.34-.15a.1.1 0 010 .05.27.27 0 00.21.14h.16a.22.22 0 00.06.1.64.64 0 00.27.11h.11a.62.62 0 01.16.1l.11.07a.4.4 0 00.15.35.46.46 0 00.07.07l.07.11v.06a.2.2 0 00.06.11.12.12 0 00.12 0v.06a.44.44 0 000 .15.53.53 0 00.1.12l.07.06a.54.54 0 010 .1.2.2 0 000 .11.18.18 0 00.09.1.08.08 0 00.1.09c.09 0 .1 0 .15.11a.47.47 0 00.14.18.4.4 0 00.16.08h.12a.28.28 0 00.16.09.17.17 0 00.13 0H22.5a.25.25 0 010 .07.45.45 0 00.18.3.37.37 0 00.38 0 .24.24 0 00.08-.26.29.29 0 00.22.14h.19a.75.75 0 00.36.08.13.13 0 00.07.06.32.32 0 00.13 0h.05a.22.22 0 01.13.1 2.33 2.33 0 01-.73.28zm-3.63-6.44c.09.07.95-.56 1-.33-.15 0-.44.23-.64.33s-.54.3-.48 0a2.32 2.32 0 01.29-.62 2.28 2.28 0 01.47-.54 4.16 4.16 0 00-.41.57c-.09.08-.34.56-.27.62zm3.26-2.34a.74.74 0 00.48.48c.09-.09 0-.4.13-.35v.31a.8.8 0 000 .23c-.2-.17-.47-.24-.62-.57a1.06 1.06 0 010-.95 1.54 1.54 0 00-.03.88zm.68 1.25a1.68 1.68 0 01-.46 1 3.43 3.43 0 01-1 .92l-.17-.07a.49.49 0 01.21-.3c.16-.13.27-.26.43-.4a2.57 2.57 0 00.67-.73 8.34 8.34 0 01-1.86 1.43 8 8 0 00-1.38.87h.35l.46-.05a1.34 1.34 0 00.35-.1 20.76 20.76 0 01-1.8 1.14c-.12.07-.22.11-.3.15s-.33.1-.6.21-.52.29-.61.17-.14-.05-.33.11a2.14 2.14 0 01-1 .37c-.12 0-.74.15-.71-.09a4.74 4.74 0 01.79-.53c.3-.16.63-.36 1-.53l.85-.42c.48-.23.93-.47 1.38-.72.79-.45 1.41-.69 1.94-1a11.45 11.45 0 001.06-.77c.1-.11.65-.62.69-.63zm-1.15 2.27a2.31 2.31 0 01-.93.26c-.24 0-.92.09-.92.09a1.61 1.61 0 01.85-.18c.33.04 1.1-.24.96-.14zM20 22.45l.5-.26c.09-.06.24-.17.35-.14a.54.54 0 01-.16.14 13.53 13.53 0 01-1.39.88l-.86.44a4.19 4.19 0 00-.88.58c0-.05 0-.1.06-.15a3.25 3.25 0 01.68-.6c.27-.18.56-.33.83-.49s.63-.26.87-.4zm5.52 3.69a1.86 1.86 0 01-.86 1.73.44.44 0 00-.21-.15h-.15a.27.27 0 00-.07-.08.11.11 0 00-.08 0 1.35 1.35 0 01-.24-.08l-.16-.05h-.06c-.07 0-.08 0-.11-.06a.18.18 0 00-.07-.16.18.18 0 00-.15 0 .08.08 0 000 .1v.1a.27.27 0 00-.09.2.08.08 0 000 .06.19.19 0 01-.19 0 .23.23 0 01-.12-.2.77.77 0 00-.05-.17.09.09 0 00-.07 0 .74.74 0 01-.17 0h-.23s-.06 0-.08-.06a.18.18 0 01-.07-.05l-.29-.1h-.12a.41.41 0 01-.08-.13.28.28 0 00-.25-.2.16.16 0 00-.08-.1.15.15 0 010-.07.46.46 0 00-.06-.16.28.28 0 00-.09-.1s-.06-.05-.06-.07v-.07a.21.21 0 000-.18.17.17 0 00-.14-.05v-.07a.41.41 0 00-.1-.16l-.07-.07a.23.23 0 01-.1-.2h.05a.09.09 0 000-.06.07.07 0 000-.06.23.23 0 00-.22-.1h-.05a1.3 1.3 0 00-.21-.12h-.13A.47.47 0 0120 25a.17.17 0 00-.11-.13h-.18c-.08 0-.08 0-.11-.07l.3-.16.11-.06a8.62 8.62 0 001.46-.89l.34-.25h.09a2.55 2.55 0 00.72-.19c.23-.09.61-.32.62-.57a.05.05 0 00-.05 0h-.24l.19-.15a1.51 1.51 0 00.26-.24l.15-.18a3.66 3.66 0 00.23-.33 2.41 2.41 0 00.34-1.29.45.45 0 010-.11.71.71 0 000-.15v-.21a1.12 1.12 0 00-.24-.8 1.85 1.85 0 01-.4-.52.16.16 0 010-.06.43.43 0 00-.15-.24.21.21 0 00-.11 0c-.16 0-.22.2-.24.3a2.27 2.27 0 000 1 1.07 1.07 0 00.53.62l-.09.05a1.13 1.13 0 00-.36.39 1.11 1.11 0 01-.12.16.73.73 0 01-.37.27 1.81 1.81 0 01-.55.09h-.82A.13.13 0 0121 21a1.56 1.56 0 000-.31 1.31 1.31 0 010-.28.21.21 0 000-.18.18.18 0 00-.12-.05s-.15 0-.44.24a3.57 3.57 0 00-.72 1l-.1.17a4.67 4.67 0 00-.63.32l-.19.11a5.63 5.63 0 00-.67.46l-.09.07-.07-.07-.06-.07a.39.39 0 00-.08-.1.35.35 0 00-.13-.05v-.18a.28.28 0 000-.09v-.13a.49.49 0 010-.15.21.21 0 000-.12.35.35 0 000-.16.08.08 0 010-.05.56.56 0 010-.12 2.34 2.34 0 00-.09-.24.77.77 0 01-.07-.16.67.67 0 00-.27-.41.48.48 0 00-.29 0c-.15 0-.24 0-.3-.1s0-.16 0-.26a.73.73 0 00.05-.41 1 1 0 00-.27-.42c0-.05-.09-.1-.13-.16a3.3 3.3 0 01-.22-.3l-.16-.22a1.42 1.42 0 01-.17-.37c-.11-.28-.23-.6-.52-.68H15v-.07a.3.3 0 010-.12.58.58 0 000-.34.27.27 0 00-.07-.23v-.06a.32.32 0 010-.14h10.63zm0-23.36v13.41L14.38 2.78zm-.12 13.57H2.87l11.3-13.52zM7.73 5.78l.07.08v.07l-1.69 1.5H6L4.13 9.19h-.08L4 9.11V9l.14-.12 1.75-1.53 1.77-1.57h.07zm0-.08A1.37 1.37 0 018 5.59a1.19 1.19 0 01-.15.3.16.16 0 000-.08l-.07-.07s-.04-.03-.06-.04zM6.2 7.49L8 9.09a.06.06 0 010 .08l-1-.94-.72-.65a.06.06 0 010-.08H6.2zm-.34-.21l-.64-.57-.24-.22-.28-.06L4.18 6a.06.06 0 010-.08l.06-.07.51.46.25.09.18.17.5.46.19.17a.05.05 0 01-.01.08zM4.8 6.61l.26.23.61.56-1.51 1.4L4 9a.12.12 0 000 .08.11.11 0 000 .08v.07a.11.11 0 00.08 0L6 7.63v.06l.61.56 1.14 1a.13.13 0 00.08 0 .11.11 0 00.08 0A.12.12 0 008 9L6.24 7.45 7.77 6c-.1.14-.06.21.11.4s.19.18.25.18a.09.09 0 00.07 0c.85-.77.57-1.45.51-1.57V5a1 1 0 00-.53-.14 1.62 1.62 0 00-1.08.47.06.06 0 000 .06c0 .06 0 .15.14.27s.19.2.27.2a.16.16 0 00.09 0L5.93 7.22a.11.11 0 000-.07l-.25-.23-.5-.42L5 6.35a.87.87 0 01.17-.16c.07-.06.22-.19.31-.16a.41.41 0 01.16.21c0 .13 0 .38.1.49s.26-.31.26-.4v-.57a2.63 2.63 0 01.1-.56 2 2 0 01.14-.47 1.19 1.19 0 01.34-.4 1.71 1.71 0 00.28-.42c.08-.13.26-.25.41-.16s-.09.3-.16.4a1.74 1.74 0 00-.24.47 5.46 5.46 0 01-.21.61 1.28 1.28 0 00-.11.24.3.3 0 00.06.26c.11.08.1-.14.11-.21a.48.48 0 01.1-.23.32.32 0 00.1-.19v-.25c0-.09.08-.14.08-.21s.08-.44.24-.43c0 .18-.06.48.11.57.1-.11 0-.36.06-.5s.07-.12.09-.2 0-.22.08-.19a.51.51 0 00.06.21l.07.05c.07.05 0 .09 0 .11s.11 0 .15.09a1.72 1.72 0 010 .24s0 .18.07.2.11-.15.15-.21a2 2 0 01.14-.16c.06-.07.1-.11.15 0s0 .16 0 .23.12.1.17.16a1 1 0 01.11.2c0 .08.08.11.09.2a1.06 1.06 0 01-.05.31 2.43 2.43 0 000 .27c0 .19-.19.31-.22.5a3.06 3.06 0 000 .8 4.15 4.15 0 010 .61 1.57 1.57 0 000 .53.57.57 0 00.13.14c0 .06 0 .09.1.13 0-.18.07-.29 0-.45a1 1 0 010-.53 5.09 5.09 0 000-.55 3.88 3.88 0 01.11-.49c0-.12-.05-.33 0-.44s.23.12.23.22c0 .31-.1.82.16 1a.29.29 0 000-.24 2 2 0 010-.35 2.07 2.07 0 000-.5c0-.08-.08-.48.06-.25s.05.17.09.25.1.18.13.28a2.82 2.82 0 01.08.82 1.24 1.24 0 01-.05.61l-.51.8-.38.45s-.07.15-.13.15-.08-.13-.09-.19 0-.11 0-.17.05-.35.07-.53-.17-.28-.19-.45a1.15 1.15 0 000-.26 1 1 0 01-.05-.23c0-.17-.11-.29-.1-.48s0-.36-.12-.42-.12 0-.13.11a.43.43 0 00.1.23.35.35 0 01.02.25.43.43 0 000 .25 1.67 1.67 0 01.05.5.28.28 0 000 .23c0 .05.12.11.14.17s0 .34-.05.49 0 .31 0 .46-.08.06-.14.06a.54.54 0 01-.35.37 5 5 0 01-1.53 0s-.12-.93-.55-.96-.52.92-.52.92-.46.09-.59 0S4 9.53 4 9.48h-.06a.5.5 0 01-.36-.09c-.11-.11-.05-.32 0-.46A3.08 3.08 0 014 8l.3-.47A5 5 0 004.52 7a1.54 1.54 0 01.28-.39zm-2-3.83H14l-3.68 4.36a2 2 0 01-.12-.26.88.88 0 010-.15 1.17 1.17 0 00-.1-.26l-.1-.13a1.64 1.64 0 01-.14-.22v-.06a.9.9 0 00-.25-.39l-.13-.09a.67.67 0 01-.19-.14.61.61 0 01-.09-.26.5.5 0 000-.13V5a1.8 1.8 0 00-.42-.81.82.82 0 00-.2-.12L8.35 4l-.16-.13-.13-.12a1.71 1.71 0 00-.79-.28h-.15a1 1 0 00-.48.44l-.1.14a.5.5 0 01-.15.14l-.15.15a1.15 1.15 0 00-.18.37v.11a1.9 1.9 0 01-.5.75 5.53 5.53 0 00-.65.62l-.5-.46h-.08a2.36 2.36 0 011-.7v-.1a.07.07 0 00-.06-.07 2 2 0 00-1.19.55.16.16 0 00-.14-.09.2.2 0 00-.15.09c-.07.07-.09.13-.07.19a.16.16 0 00.1.1 2 2 0 00-.45 1.24h.05v-.05a2.32 2.32 0 01.58-1A.15.15 0 004 6l.52.47a12.8 12.8 0 00-1 1.6 4.07 4.07 0 00-.4.87c-.1.31 0 .52.35.66a1.16 1.16 0 00.53.1 1 1 0 01.34.11 1.28 1.28 0 00.53.12 1.85 1.85 0 00.48-.07h.09a2.46 2.46 0 01.4-.09.17.17 0 00.16.13h1.05a3.94 3.94 0 00.6-.08h.4l-5.26 6.33zm0 13.76h11.28v12.22a1.48 1.48 0 00-1.08-.59H4.79a1.89 1.89 0 01-2-2z"/><path class="cls-1" d="M7.9 8.54l-.06-.08c-.06-.08 0-.07 0-.11a1.33 1.33 0 00-.19-.14.38.38 0 01-.18-.21c0-.06-.08-.13-.1-.2s0-.36 0-.53-.2-.15-.25-.27 0-.16 0-.18S7 6.88 7 6.9s-.06.11-.1.17-.08.08-.11.13a.73.73 0 00-.09.35h.25c.06 0 0 .17.07.23s.14 0 .2.06a.68.68 0 01.12.24l.09.26c0 .11.06.11.16.16a.31.31 0 01.18.19c0 .09.09.08.15.14S7.89 9 8 9a1.87 1.87 0 010-.24 1.42 1.42 0 00-.1-.22zM24.68 4v-.15a.28.28 0 010-.12s-.09 0-.12.06 0 0-.05 0a.58.58 0 010-.11v-.06c0-.08-.09-.12-.14-.12s-.09 0-.13.09 0 0-.07.06a.56.56 0 00-.35-.21h-.07a.41.41 0 00-.12.14c-.05.09-.08.12-.16.07l-.06-.05a.19.19 0 00-.17-.09.16.16 0 00-.14.09l-.06.05h-.05a.19.19 0 00-.09 0 .15.15 0 00-.15.07l-.07.06a.17.17 0 01-.1 0h-.19s0-.07-.15-.05a.32.32 0 00-.15.13s-.06.09-.12.09-.07 0-.1-.07a.21.21 0 00-.17-.09.21.21 0 00-.12.08l-.06.06a.2.2 0 01-.14 0h-.06a.36.36 0 00-.17-.07.18.18 0 00-.15.11v.06a.12.12 0 01-.11 0h-.2a.18.18 0 00-.15.07.44.44 0 00-.05.15v.09h-.09a.18.18 0 00-.09 0s-.05 0-.08.05a.2.2 0 000 .09s0 .07-.06.08a.25.25 0 01-.17 0 .18.18 0 00-.16 0 .28.28 0 000 .16.19.19 0 010 .08.4.4 0 010 .15.11.11 0 01-.09 0h-.11a.24.24 0 000 .17.61.61 0 010 .11s0 .06-.06.09a.15.15 0 00-.08.12.13.13 0 00.07.11v.09a.11.11 0 000 .11.24.24 0 00.09.11s.07.06.08.09a3.42 3.42 0 01.91 1.12A.18.18 0 0020 7a.21.21 0 000 .28h.19c-.05.16-.1.32-.16.47a2 2 0 01-.23.49h-.06s-.09.08-.09.13.05.09.09.12.06 0 .06.06a.08.08 0 010 .08.17.17 0 000 .12c0 .05.07.08.13.12h.05a.31.31 0 00.15.08h.07V9a.59.59 0 010 .08.25.25 0 00.25.18.41.41 0 000 .16.36.36 0 00.17.13h.07l.05.05a.37.37 0 00.12.07h.19a.64.64 0 000 .07s.05.06.08.06 0 0 0 .06a.3.3 0 000 .1c0 .13.09.15.17.18a.16.16 0 00.17 0h.19a.17.17 0 00.11.06H22a.07.07 0 01.06 0h.08a.23.23 0 00.14.06h.29a1.08 1.08 0 00.19 0h.05a.11.11 0 01.1 0 .23.23 0 00.11.05.09.09 0 00.06 0h.05a.18.18 0 01.09 0 .26.26 0 00.17.07.29.29 0 00.24-.19h.11a.31.31 0 00.13 0 .13.13 0 00.09-.13.1.1 0 010-.07h.07a.19.19 0 00.11-.07.36.36 0 00.06-.25.11.11 0 00-.06-.07c-.12-.39-.27-.85-.4-1.28a.14.14 0 00.05-.11.17.17 0 00-.06-.16l-.09-.07c-.08-.27-.15-.5-.19-.68h.11a.16.16 0 00.08-.06.39.39 0 000-.28l-.06-.06a.14.14 0 00.03.1 5.31 5.31 0 01.55-1.09c.1-.17.2-.33.29-.5a5.7 5.7 0 01.3-.54l.05-.06a1.09 1.09 0 00.08-.15.83.83 0 00-.12-.54.07.07 0 00-.08-.12zm-4.6 3.17c-.07-.11 0-.1 0-.16h.07l.5.07a.3.3 0 000 .1.05.05 0 00.05 0 .1.1 0 00.05-.06c.53 0 1 .07 1.44.07h.16a.64.64 0 01-.06.18h-1.52.57l.58.06a2 2 0 00.35 0v.11a.06.06 0 000 .06 8.31 8.31 0 01-2.14-.33zm.82-.25a.8.8 0 011.6.08 10 10 0 01-1.6-.06zm3.08 3c0 .13-.11.44-.26.27s-.1-.53-.14-.75a3 3 0 00-.18-.65c-.07-.15-.13-.13-.11 0a4.13 4.13 0 00.19.77 2.84 2.84 0 01.08.42c0 .09.06.22 0 .32a.27.27 0 01-.21.07c-.05 0-.07-.16-.08-.22a5 5 0 01-.14-.77c0-.17 0-.35-.06-.53s0-.46-.16-.56a.44.44 0 000 .1 2.21 2.21 0 00.09.71 9.08 9.08 0 01.05.91v.27c0 .04-.16 0-.17-.12s0-.26 0-.38a5.67 5.67 0 00-.06-.72 2.23 2.23 0 000 .93c0 .1.06.32-.06.38s-.19-.09-.23-.17c-.06.07-.1.17-.2.12s-.05-.17-.05-.26v-.47a1.62 1.62 0 000-.54c-.16.08 0-.16-.16-.15a.1.1 0 00-.12-.06 1.71 1.71 0 00-.13.44 3.65 3.65 0 00-.14.57v.29c0 .07-.15 0-.2-.05s0-.27-.05-.26 0 .17-.13.13a3.53 3.53 0 010-.46c0-.1.1-.43 0-.49s-.32.48-.35.57c-.06-.06-.15 0-.21-.09a.22.22 0 01-.06-.19 1.33 1.33 0 01.1-.28c.05-.14.1-.27.14-.41s.08-.28.15-.46.24-.49.07-.44S21 7.92 21 8a3.42 3.42 0 00-.17.4c-.06.15-.14.29-.2.43s-.06.27-.1.39c-.1 0-.24 0-.24-.18s.1-.2.15-.28a3.3 3.3 0 00.19-.43c.05-.14.08-.28.13-.41s.07-.12 0-.21c-.13.08-.15.33-.23.46s-.22.37-.3.56 0 .18-.11.21-.14 0-.16-.07.18-.21.15-.35c-.06 0-.26.2-.24 0s.18-.15.22-.24a.57.57 0 000-.18 1.4 1.4 0 01.1-.16c.06-.14 0-.51.14-.48l.41.08a10.6 10.6 0 001.62.17h.06l.22.18a.2.2 0 000 .11c0 .1.16.15.28.18s.19.16.29.27a1.71 1.71 0 00.28.27h.08c.06.19.13.37.19.56a1.59 1.59 0 01.24.65zm-.17-1.6c.06.06.06.11 0 .15a.32.32 0 01-.06.08s0 .1-.13.1h-.06c-.16-.1-.42-.49-.58-.54s-.26-.09-.24-.18h.05v-.06c.07 0 .14.1.2.19a1.05 1.05 0 00.35.25 1.76 1.76 0 01.47.02zm-.74-.66h.32a3.2 3.2 0 00.1.42.81.81 0 01-.27-.2 1 1 0 00-.15-.21zm.54-.57s0 .11.06.12 0 .18 0 .18h-.11a4.29 4.29 0 01-.79.11l-.08-.07v-.06l.47-.06h-.45a.64.64 0 00.06-.18h.74zm1-2.56a.76.76 0 01-.13.23c-.19.3-.31.63-.48.94s-.31.55-.45.83-.13.37-.28.43h-.44V6.9a1.08 1.08 0 10-2.15 0h-.21c-.17 0-.27-.38-.34-.54a1.3 1.3 0 00-.34-.4 5.12 5.12 0 01-.34-.44.29.29 0 010-.4 1.82 1.82 0 01.36.42c0 .07.08.2.16.25s.09 0 .07-.13-.14-.32-.2-.47-.24-.3-.18-.48a.54.54 0 01.1-.2c.06-.07.1-.12.17-.07s.16.41.25.58a4.94 4.94 0 01.13.52c.07.2.17.36.23.56s.19.5.21.19a2.29 2.29 0 00-.15-.51 3.58 3.58 0 00-.16-.56 2.55 2.55 0 00-.15-.52c-.07-.15-.15-.25 0-.38s.22-.13.3-.25c.13.09.14.27.24.39s0-.24.07-.31.13.13.24.08.07-.12.15-.13.08.07.15.1.13.24.05.35 0-.08-.08-.09a3.25 3.25 0 000 .7 2.48 2.48 0 00.1.39c0 .09.05.24.12.3s.06-.39.05-.49-.05-.36-.07-.54a1.21 1.21 0 010-.38c0-.12-.06-.23 0-.35s.12.1.21 0 .08-.14.17-.05.05.12.17.08.13-.09.14.06v1a4.49 4.49 0 000 .64 1 1 0 00.05-.39 2.57 2.57 0 000-.48 2.74 2.74 0 010-.7c0-.11 0-.33.19-.22s0 .07.07.08 0 0 .09 0 0-.05.07 0 0 .28 0 .34v.49a3.35 3.35 0 000 .63c.09 0 .08-.24.09-.32s0-.23.07-.35.07-.45.09-.67.08-.45.21-.24a1.36 1.36 0 010 .75c0 .19-.06.37-.09.55a1.85 1.85 0 00-.06.39c.08 0 .11-.35.14-.44s.07-.23.09-.35 0-.39.1-.59.13-.4.23-.42c.3-.07.16.37.13.51s-.11.52-.18.77a1.67 1.67 0 00-.15.54c.08-.06.15-.4.19-.51s.08-.35.14-.52.08-.59.29-.65c.07.11 0 .32 0 .44a2.43 2.43 0 00-.13.64c.13-.06.14-.3.18-.42a1.73 1.73 0 01.11-.32c0-.06.12-.23.2-.18s.07.18.12.23.06 0 .09.07a.33.33 0 01-.01.06zM10.23 11.39a4.45 4.45 0 010 .79 2.4 2.4 0 010 .24v.16c0 .1 0 .34.11.45a3.09 3.09 0 00.59.32 1.09 1.09 0 010 .18 1.57 1.57 0 000 .57.51.51 0 010 .29.29.29 0 00-.08.25v.18a.15.15 0 000 .15v.1a.14.14 0 010 .06.27.27 0 000 .26.81.81 0 00.12.14h.05a.92.92 0 00.22.18h.07a.62.62 0 00.12.08h.28a.25.25 0 00.14 0H12a.23.23 0 00.11 0 .15.15 0 00.11-.13c0-.12-.11-.21-.22-.3h-.07v-.18a1.74 1.74 0 00-.1-.19v-.07a.49.49 0 000-.12.11.11 0 000-.06.59.59 0 000-.14v-.05a.44.44 0 010-.1 1.43 1.43 0 00.07-.46.65.65 0 010 .14.37.37 0 000 .11v.27a.29.29 0 00.06.17.15.15 0 00.11 0 .19.19 0 00.1 0 .14.14 0 00.13.09.18.18 0 00.13-.06.22.22 0 00.19.14h.05a.17.17 0 00.11.06h.06a.16.16 0 00.11 0 .14.14 0 00.09.05.1.1 0 00.1-.06.19.19 0 000 .2h.06a.22.22 0 010 .08.58.58 0 000 .34.71.71 0 00.24.34l.18.13.09.08a.28.28 0 00.16.06H14a.22.22 0 00.14-.1.11.11 0 00.09 0 .44.44 0 000-.3.66.66 0 00-.14-.25.57.57 0 01-.1-.19A.38.38 0 0114 15a.22.22 0 000-.08.22.22 0 000-.14.16.16 0 000-.12.28.28 0 00-.06-.2v-.05l.05-.07a.47.47 0 00.1-.25.07.07 0 000-.05.15.15 0 010-.07h.08a.65.65 0 00.21 0h.05a.69.69 0 00.56-1 1.07 1.07 0 00-.25-.27.58.58 0 00-.16 0h-.1v-.05l-.06-.07a.83.83 0 010-.13v-.12-.35a1.64 1.64 0 000-.23.51.51 0 000-.24v-.07a.32.32 0 010-.09 1.67 1.67 0 010-.31.13.13 0 000-.06.77.77 0 000-.15 1.5 1.5 0 010-.24 1.09 1.09 0 01.05-.17 1.43 1.43 0 00.08-.22v-.16a1.57 1.57 0 010-.23 1.25 1.25 0 00.08-.45.89.89 0 00-.08-.32v-.06a.14.14 0 010-.06.36.36 0 01-.05-.21 1.31 1.31 0 01.11-.29.35.35 0 010-.08.31.31 0 00.1-.27v-.11a.31.31 0 010-.08.2.2 0 010-.07.31.31 0 000-.11.61.61 0 00-.08-.28v-.11c0-.03 0 0 0 0a.48.48 0 00-.05-.14l-.06-.08a1.1 1.1 0 00.1-.34v-.08c0-.08 0-.15.09-.18a1.11 1.11 0 01.29-.35h.13a.24.24 0 00.18-.17c0-.14-.11-.18-.16-.19h-.18c.07 0 .1-.08.09-.14a.08.08 0 000-.07l.06-.09.05-.07a.22.22 0 01.07-.09.29.29 0 00.19-.32.09.09 0 000-.1.26.26 0 00-.17-.1h-.08v-.08a.48.48 0 00.05-.18.13.13 0 00-.1-.09.42.42 0 00-.16 0h-.07l-.08-.06c-.09-.08-.13-.11-.18-.11h-.05a.17.17 0 00-.07.1c0 .1.09.21.21.32.07.09.11.13.09.21a.26.26 0 010 .14s-.06-.06-.11-.06-.11 0-.12.15a.33.33 0 000 .15.19.19 0 010 .1h-.11a.57.57 0 00-.24-.09h-.14a.87.87 0 00-.3 0h-.09a.51.51 0 010-.09c0-.16.07-.28 0-.34h-.08a.15.15 0 00-.1 0v-.06c0-.1 0-.13.09-.24a.57.57 0 00.18-.33.19.19 0 000-.08h-.06a.07.07 0 00-.06 0s-.09.11-.13.11h-.06a.32.32 0 00-.15-.06.15.15 0 00-.13.11.29.29 0 000 .16.25.25 0 010 .07h-.09l-.12.3a.12.12 0 000 .08.24.24 0 00.17.2h.05a.26.26 0 01.07.1l.07.09v.06a.14.14 0 000 .12h-.15a.2.2 0 00-.2.11.31.31 0 00.11.3.67.67 0 00.29.17h.07c.13.05.13.16.09.39a1.37 1.37 0 000 .19.24.24 0 000 .12.2.2 0 010 .07.43.43 0 000 .07 1.53 1.53 0 00-.13.45.38.38 0 000 .28.5.5 0 010 .12c0 .06 0 .06-.1.09a.62.62 0 01-.19 0h-.17a1.32 1.32 0 00-.3.07h-.06a1.61 1.61 0 00-.55.35l-.18.14-.06.06-.06.05h-.06l-.13.07a.76.76 0 01-.2.13h-.05a.33.33 0 00-.17.12.73.73 0 00-.32.28.16.16 0 000 .1v.06l-.08.11a1.72 1.72 0 00-.07.21l-.06.16v.08a1.57 1.57 0 00-.12.3 2.33 2.33 0 000 .79zm1.52 2.48a.58.58 0 00-.05.16v.05a.29.29 0 010 .09.24.24 0 010 .08.14.14 0 000 .06.3.3 0 000 .16.41.41 0 01.05.09.12.12 0 010 .07h-.07V14.75h-.18v.06a.09.09 0 000 .05.13.13 0 00.05.06h.13a.13.13 0 00.08 0 .13.13 0 00.09-.05h.06a1.51 1.51 0 01.09.18.83.83 0 00.15.25l.09.07s.07 0 .07.06h-.41v.05h-.13a.62.62 0 01-.29-.1 1.52 1.52 0 01-.22-.22.43.43 0 00-.09-.1l-.17.29a.26.26 0 010-.11.19.19 0 000-.08.1.1 0 00.09 0H11h.07v-.06-.11h.07a.41.41 0 000-.22v-.2-.26a.38.38 0 000-.15h.24l.14.06a.71.71 0 00.26.05h.09zm-.1 1.19zm1.49-1.29a.53.53 0 01-.15.11h-.28a.6.6 0 01-.33-.16.54.54 0 010-.78.53.53 0 01.39-.18.69.69 0 01.24 0 .6.6 0 01.13.09.44.44 0 01.12.15.57.57 0 01.06.25.55.55 0 01-.18.52zm.58-2.89v.06a1.69 1.69 0 010 .32v.15a1.5 1.5 0 000 .3.89.89 0 00.09.29v.05a1.68 1.68 0 01.06.24v.07a.31.31 0 010 .08.43.43 0 01-.12-.11l-.17-.17-.09-.09a2.39 2.39 0 00-.23-.22 2.27 2.27 0 01-.31-.31l-.1-.1a1.34 1.34 0 01-.11-.14.49.49 0 010-.24.38.38 0 010-.1s0-.05.06-.1a.45.45 0 00.11-.15l.06-.1a1.19 1.19 0 00.11-.26.69.69 0 01.05-.17s.09 0 .14-.06h.08l.2-.11a.79.79 0 01.16-.08v.06a.5.5 0 010 .17.74.74 0 010 .14 1 1 0 00-.05.25 1.07 1.07 0 00.06.33zm-.42 1zm-.3-1.7v.11a.36.36 0 010 .09.44.44 0 00-.08.11.32.32 0 000 .09.16.16 0 01-.06.08h-.05l.05-.12a1.12 1.12 0 00.1-.18c.07-.13.13-.27.19-.4h.08zm-.35.79v.09a.49.49 0 000 .25 2 2 0 00.14.22c.1.12.21.23.32.34.1.1.22.2.37.33l.06.05.07.08a.46.46 0 00.17.14v.1c0 .04 0 0 0 0l-.08.11a.64.64 0 00-.11.36v.08a.18.18 0 00-.11 0 .57.57 0 00-.11.11.55.55 0 01-.1.11h-.14a.55.55 0 00.07-.31.58.58 0 00-.18-.43.62.62 0 00-.44-.18.55.55 0 00-.31.08v-.06-.06c-.05 0-.05-.1 0-.16s0-.07 0-.1v-.11a1.77 1.77 0 010-.2 1.05 1.05 0 01.05-.19.5.5 0 010-.13.14.14 0 000-.06 1.54 1.54 0 00.11-.42.45.45 0 000-.11v-.09a.64.64 0 010-.09zM14 12.33v.03zm-.15 1zm-.56.34zm.82.14a.27.27 0 000 .12.18.18 0 010 .11v.06a.16.16 0 000 .09v.18h-.08a.08.08 0 010 .07h-.05.07-.18v.05h-.1v-.06a.13.13 0 000 .06h.14a.1.1 0 00.08 0h.1a.1.1 0 00.09-.05.24.24 0 000 .12.34.34 0 00.06.12.41.41 0 00.05.09.54.54 0 01.07.13v.05l.06.18v.1h-.14a1.16 1.16 0 00-.24-.2.57.57 0 01-.19-.19s0-.08-.07-.13a.45.45 0 01-.06-.12.57.57 0 010-.13.85.85 0 000-.16h.06-.05a.13.13 0 010-.07.07.07 0 00-.05 0v-.12-.13a1 1 0 000-.24v-.12a.21.21 0 00-.06-.1.41.41 0 010-.11h.09a.58.58 0 00.15-.11v-.05l.06-.07a.26.26 0 01.13-.08.6.6 0 00.17.3l.09.07a.21.21 0 01-.24.37zm.75-1a.55.55 0 01.18.39.54.54 0 01-.08.28 1.09 1.09 0 01-.18.19.6.6 0 01-.29.08.55.55 0 01-.39-.16.55.55 0 01-.16-.38.58.58 0 01.15-.38.6.6 0 01.38-.17.53.53 0 01.35.19zm-.1-7.66h.06a.2.2 0 00.18.01.3.3 0 000-.16.24.24 0 000-.17.55.55 0 00-.17-.17h-.05a.18.18 0 01-.07-.09l.06.06a.3.3 0 00.13.09h.18v.14a.26.26 0 000 .09.16.16 0 00.08.06h.13-.06l-.09.06a.21.21 0 000 .06.29.29 0 01-.07.12.19.19 0 000 .09.05.05 0 000 .07H15a.08.08 0 000 .05.17.17 0 01-.1.07.27.27 0 01-.12 0l.07-.08a.2.2 0 000-.08.35.35 0 000-.11.58.58 0 000-.18.53.53 0 010-.12zm-1.4 0v-.1a.47.47 0 00-.1 0h-.06.12a.16.16 0 00.08-.06.13.13 0 000-.09.25.25 0 010-.07v-.07H13.64a.34.34 0 00.13-.1l.06-.06a.26.26 0 01-.07.1.71.71 0 00-.16.18.23.23 0 000 .17.44.44 0 00.05.15.24.24 0 00.13.11h.06a.79.79 0 010 .13 1.13 1.13 0 000 .18.34.34 0 00.05.17l.07.08h-.11a.3.3 0 01-.11-.07.15.15 0 00-.07 0 .11.11 0 000-.07.31.31 0 00-.05-.1.34.34 0 01-.3-.46zm.34.26zm-.25 0zm.09 2a.29.29 0 010-.1V7.1a.24.24 0 010-.15 1.8 1.8 0 010-.22 1.22 1.22 0 000-.27.35.35 0 00-.06-.14.25.25 0 00-.11-.09.49.49 0 01-.06-.23.36.36 0 01-.17-.15.13.13 0 010-.1h.19a.14.14 0 00.12 0h.06a.14.14 0 000 .06.29.29 0 00.13.08h.11a.27.27 0 01-.07-.08.81.81 0 01.32-.3H14.47a.42.42 0 00.15 0h.06v.06l-.06.08h.16a.24.24 0 00.13-.09.28.28 0 00.15.06h.09l-.06.06h-.08L15 6a.24.24 0 00.09-.08h-.22a.27.27 0 00-.1.06.13.13 0 000 .11.21.21 0 00-.06.1.3.3 0 000 .1v.16l-.06.22a.82.82 0 01-.22.31l-.07.06h-.07A.2.2 0 0114 7a1.41 1.41 0 01-.17-.35.85.85 0 010-.17.94.94 0 00-.07-.22 1.55 1.55 0 010 .21.63.63 0 000 .19 1.59 1.59 0 00.17.38l.06.06a.19.19 0 00.12 0 .24.24 0 00.12 0l.08-.06a.93.93 0 00.16-.18.28.28 0 01.06.08.91.91 0 01.06.16v.09a.36.36 0 000 .09.69.69 0 01.05.13.14.14 0 010 .06h-.48a.33.33 0 00-.19-.07h-.4l-.07.06zm1.06-.57zm-2.82 1.91a.24.24 0 00.09 0l-.13.08a.76.76 0 00.04-.08zm-.87.71a.12.12 0 01.09-.05h.06a.15.15 0 00.1-.08.06.06 0 01.06 0 .48.48 0 00.14 0l.1-.1a.42.42 0 01.15-.11l.12-.09a.28.28 0 000 .15.43.43 0 000 .19.83.83 0 00.18.3.9.9 0 00.19.15l.09.06-.1-.09a.5.5 0 01-.09-.38.73.73 0 01-.15-.29.77.77 0 010-.15.34.34 0 01.05-.14 1.05 1.05 0 01.24-.23l.27-.2a.94.94 0 01.3-.12 1.09 1.09 0 01.26 0H13a1.05 1.05 0 00.34-.08h.08V8a.4.4 0 000-.11.54.54 0 010-.21.1.1 0 010-.05h.17a.28.28 0 01.14.06h.05a.39.39 0 00.11.06h.35a.27.27 0 010 .17.17.17 0 010 .07v.12a.84.84 0 01-.05.17 1.62 1.62 0 01-.1.18.83.83 0 01-.12.16.35.35 0 01-.15.1h-.07a.15.15 0 01-.1 0 .46.46 0 01-.1-.07v-.06h-.06l-.1-.09a.45.45 0 01-.11-.17.67.67 0 00.09.21.94.94 0 01.1.1h.05a.43.43 0 00.12.11.24.24 0 00.12 0h.12a.41.41 0 00.2-.13.76.76 0 00.08-.11.36.36 0 000 .14.21.21 0 000 .11V9a1.1 1.1 0 010 .18 1 1 0 010 .24v.12a1.17 1.17 0 000 .11v.13a.17.17 0 010 .07 2 2 0 010 .24.56.56 0 000 .12c0 .12-.07.24-.1.37v.25a.81.81 0 000 .27.79.79 0 000 .13.49.49 0 010 .11 1 1 0 010 .24 1.77 1.77 0 010 .23v.1a.76.76 0 000 .15.13.13 0 000 .06v.09a.34.34 0 000 .1v.06a.1.1 0 010 .09.63.63 0 00-.35.11v-.15-.09-.16l.29-.11a1.86 1.86 0 01-.07-.34 1.22 1.22 0 010-.33 2.35 2.35 0 000-.37v-.1-.26a1 1 0 010-.18.5.5 0 010-.12v-.05a1.08 1.08 0 000-.19.42.42 0 000-.19.08.08 0 000-.06h-.06a.67.67 0 01.09-.14.58.58 0 00-.16.15.49.49 0 01-.15.14.77.77 0 01-.4.14h-.07a2.72 2.72 0 00.11-.25v-.07L13 10a.83.83 0 01-.07.13c-.06.12-.12.25-.19.37l-.1.18a.39.39 0 00-.06.15v.1a.42.42 0 000 .12v.09a.45.45 0 000 .11 1.6 1.6 0 01-.1.39 1.93 1.93 0 00-.12.41 1.62 1.62 0 000 .2v.38a.16.16 0 01.07.13l-.1.08a.79.79 0 00-.12.15H12a.08.08 0 010-.06h-.08a.36.36 0 010-.11.28.28 0 010-.13.52.52 0 010-.11v-.06a1.05 1.05 0 00.05-.19 1.7 1.7 0 000-.22V12a3.11 3.11 0 01.13-.95v-.09l.06-.22v-.16a1.49 1.49 0 000-.21v-.05-.25-.24l.06-.17v-.05l.09-.24a.81.81 0 00.07-.22.8.8 0 01-.07.2l-.1.24v.06a.58.58 0 000 .14 2.27 2.27 0 00-.06.25v.25a.13.13 0 01-.08 0 .49.49 0 01-.13-.12l-.09-.1a.47.47 0 00-.09-.06h-.27a1.1 1.1 0 01-.14-.09l-.14-.12-.21-.16s-.08-.08-.09-.13-.01-.03 0-.05zm-.58 1a2.3 2.3 0 01.12-.34 1.06 1.06 0 000-.14h.05a.17.17 0 00.09.11 1 1 0 00.22.08h.15v.06a.18.18 0 010 .07.3.3 0 000 .08.28.28 0 000 .09.05.05 0 00.05 0 .15.15 0 00.12-.07.28.28 0 000-.12v-.11-.06a.67.67 0 01.14.09h.05a.86.86 0 00.2.13l.18.08v.26a.1.1 0 010 .07.22.22 0 010-.08v-.11.06a.5.5 0 000 .13v.06a.09.09 0 000 .07h.08a.16.16 0 00.08 0 .27.27 0 000-.12.31.31 0 000-.1 1 1 0 000-.14l.2.11a1.21 1.21 0 00-.22-.15h-.07l-.15-.09-.2-.14-.22-.16a1.14 1.14 0 00-.26-.09.86.86 0 01-.23-.06.12.12 0 01-.07-.07.16.16 0 010-.09l.05-.06a.29.29 0 000-.14s0-.07.07-.09 0 0 0 .06a.41.41 0 00.12.17l.12.09.14.12a.59.59 0 00.17.1h.16a.35.35 0 01.15.07l.09.08a1 1 0 00.16.12h.08a.88.88 0 010 .16v.14A1.87 1.87 0 0112 11v.09l-.07.25v1.02a.55.55 0 01-.05.17.25.25 0 010 .07.59.59 0 000 .13.56.56 0 000 .13.61.61 0 000 .13.12.12 0 00.06.06h.05v.05H12.14a.67.67 0 000 .24.58.58 0 00.12.36h-.3a.28.28 0 00-.13 0h-.1a.76.76 0 01-.25-.06l-.13-.06-.12-.05h-.13a.13.13 0 010-.06 2.3 2.3 0 000-.28 4.81 4.81 0 000-.55 3.17 3.17 0 00-.1-.54 2.31 2.31 0 00-.15-.54v-.05a1.67 1.67 0 01-.08-.2v-.13a.28.28 0 000-.09V11a1.22 1.22 0 010-.27.35.35 0 010-.12.2.2 0 000-.15.13.13 0 010 .12 1 1 0 000 .14 2.62 2.62 0 000 .28v.28c0 .07.05.14.07.21v.05a3.41 3.41 0 01.13.53 2.35 2.35 0 01.06.54 5 5 0 010 .55v.07a3.77 3.77 0 01-.33-.22l-.18-.13a.17.17 0 01-.07-.16.39.39 0 010-.14.19.19 0 010-.07v-.2a3.36 3.36 0 000-.45v-.44-.44a1.94 1.94 0 010-.43.62.62 0 01.07-.19.88.88 0 00.07-.23.59.59 0 01-.09.2c0 .05-.05.11-.07.17z"/><path class="cls-1" d="M13.72 6h-.24a.5.5 0 01-.21-.09.16.16 0 00.08.1.31.31 0 00.13.06H13.77zM14.09 6.86h.08a.1.1 0 000-.05.33.33 0 000-.06h.03-.1v.06zm.07-.08h.05zM13.78 6.16H14a.1.1 0 000-.08H13.79zM14.41 6.29a.09.09 0 00.09 0h.07-.08a.08.08 0 00-.07 0 .11.11 0 000 .06zM14.3 7.39h.35-.37a.09.09 0 00.02 0zM13.66 7.31a.25.25 0 01.13 0l.08.08a.44.44 0 00.15.12.32.32 0 00.14 0l-.15-.06-.01-.06a.38.38 0 00-.12-.09h-.09a.16.16 0 00-.09 0zM13.75 7H14h-.25zM13.94 8v-.06h-.05a.17.17 0 00-.1 0zM14.43 8.07h.07a.09.09 0 00-.01-.07.11.11 0 00-.07 0zM14.28 8.4h.06a.27.27 0 000-.12.13.13 0 000-.06.11.11 0 000 .06v.17zM14.1 8.5h.07a.06.06 0 000 .06h.1a.1.1 0 00.08 0h-.26l.01-.06zM13.89 9.28a.21.21 0 00.12 0 .3.3 0 00.07-.1V9a.28.28 0 01.1 0 .21.21 0 00-.11.08.22.22 0 00-.05.08.36.36 0 010 .09.46.46 0 01-.07.07zM13.78 9.78a.7.7 0 00.32-.24.31.31 0 000-.1.42.42 0 000-.1.39.39 0 01.08-.14.26.26 0 00-.15.16v.05a.35.35 0 01-.07.12 1.8 1.8 0 01-.27.28zM12.75 8.66a.45.45 0 01.18 0 .28.28 0 01.16.05.37.37 0 01.12.13.43.43 0 01.06.17.36.36 0 00-.27-.47.4.4 0 00-.21.09zM11.56 9.84h-.08a.49.49 0 01.17.06l.14.1.09.08.19.16a1.61 1.61 0 00-.24-.29.5.5 0 00-.17-.1zM11.29 9.55a.41.41 0 00.21.1l-.15-.12-.08-.07v-.07a.06.06 0 000 .07.25.25 0 000 .07zM11.57 9.39a.23.23 0 00.1.07.19.19 0 00.1 0l-.09-.06-.07-.08-.06-.08-.07-.09a.49.49 0 00.09.23zM10.6 11.81v.07a.76.76 0 010 .15v.4a2.92 2.92 0 000 .51 4.3 4.3 0 000-.61v-.3a1 1 0 000-.16.25.25 0 010-.07.09.09 0 000-.07zM11.55 14.45H11.2a.23.23 0 00.11 0 .17.17 0 00.1 0zM13.83 14.32h-.45.06a.31.31 0 00.13 0h.13l.07-.05zM13.11 13.38h-.05l-.06.07a.24.24 0 01-.18.12h-.05l-.1-.05-.13-.05a.08.08 0 000 .08 1.15 1.15 0 00.14.17.44.44 0 00.26.1.48.48 0 00.26-.09.36.36 0 00.11-.1.17.17 0 00.05-.15.25.25 0 000-.08zM14.36 13.38l-.11-.05a.31.31 0 00-.12-.05H14a.12.12 0 000 .08.49.49 0 00.14.18.38.38 0 00.25.09.59.59 0 00.27-.08.32.32 0 00.1-.1.24.24 0 00.06-.15.31.31 0 000-.08.06.06 0 00-.05 0l-.06.06a.29.29 0 01-.19.11h-.06zM11.45 10.94h.08a.1.1 0 000-.07.09.09 0 000-.07.56.56 0 000-.12.67.67 0 00-.09-.14 1 1 0 000 .1.61.61 0 00-.07.1v.12a.15.15 0 000 .07.12.12 0 00.08.01zm0-.24v-.08a.19.19 0 010 .07.19.19 0 010 .1v.06h-.06a.15.15 0 010-.06zM11.15 10.75a.09.09 0 00.05 0 .09.09 0 00.07 0v-.06a.43.43 0 000-.11.34.34 0 000-.18.5.5 0 01-.05.13v.05a.24.24 0 000 .12l-.07.05zm.09-.16a.25.25 0 000-.17.25.25 0 010 .17v.09a.31.31 0 010-.09zM9.62 20.36l.13.08a1.77 1.77 0 01.12.17.92.92 0 01.13.39h.32c0-.11.13-.11.16-.2s-.09-.1-.09-.19.18-.13.15-.23-.17-.05-.12-.16.13-.07.09-.15-.14 0-.16-.1.08-.12.1-.18 0-.1-.11-.13.12-.17 0-.29-.17-.06-.12-.12.13 0 .14-.09c-.16-.07-.37-.31-.55-.3a.2.2 0 00-.16.11l-.11.15v.06a1 1 0 010 .17.43.43 0 00-.05.16.26.26 0 010 .15c0 .05-.07.14-.06.2s.07.12.09.18-.02.22.1.32zM8.31 19.88a.59.59 0 01.13.05.26.26 0 01.11.13h-.08a.23.23 0 00-.21 0 .12.12 0 000 .12c0 .09.09.16.17.21.21.16.26.23.27.26a.15.15 0 00-.14 0 .17.17 0 00-.05.12.25.25 0 00.15.21.15.15 0 01.06 0 .17.17 0 000 .22v.08a.08.08 0 00.08.07.08.08 0 00.07-.09.32.32 0 00-.05-.13.2.2 0 000-.27.48.48 0 00-.08.14s-.07-.05-.07-.06a.18.18 0 00.15 0 .17.17 0 00.05-.12c0-.12-.14-.24-.34-.39a.44.44 0 01-.1-.08h.08c.15 0 .2-.06.21-.11s-.06-.25-.17-.32a.76.76 0 00-.18-.06c-.08 0-.21-.06-.22-.12a.08.08 0 00-.16 0c.01.05.18.1.32.14zM8 20.49a.44.44 0 00-.37.15.09.09 0 000 .11.07.07 0 00.11 0 .28.28 0 01.26-.1.23.23 0 01.2.1.19.19 0 01-.1 0 .16.16 0 01-.1-.04.08.08 0 00-.1 0 .08.08 0 000 .11.37.37 0 00.3.18.17.17 0 00.17-.08v-.2a.39.39 0 00-.37-.23z"/><path class="cls-1" d="M4.05 23.89a5.07 5.07 0 00.87 1.6c.16.19.28.26.42.26h.47a2.48 2.48 0 011.24.47 1.91 1.91 0 01.37.46c.18.27.36.54.67.61a.55.55 0 00.18 0c.35 0 .53-.27.69-.52l.11-.15.1-.14a3.74 3.74 0 00.5-.82l.06-.16a3.67 3.67 0 01.4-.79 1.4 1.4 0 00.19-.41 1.2 1.2 0 01.18-.41.5.5 0 01.27-.14 1 1 0 00.32-.15 1.55 1.55 0 00.42-1 .75.75 0 00-.16-.58.32.32 0 01-.1-.13 1.25 1.25 0 000-.15v-.15a.65.65 0 01.06-.38 2.48 2.48 0 00.19-.88 2.84 2.84 0 00.45 0 1.53 1.53 0 001.1-.36.4.4 0 00.15-.25c0-.1-.07-.17-.17-.26a4 4 0 00-.38-.32 3.48 3.48 0 00-1.91-.62 1.93 1.93 0 01-.72-.2 2.16 2.16 0 00-.9-.32h-.21a5.29 5.29 0 00-1 .23h-.12a.54.54 0 01-.51 0 .76.76 0 00-.27 0 1.83 1.83 0 00-.73.23L6 18.6a2.36 2.36 0 01-.38.1 1.13 1.13 0 00-.72.3 1.75 1.75 0 00-.3.65 2.6 2.6 0 01-.15.42 4.76 4.76 0 01-.31.47 3 3 0 00-.4.67A3.61 3.61 0 004 23.7zm5.72.76a7.73 7.73 0 01-.37.69 1.22 1.22 0 01-1.4.36c-.24-.14-.19-.41-.32-.64s-.34-.33-.38-.64 0-.47-.25-.66-.45-.22-.55-.5 0-.69.22-1a.41.41 0 00-.05-.54c-.08-.08-.29-.19-.29-.31s.12-.06.19 0 .3.34.45.5.75.61 1 .88-.06.3.17.5.31 0 .47.14a2.76 2.76 0 00.71.4c.16 0 .44 0 .57.08s-.07.57-.17.74zm-1.4-2.21a.07.07 0 010 .09.05.05 0 01-.05 0C6.88 21.53 7 21 7 20.92a.07.07 0 01.08-.05.08.08 0 010 .07s-.08.55 1.29 1.5zm.08.33c.16 0 .16.43-.08.35a.19.19 0 01-.13-.23.13.13 0 01.06-.12s.12.01.15 0zm1.48.72c-.61 0-.61-.2-.61-.2a1.66 1.66 0 011.52-.08 1.15 1.15 0 01-.91.28zm1.07-.38c-1.4-.42-1.84.16-2 .24s-.28-.12-.28-.12a.43.43 0 000-.64 1.92 1.92 0 012.18-.89 1.61 1.61 0 00.1.3c.49.47 0 1.11 0 1.11zM12.34 20a2.12 2.12 0 01-.44 0c-.12 0-.6 0-.56-.1a.69.69 0 000-.43c.12.13.14 0 .26 0a.89.89 0 01.57.13c.32.13.63.4.17.4zm0-.9l.12.08a.82.82 0 01.38.49 2.75 2.75 0 00-1.19-.38.52.52 0 00-.27.06.3.3 0 01-.12-.29.68.68 0 00-.1-.34 3.48 3.48 0 011.17.4zm-4.84-.29c.06-.22.72-.29.93-.34a2.46 2.46 0 011.08-.06 9.48 9.48 0 011 .27c.14 0 .37 0 .48.16s.08.33.17.48.23.17.18.39-.08.13-.1.21a2.17 2.17 0 000 .26 3.5 3.5 0 01-.18 1c-.12.22-.47.11-.91.08a1.57 1.57 0 00-.9.32 2 2 0 00-.43.33c-.11.12-.21.27-.38.23s-.28-.22-.39-.3-.25-.18-.36-.28a.81.81 0 01-.26-.38c0-.12 0-.7-.11-.7-.28 0-.24.08-.41.12a.83.83 0 01-.47-.12c-.47-.2-.07-.54.19-.63a.63.63 0 01.52 0c.12 0 .31.16.41.06s-.08-.22-.08-.22.3-.11.39-.2c.24-.28-.46-.32-.37-.68zm-1.88 1.06A2.12 2.12 0 017 18.72c.32 0 .42.53.45.68a2.51 2.51 0 00-1.94 1.17.91.91 0 01.11-.7z"/><path class="cls-1" d="M9.76 22.32a.21.21 0 00-.25.05.09.09 0 000 .12.08.08 0 00.11 0 .06.06 0 01.08 0v.05a.17.17 0 010 .05h-.06a.09.09 0 00-.08.08.12.12 0 00.06.12h.08a.32.32 0 00.13-.22.21.21 0 00-.07-.25zM9 24c-.13 0-.26.06-.35-.08s-.09-.21-.24-.13-.23 0-.33-.09a1.6 1.6 0 01-.23-.3c0-.06-.15-.34-.23-.19-.19.14-.15.42-.07.61a3.49 3.49 0 00.15.34c0 .06.08.1.11.15s0 .14.08.19.08 0 .16 0 .06.11.12.13.09-.06.17-.05.11.1.14.15.07.25.19.3.1 0 .15 0 .08.1.15.09.14-.25.15-.34a1.3 1.3 0 000-.44c.03-.11.01-.34-.12-.34zM10.73 22.33a.21.21 0 00-.13.21.27.27 0 00.12.23h.11a.17.17 0 00.06-.12.1.1 0 00-.08-.09v-.05a.1.1 0 00.12 0 .09.09 0 000-.12.22.22 0 00-.2-.06z"/></g></g></svg>