<svg xmlns="http://www.w3.org/2000/svg" width="2048" height="550" viewBox="0 0 2048 550" version="1.1"><path d="M 0.012 248.750 C 0.022 455.105, 0.255 498.369, 1.382 502.600 C 5.362 517.546, 18.209 528.934, 35.203 532.579 C 40.211 533.653, 59.509 533.939, 129.500 533.974 L 217.500 534.019 222.777 537.045 C 225.969 538.876, 229.464 542.034, 231.621 545.036 C 233.583 547.766, 235.724 550, 236.380 550 C 237.036 550, 239.248 547.757, 241.294 545.016 C 243.441 542.141, 247.233 538.760, 250.257 537.025 L 255.500 534.019 343.500 533.974 C 411.743 533.940, 432.858 533.638, 437.547 532.631 C 455.716 528.730, 468.947 516.237, 471.985 500.114 C 472.654 496.561, 473 410.518, 473 247.364 L 473 0 236.500 0 L 0 0 0.012 248.750 M 4.058 249.750 C 4.111 478.152, 4.236 495.959, 5.823 502 C 8.631 512.689, 16.341 521.267, 27.288 525.882 L 33.500 528.500 126 529 L 218.500 529.500 223.855 532.466 C 226.801 534.098, 230.858 537.303, 232.870 539.590 L 236.530 543.748 240.135 539.604 C 242.118 537.324, 246.161 534.119, 249.120 532.480 L 254.500 529.500 347 529 C 435.548 528.521, 439.692 528.418, 444 526.570 C 454.874 521.906, 462.358 514.690, 466.217 505.147 L 468.500 499.500 468.766 251.750 L 469.031 4 236.516 4 L 4 4 4.058 249.750 M 583.344 30.020 C 578.493 31.005, 572.544 33.995, 569 37.231 C 562.995 42.713, 560.772 49.132, 560.809 60.883 C 560.831 67.864, 561.313 70.651, 563.259 75.050 C 570.106 90.534, 584.857 95.314, 604.720 88.485 L 608.500 87.186 608.500 73.843 L 608.500 60.500 599 60.500 C 589.533 60.500, 589.500 60.509, 589.500 63 C 589.500 65.342, 589.863 65.519, 595.250 65.800 L 601 66.100 601 74.503 L 601 82.906 597.250 83.947 C 592.046 85.393, 584.552 85.258, 580.702 83.649 C 576.288 81.804, 571.335 75.910, 569.875 70.763 C 569.209 68.418, 568.667 63.279, 568.670 59.341 C 568.681 44.784, 576.448 36, 589.308 36 C 592.264 36, 596.891 36.670, 599.591 37.489 C 602.291 38.308, 604.612 38.983, 604.750 38.989 C 604.888 38.995, 605 37.470, 605 35.600 C 605 32.358, 604.779 32.150, 600.250 31.146 C 592.562 29.441, 587.769 29.122, 583.344 30.020 M 642.500 30.042 C 632.691 31.983, 625.850 36.955, 622.163 44.819 C 619.833 49.790, 619.501 51.750, 619.507 60.500 C 619.516 72.543, 621.797 78.715, 628.536 84.927 C 642.189 97.511, 665.202 91.358, 670.517 73.703 C 674.607 60.113, 672.841 45.150, 666.290 37.899 C 660.433 31.416, 651.111 28.337, 642.500 30.042 M 954.920 30.063 C 948.426 31.087, 942.865 34.210, 938.298 39.399 C 927.802 51.323, 929.239 74.702, 941.144 85.702 C 951.175 94.971, 971.335 92.652, 979.361 81.306 C 984.052 74.675, 984.843 71.562, 984.902 59.500 C 984.945 50.671, 984.574 47.657, 983.018 44.230 C 978.354 33.954, 966.893 28.176, 954.920 30.063 M 686.667 30.667 C 685.632 31.701, 685.873 89.803, 686.914 90.447 C 688.654 91.522, 711.516 91.274, 715.619 90.136 C 723.856 87.851, 728.089 82.329, 728.259 73.646 C 728.387 67.106, 726.156 62.803, 721.062 59.765 C 717.298 57.521, 717.208 57.351, 719.130 56.151 C 723.724 53.282, 725.505 42.357, 722.272 36.883 C 719.135 31.573, 714.010 30, 699.851 30 C 692.966 30, 687.033 30.300, 686.667 30.667 M 743 60.500 L 743 91 746.500 91 L 750 91 750 60.500 L 750 30 746.500 30 L 743 30 743 60.500 M 768 60.500 L 768 91 787 91 L 806 91 806 88.026 L 806 85.052 790.750 84.776 L 775.500 84.500 775.217 73.250 L 774.934 62 785.534 62 L 796.133 62 795.816 59.250 L 795.500 56.500 785.250 56.215 L 775 55.930 775 45.965 L 775 36 789 36 L 803 36 803 33 L 803 30 785.500 30 L 768 30 768 60.500 M 817.453 31.262 C 817.187 31.956, 817.088 45.569, 817.234 61.512 L 817.500 90.500 821.250 90.810 L 825 91.121 825 78.060 L 825 65 831.364 65 C 839.549 65, 841.123 66.510, 847.520 80.493 L 852.327 91 856.747 91 C 859.178 91, 860.998 90.662, 860.792 90.250 C 860.586 89.838, 858.312 85.225, 855.739 80 C 853.167 74.775, 849.981 68.930, 848.660 67.012 L 846.259 63.524 850.609 59.695 C 860.168 51.281, 858.612 36.907, 847.599 31.905 C 844.297 30.406, 841.015 30.040, 830.719 30.022 C 821.334 30.006, 817.809 30.335, 817.453 31.262 M 873 60.500 L 873 91 876.590 91 L 880.179 91 879.840 66.079 L 879.500 41.158 881.436 44.329 C 882.500 46.073, 888.463 55.256, 894.686 64.735 C 900.909 74.214, 906 82.211, 906 82.506 C 906 82.802, 907.185 84.833, 908.633 87.021 C 910.836 90.350, 911.815 91, 914.633 91 L 918 91 918 60.500 L 918 30 914.500 30 L 911 30 910.978 54.250 L 910.956 78.500 907.808 73 C 906.077 69.975, 900.350 61.052, 895.080 53.170 C 889.811 45.289, 884.198 36.851, 882.606 34.420 C 880.135 30.646, 879.222 30, 876.356 30 L 873 30 873 60.500 M 637.479 38.148 C 629.972 41.927, 626.244 51.444, 627.307 64.120 C 628.521 78.606, 636.715 86.375, 649.035 84.722 C 655.235 83.890, 659.568 80.583, 662.615 74.354 C 664.911 69.662, 665.335 67.478, 665.380 60.109 C 665.448 49.050, 662.340 41.684, 656.137 38.197 C 651.077 35.353, 643.073 35.332, 637.479 38.148 M 694 46 L 694 56 702.545 56 C 710.221 56, 711.334 55.757, 713.479 53.612 C 715.870 51.221, 717.492 45.795, 716.836 42.385 C 716.643 41.387, 714.960 39.542, 713.095 38.285 C 710.278 36.387, 708.375 36, 701.852 36 L 694 36 694 46 M 825 47.500 L 825 59 831.935 59 C 842.928 59, 847.400 56.199, 848.534 48.604 C 849.900 39.451, 845.660 36, 833.050 36 L 825 36 825 47.500 M 950.168 38.146 C 944.628 40.888, 941.245 46.042, 939.873 53.829 C 937.761 65.818, 942.303 78.991, 950 83.204 C 955.258 86.083, 964.557 85.338, 969.389 81.652 C 975.454 77.026, 977.403 72.037, 977.455 61 C 977.515 48.263, 975.514 42.916, 969.184 38.902 C 963.427 35.251, 956.568 34.978, 950.168 38.146 M 43.011 243.250 C 43.022 455.116, 42.859 447.116, 47.341 455.648 C 50.508 461.676, 58.969 468.289, 67.442 471.357 C 69.527 472.112, 94.576 472.629, 146.165 472.982 L 221.829 473.500 226.165 476.537 C 228.549 478.208, 231.588 481.245, 232.918 483.287 C 235.798 487.711, 237.449 487.957, 239.385 484.250 C 241.419 480.357, 245.876 476.367, 250.218 474.553 C 253.463 473.198, 263.197 472.999, 326.718 472.989 C 404.055 472.978, 403.213 473.025, 412.619 468.172 C 417.884 465.455, 423.289 459.625, 426.683 453 L 429.500 447.500 429.764 245.250 L 430.029 43 236.514 43 L 43 43 43.011 243.250 M 47 157 C 47 217.500, 47.193 267, 47.428 267 C 47.664 267, 60.027 252.444, 74.902 234.654 C 89.776 216.864, 104.941 198.977, 108.602 194.904 C 112.262 190.832, 115.972 186.375, 116.845 185 C 117.719 183.625, 121.777 178.553, 125.862 173.728 C 129.947 168.903, 133.112 164.797, 132.895 164.602 C 132.678 164.408, 129.125 164.847, 125 165.578 C 115.767 167.214, 101.071 166.476, 99.322 164.289 C 98.287 162.994, 97.484 163.008, 92.669 164.408 C 85.345 166.537, 78.751 166.415, 71.500 164.015 C 68.200 162.923, 64.297 161.798, 62.827 161.515 C 61.357 161.232, 58.769 159.835, 57.077 158.411 C 52.298 154.390, 52.818 150.595, 60.094 136.394 C 63.446 129.852, 68.679 120.945, 71.723 116.599 L 77.257 108.698 72.653 104.285 L 68.048 99.873 64.798 104.484 C 63.010 107.021, 60.849 110.987, 59.995 113.298 C 59.135 115.627, 57.787 117.500, 56.972 117.500 C 54.585 117.500, 55.592 108.524, 58.703 102.066 C 60.178 99.005, 61.281 95.348, 61.154 93.940 C 60.868 90.765, 64.459 87.059, 66.166 88.766 C 66.991 89.591, 68.108 89.257, 70.421 87.493 C 74.979 84.016, 82.012 81.047, 85.750 81.022 C 90.440 80.990, 89.924 83.554, 84.750 85.995 C 82.412 87.097, 78.624 89.599, 76.332 91.555 L 72.164 95.110 76.551 99.154 L 80.937 103.197 88.371 96.517 C 93.817 91.624, 96.634 88.155, 98.903 83.546 C 100.606 80.086, 102 76.798, 102 76.241 C 102 75.227, 107.280 68.938, 114.132 61.789 C 120.093 55.571, 125.788 56.705, 141.274 67.193 C 147.075 71.122, 149.192 74.513, 152.573 85.289 C 153.985 89.788, 155.135 91.538, 157.734 93.144 C 159.834 94.442, 162.171 97.377, 164.017 101.033 C 165.633 104.235, 167.354 107.100, 167.840 107.401 C 168.327 107.702, 169.299 109.997, 170 112.500 C 170.701 115.003, 171.644 117.280, 172.097 117.560 C 172.549 117.839, 178.579 111.190, 185.497 102.784 C 192.416 94.378, 205.371 78.748, 214.288 68.050 C 223.205 57.353, 230.650 48.240, 230.833 47.800 C 231.017 47.360, 189.729 47, 139.083 47 L 47 47 47 157 M 242 47.510 C 242 47.791, 249.762 57.416, 259.250 68.899 C 268.738 80.382, 280.657 94.890, 285.738 101.139 C 290.819 107.387, 296.638 114.300, 298.669 116.500 C 304.365 122.669, 351.068 178.826, 355.647 185.011 C 357.882 188.030, 362.363 193.434, 365.605 197.021 C 368.847 200.607, 378.016 211.407, 385.979 221.021 C 393.943 230.634, 400.722 238.725, 401.045 239 C 401.367 239.275, 407.114 246.164, 413.816 254.308 L 426 269.117 426 158.058 L 426 47 334 47 C 283.400 47, 242 47.230, 242 47.510 M 216.942 71.538 C 197.276 95.362, 194.615 98.544, 154.736 145.913 C 142.506 160.441, 129.015 176.641, 124.755 181.913 C 120.495 187.186, 113.878 195.100, 110.051 199.500 C 99.448 211.688, 50 271.005, 50 271.534 C 50 271.790, 133.930 272, 236.512 272 L 423.024 272 392.353 235.250 C 375.485 215.037, 360.357 197.150, 358.735 195.500 C 357.114 193.850, 355.053 191.375, 354.155 190 C 352.802 187.926, 314.662 141.582, 313.007 140 C 312.719 139.725, 307.987 134.169, 302.492 127.654 C 296.996 121.139, 289.190 111.914, 285.145 107.154 C 281.100 102.394, 276.833 97.150, 275.664 95.500 C 274.093 93.282, 241.931 54.342, 237.046 48.742 C 236.682 48.325, 227.635 58.583, 216.942 71.538 M 391.271 58.382 C 389.612 60.491, 389.181 60.606, 387.508 59.382 C 384.998 57.547, 382.356 57.631, 381.612 59.569 C 381.206 60.627, 380.341 60.926, 378.957 60.486 C 377.828 60.128, 376.236 60.389, 375.420 61.067 C 374.241 62.045, 373.118 62.029, 369.972 60.991 C 366.411 59.816, 365.799 59.872, 363.948 61.547 C 362.251 63.083, 361.548 63.199, 359.958 62.206 C 357.531 60.690, 355.281 60.658, 354.789 62.132 C 354.530 62.909, 353.373 62.727, 351.104 61.554 C 347.892 59.893, 347.728 59.907, 345.446 62.051 C 344.050 63.362, 342.322 64.056, 341.190 63.760 C 338.797 63.134, 336 64.638, 336 66.550 C 336 67.483, 334.968 68, 333.107 68 C 331.451 68, 329.967 68.645, 329.635 69.508 C 329.251 70.510, 327.958 70.929, 325.778 70.758 C 322.658 70.512, 322.485 70.681, 322.190 74.250 C 321.948 77.170, 321.455 78, 319.965 78 C 318.371 78, 318.150 78.502, 318.650 80.998 C 318.999 82.746, 318.744 84.603, 318.038 85.454 C 317.349 86.284, 317.177 87.470, 317.639 88.206 C 318.085 88.918, 318.310 90.351, 318.138 91.391 C 317.933 92.637, 319.885 95.241, 323.861 99.024 C 327.180 102.182, 331.262 106.920, 332.930 109.551 C 335.909 114.249, 335.929 114.362, 333.982 115.725 C 331.645 117.362, 331.363 120.818, 333.500 121.638 C 334.325 121.955, 335 122.938, 335 123.824 C 335 126.564, 331.794 134.333, 329.215 137.841 C 327.087 140.737, 326.924 141.490, 327.998 143.496 C 328.679 144.768, 328.949 146.273, 328.599 146.839 C 328.015 147.784, 333.767 153, 335.392 153 C 336.407 153, 340.846 158.200, 341.518 160.177 C 342.127 161.969, 348.269 166, 350.388 166 C 351.089 166, 352.240 167.238, 352.947 168.750 C 353.654 170.262, 354.573 172.175, 354.990 173 C 355.468 173.945, 357.183 174.500, 359.624 174.500 C 361.756 174.500, 364.144 174.915, 364.932 175.421 C 365.719 175.928, 370.823 176.453, 376.274 176.588 C 381.725 176.723, 387.490 177.375, 389.086 178.036 C 391.448 179.014, 392.408 178.966, 394.244 177.777 C 395.485 176.974, 397.738 176.012, 399.250 175.639 C 400.762 175.267, 402 174.460, 402 173.846 C 402 173.232, 403.167 171.648, 404.592 170.327 C 406.368 168.681, 406.959 167.385, 406.469 166.212 C 403.877 160.015, 399.032 143.360, 399.481 142.190 C 399.779 141.412, 399.162 139.363, 398.109 137.637 C 397.056 135.912, 395.729 132.784, 395.160 130.687 C 394.270 127.404, 394.396 126.604, 396.063 124.937 C 398.532 122.468, 398.519 120.181, 396.021 117.523 C 394.046 115.420, 394.047 115.407, 396.867 109.458 C 398.420 106.181, 401.335 100.934, 403.345 97.798 C 405.355 94.662, 407 91.842, 407 91.531 C 407 91.220, 409.025 87.630, 411.500 83.553 C 413.975 79.476, 415.996 75.546, 415.991 74.820 C 415.986 74.094, 414.875 71.250, 413.522 68.500 C 412.169 65.750, 411.048 62.905, 411.031 62.177 C 411.014 61.449, 410.212 61.012, 409.250 61.206 C 408.288 61.399, 406.681 60.533, 405.679 59.281 C 404.222 57.459, 403.476 57.210, 401.938 58.033 C 400.530 58.787, 399.229 58.653, 397.059 57.530 C 393.307 55.590, 393.489 55.563, 391.271 58.382 M 694 73.226 L 694 84.725 699.442 85.364 C 706.390 86.181, 714.677 84.414, 717.597 81.494 C 720.530 78.561, 721.605 72.876, 719.974 68.936 C 718.125 64.473, 713.885 62.768, 703.255 62.212 L 694 61.727 694 73.226 M 115.203 66.192 C 114.267 67.947, 111.581 71.488, 109.235 74.062 C 103.938 79.872, 102.100 85.718, 101.031 100.158 C 100.217 111.158, 98.872 114.968, 96.497 112.998 C 95.816 112.433, 95.011 110.115, 94.706 107.848 C 93.890 101.762, 92.277 100.585, 88.250 103.137 C 86.463 104.270, 85 105.529, 85 105.936 C 85 106.865, 92.503 113.867, 96.523 116.690 C 100.391 119.407, 101.043 119.058, 113.429 107.653 L 123.037 98.807 120.019 95.368 C 116.490 91.349, 116.282 89.718, 118.959 87.041 C 121.596 84.404, 128.418 81, 131.067 81 C 132.614 81, 133.044 80.558, 132.607 79.418 C 132.273 78.548, 132 76.523, 132 74.918 C 132 73.068, 131.482 72, 130.584 72 C 129.805 72, 128.582 70.678, 127.867 69.062 L 126.567 66.125 125.283 69.177 C 124.578 70.856, 124 73.978, 124 76.115 C 124 79.917, 122.828 81.148, 121.403 78.843 C 121.010 78.206, 120.745 76.163, 120.815 74.302 C 120.970 70.172, 119.414 70.806, 118.461 75.261 C 118.081 77.043, 117.398 78.963, 116.945 79.529 C 116.492 80.096, 116.162 81.993, 116.212 83.745 C 116.262 85.497, 115.727 87.624, 115.024 88.472 C 114.320 89.319, 113.453 91.438, 113.097 93.181 C 112.740 94.924, 111.914 96.529, 111.261 96.746 C 109.211 97.430, 108.660 92.236, 110.395 88.579 C 111.284 86.706, 112.906 82.276, 114 78.734 C 115.094 75.193, 117.117 70.634, 118.495 68.603 C 121.535 64.123, 121.627 63, 118.953 63 C 117.675 63, 116.268 64.197, 115.203 66.192 M 392.977 66.043 C 392.375 67.167, 390.752 73.579, 389.370 80.293 C 387.046 91.580, 385.788 95.121, 384.544 93.877 C 384.275 93.608, 384.473 91.838, 384.984 89.944 C 385.496 88.050, 386.378 82.731, 386.945 78.125 C 387.967 69.816, 387.588 65, 385.911 65 C 384.936 65, 384.689 66.076, 383.043 77.500 C 381.171 90.495, 380.829 92, 379.747 92 C 379.060 92, 378.941 88.083, 379.389 80.250 L 380.061 68.500 377.479 67.320 C 375.140 66.250, 374.808 66.374, 373.949 68.635 C 373.427 70.007, 373 76.726, 373 83.565 C 373 91.188, 372.613 96, 372 96 C 371.381 96, 371 90.631, 371 81.893 C 371 69.888, 370.781 67.870, 369.529 68.351 C 368.720 68.661, 367.415 68.272, 366.628 67.485 C 365.389 66.246, 365.031 66.258, 363.939 67.573 C 363.246 68.408, 362.047 68.848, 361.274 68.552 C 360.309 68.181, 360.022 68.559, 360.358 69.756 C 360.628 70.715, 361.152 77.237, 361.525 84.250 C 362.197 96.914, 362.218 97, 364.641 97 C 371.747 97, 379.894 104.878, 380.763 112.591 L 381.279 117.170 384.890 116.496 C 388.697 115.784, 391 114.391, 391 112.800 C 391 112.275, 395.275 103.722, 400.500 93.793 C 405.725 83.864, 409.990 75.236, 409.978 74.620 C 409.966 74.004, 409.093 72.377, 408.039 71.005 L 406.122 68.510 404.083 73.005 C 402.961 75.477, 402.034 78.457, 402.022 79.628 C 402 81.728, 399.415 84.749, 398.458 83.792 C 398.045 83.379, 399.713 75.483, 401.635 68.750 C 401.910 67.787, 401.703 67, 401.174 67 C 399.917 67, 399.271 68.722, 396.490 79.500 C 393.523 90.995, 391.851 95.202, 391.254 92.671 C 391.017 91.665, 391.306 89.640, 391.896 88.171 C 393.385 84.467, 396.984 68.986, 396.993 66.250 C 397.002 63.417, 394.453 63.286, 392.977 66.043 M 339.704 71.255 L 336.908 73.500 340.035 83.500 C 345.412 100.697, 346 102.817, 346 105.021 C 346 106.222, 345.482 106.994, 344.823 106.774 C 343.503 106.334, 337.007 91.723, 336.988 89.153 C 336.982 88.244, 335.969 84.575, 334.737 81 C 332.315 73.970, 330.198 72.653, 328.604 77.184 C 327.839 79.360, 328.240 81.063, 330.724 86.184 C 334.942 94.879, 335.506 97, 333.603 97 C 332.760 97, 331.534 95.987, 330.879 94.750 C 328.286 89.851, 324.690 85.910, 323.708 86.892 C 322.520 88.080, 324.653 91.614, 331 98.975 C 333.475 101.845, 336.633 106.512, 338.018 109.347 C 339.771 112.935, 341.213 114.597, 342.768 114.820 C 344.371 115.049, 345.006 114.626, 345.022 113.320 C 345.086 107.982, 352.478 98.674, 358.157 96.781 C 358.821 96.560, 358.641 94.509, 357.646 90.969 C 355.443 83.134, 354.495 74, 355.885 74 C 357.226 74, 357.313 72.043, 356.061 70.064 C 355.308 68.874, 354.883 68.853, 353.576 69.937 C 352.350 70.954, 351.681 70.980, 350.564 70.054 C 349.366 69.059, 349.076 69.492, 348.806 72.681 L 348.483 76.500 346.143 72.750 C 344.856 70.688, 343.509 69.002, 343.151 69.005 C 342.793 69.008, 341.242 70.020, 339.704 71.255 M 226.053 72.436 C 225.092 73.594, 224.322 73.708, 222.831 72.910 C 219.968 71.377, 217.738 73.529, 218.516 77.073 C 218.999 79.274, 218.707 79.958, 217.060 80.481 C 214.158 81.402, 214.481 82.794, 218.500 86.697 C 222.716 90.792, 222.944 92.759, 219.250 93.184 C 213.470 93.849, 215.793 100.633, 222.804 103.563 L 226.149 104.960 225.463 110.730 C 225.085 113.904, 223.975 118.975, 222.995 122 C 222.015 125.025, 221.431 128.896, 221.698 130.602 L 222.183 133.703 216.421 134.380 C 209.109 135.240, 203.693 137.677, 198 142.670 C 195.525 144.840, 191.700 147.693, 189.500 149.008 C 179.703 154.866, 177.476 157.572, 172.385 169.807 C 170.336 174.731, 170.183 176.617, 170.266 195.889 L 170.355 216.662 173.451 218.692 C 175.154 219.808, 177.549 221.039, 178.774 221.428 C 180.748 222.055, 181.008 222.834, 181.070 228.317 C 181.109 231.718, 181.501 235.400, 181.942 236.500 C 182.437 237.734, 182.221 239.529, 181.379 241.187 C 180.628 242.664, 180.259 244.511, 180.558 245.291 C 180.857 246.071, 181.192 249.336, 181.301 252.547 C 181.498 258.316, 181.564 258.437, 186.870 262.760 C 191.858 266.824, 192.535 267.086, 196.370 266.451 C 198.642 266.075, 201.287 265.354, 202.250 264.849 C 204.705 263.559, 204.427 260.481, 201.659 258.304 C 198.240 255.614, 197 252.724, 197 247.443 C 197 243.452, 197.216 242.935, 198.456 243.964 C 199.257 244.628, 200.351 244.901, 200.887 244.570 C 201.423 244.238, 202.158 244.446, 202.519 245.032 C 202.881 245.617, 203.925 246.005, 204.839 245.894 C 205.752 245.783, 207.217 246.008, 208.093 246.393 C 208.969 246.778, 211.275 247.195, 213.217 247.319 C 217.861 247.616, 220.298 249.675, 219.547 252.667 C 218.686 256.098, 221.243 261.231, 225.604 264.825 C 229.838 268.315, 233.374 268.827, 236.777 266.443 C 239.678 264.411, 239.586 263.104, 236.046 256.092 C 234.422 252.874, 233.354 249.980, 233.673 249.660 C 234.767 248.566, 235.162 241.218, 234.159 240.598 C 233.523 240.205, 233.755 238.580, 234.793 236.149 C 236.332 232.545, 236.679 232.324, 240.641 232.409 C 243.409 232.469, 245.773 231.813, 247.540 230.494 C 250.808 228.054, 253.436 221.874, 252.608 218.575 C 251.800 215.356, 247.217 210, 245.271 210 C 242.363 210, 241.482 207.228, 242.010 199.736 C 242.291 195.756, 242.184 191.135, 241.773 189.466 C 240.880 185.840, 242.100 176.467, 244.894 165.500 C 247.374 155.763, 247.475 152.226, 245.416 147.082 C 243.886 143.258, 243.919 142.951, 246.399 138.013 C 249.377 132.085, 249.486 123.759, 246.658 118.300 C 245.278 115.636, 245.179 114.265, 246.067 110.123 C 247.044 105.568, 247.530 104.951, 251.817 102.824 C 256.939 100.282, 258.019 97.338, 254.494 95.530 C 251.757 94.125, 252.132 90.515, 255.366 87.140 C 258.481 83.889, 258.748 81.372, 256.068 80.522 C 254.715 80.092, 254.191 79.098, 254.318 77.204 C 254.479 74.806, 254.136 74.489, 251.283 74.400 C 249.514 74.345, 247.382 73.732, 246.546 73.038 C 244.630 71.448, 242 72.388, 242 74.664 C 242 75.614, 243.093 77.540, 244.428 78.945 C 247.251 81.916, 248.034 84.336, 246.250 84.580 C 245.563 84.673, 244.499 84.806, 243.887 84.875 C 243.231 84.949, 242.955 86.239, 243.215 88.013 C 243.611 90.713, 243.441 90.947, 241.579 90.263 C 240.435 89.843, 237.363 89.546, 234.750 89.601 C 230.170 89.699, 230 89.600, 230 86.851 C 230 84.310, 229.121 83.507, 226.750 83.882 C 225.223 84.123, 226.075 81.700, 228.551 78.756 C 231.302 75.488, 231.481 71.707, 228.908 71.217 C 228.032 71.051, 226.748 71.599, 226.053 72.436 M 137.557 76.223 C 135.388 79.319, 135.556 79.778, 139.250 80.845 C 141.037 81.361, 143.400 82.126, 144.500 82.546 C 146.138 83.171, 146.003 82.774, 143.750 80.350 C 142.238 78.722, 141 76.628, 141 75.695 C 141 73.336, 139.408 73.580, 137.557 76.223 M 251 83.800 C 251 85.010, 250.170 86.830, 249.156 87.844 C 247.245 89.755, 245.357 97.516, 247.059 96.463 C 247.577 96.144, 248 95.310, 248 94.610 C 248 93.911, 249.115 91.137, 250.477 88.446 C 252.089 85.262, 252.613 83.213, 251.977 82.577 C 251.341 81.941, 251 82.368, 251 83.800 M 232.505 92.908 C 231.408 93.343, 230.508 94.554, 230.505 95.599 C 230.502 96.911, 229.880 97.427, 228.500 97.263 C 217.770 95.992, 218.085 95.958, 223.750 97.783 C 226.637 98.713, 229 100.069, 229 100.796 C 229 101.596, 228.506 101.815, 227.750 101.352 C 227.063 100.930, 227.294 101.691, 228.264 103.043 C 229.234 104.394, 230.197 105.950, 230.404 106.500 C 230.611 107.050, 231.526 109.598, 232.439 112.162 C 233.351 114.726, 234.699 117.054, 235.434 117.336 C 237.622 118.176, 240.768 115.253, 241.988 111.247 C 244.322 103.584, 246.421 99.791, 248.835 98.872 C 250.179 98.362, 251.029 97.695, 250.724 97.391 C 250.420 97.087, 249.198 97.359, 248.008 97.996 C 245.360 99.413, 242.585 98.524, 243.359 96.507 C 244.333 93.969, 236.438 91.352, 232.505 92.908 M 118.500 105.652 C 113.550 110.371, 107.480 115.868, 105.011 117.866 C 92.514 127.982, 67.068 151.301, 67.596 152.155 C 67.960 152.744, 68.852 152.570, 69.849 151.714 C 70.757 150.935, 79.929 142.806, 90.232 133.649 C 100.535 124.492, 109.248 117, 109.594 117 C 109.941 117, 113.211 114.110, 116.862 110.578 C 120.513 107.046, 124.737 103.189, 126.250 102.006 C 128.780 100.027, 130.018 96.952, 128.250 97.036 C 127.838 97.055, 123.450 100.932, 118.500 105.652 M 144.489 101.025 C 143.485 103.250, 140.940 106.628, 138.832 108.533 C 136.169 110.938, 134.996 112.835, 134.987 114.747 C 134.968 118.785, 137.987 132.073, 139.633 135.201 C 140.707 137.240, 140.891 139.874, 140.384 145.951 C 139.903 151.716, 140.037 154, 140.856 154 C 141.485 154, 142 153.659, 142 153.243 C 142 152.826, 144.363 149.759, 147.250 146.426 C 157.773 134.282, 159.220 132.461, 160.057 130.304 C 161.189 127.387, 159.688 110.152, 158.032 107.058 C 157.313 105.716, 156.414 103.466, 156.034 102.058 C 155.653 100.651, 155.548 104.563, 155.800 110.750 C 156.080 117.650, 155.883 122, 155.289 122 C 153.377 122, 152 116.773, 152 109.512 C 152 103.115, 150.952 99.715, 149.445 101.222 C 148.309 102.357, 147.782 130.936, 148.841 133.973 C 149.928 137.091, 149.495 142.035, 148.142 141.969 C 147.789 141.951, 146.692 140.827, 145.705 139.471 C 144.229 137.443, 143.817 134.269, 143.383 121.604 C 142.892 107.257, 143.003 105.914, 144.998 102.004 C 146.176 99.695, 146.954 97.620, 146.726 97.393 C 146.499 97.166, 145.492 98.800, 144.489 101.025 M 70 98.553 C 70 99.656, 95.155 122, 96.397 122 C 98.350 122, 96.401 118.895, 92.750 116.188 C 90.412 114.456, 84.900 109.665, 80.500 105.543 C 73.509 98.994, 70 96.658, 70 98.553 M 118.871 111.266 C 114.676 115.245, 109.790 119.587, 108.013 120.916 L 104.784 123.331 113.054 131.170 C 117.603 135.481, 121.538 138.796, 121.797 138.536 C 122.686 137.647, 119.727 131.924, 117.863 130.927 C 116.838 130.378, 116 129.045, 116 127.965 C 116 126.536, 115.318 126, 113.500 126 C 109.885 126, 110.203 122.093, 114.184 117.596 C 117.441 113.917, 119 113.121, 119 115.135 C 119 115.760, 120.162 117.348, 121.583 118.664 C 123.780 120.700, 124.072 121.617, 123.535 124.792 C 122.784 129.239, 125.037 135.414, 127.988 136.994 C 130.755 138.475, 132.766 142.757, 133.582 148.906 C 134.477 155.655, 135.592 154.312, 136.418 145.491 C 136.929 140.029, 136.742 138.044, 135.569 136.491 C 134.741 135.396, 134.049 133.150, 134.032 131.500 C 134.014 129.849, 133.270 125.349, 132.379 121.500 C 131.487 117.650, 130.633 112.801, 130.480 110.724 C 130.222 107.222, 128.601 103.979, 127.128 104.016 C 126.782 104.025, 123.067 107.287, 118.871 111.266 M 644 105.960 C 634.632 109.186, 630.495 116.699, 632.989 125.959 C 634.470 131.460, 639.492 136.138, 649.500 141.341 C 657.184 145.336, 657.500 145.638, 657.500 149 L 657.500 152.500 651.159 152.800 C 647.178 152.988, 642.966 152.485, 639.844 151.448 C 637.109 150.540, 634.676 149.991, 634.438 150.229 C 634.199 150.467, 633.718 153.400, 633.369 156.747 L 632.733 162.832 636.616 164.022 C 638.752 164.676, 644.576 165.439, 649.557 165.716 C 657.358 166.152, 659.317 165.919, 663.687 164.039 C 673.928 159.634, 677.319 145.905, 670.307 137.240 C 668.410 134.896, 663.776 131.631, 657.890 128.493 C 649.313 123.920, 648.500 123.233, 648.500 120.557 C 648.500 118.082, 649.012 117.494, 651.800 116.772 C 653.824 116.248, 657.303 116.352, 660.800 117.041 C 663.935 117.660, 667.154 118.241, 667.953 118.333 C 670.021 118.571, 671.622 109.156, 669.801 107.467 C 665.941 103.890, 652.319 103.094, 644 105.960 M 699.811 105.411 C 687.970 108.823, 681.965 115.894, 679.965 128.785 C 678.063 141.046, 681.217 152.230, 688.599 159.399 C 698.195 168.718, 719.171 168.115, 728.527 158.251 C 741.921 144.128, 738.647 115.355, 722.713 107.155 C 716.987 104.209, 706.701 103.425, 699.811 105.411 M 826.416 105.487 C 820.050 107.497, 816.560 109.598, 813.167 113.462 C 807.158 120.307, 806.507 122.429, 806.561 135 C 806.616 147.778, 807.639 151.241, 813.241 157.621 C 825.299 171.355, 850.984 167.802, 859.101 151.277 C 861.161 147.083, 861.451 145.035, 861.474 134.500 C 861.498 123.193, 861.341 122.230, 858.757 117.834 C 851.909 106.185, 839.368 101.397, 826.416 105.487 M 877.750 104.698 L 871 105.091 871 135.046 L 871 165 879 165 L 887 165 887 154.500 L 887 144 890.977 144 C 895.628 144, 896.427 144.975, 900.389 155.500 C 901.838 159.350, 903.390 163.074, 903.837 163.775 C 904.454 164.744, 908.703 164.984, 921.567 164.775 L 938.484 164.500 939.896 159.217 L 941.307 153.933 951.324 154.217 L 961.341 154.500 962.920 159.500 L 964.500 164.500 972.752 165 C 982.016 165.561, 982.045 165.533, 979.554 158.500 C 978.774 156.300, 975.442 146.850, 972.147 137.500 C 968.853 128.150, 964.843 116.900, 963.235 112.500 L 960.312 104.500 951.449 104.500 L 942.586 104.500 938.382 116 C 936.070 122.325, 931.336 135.725, 927.864 145.777 C 921.649 163.766, 921.522 164.018, 919.824 161.777 C 918.875 160.525, 916.882 156.575, 915.393 153 C 913.905 149.425, 911.658 145.100, 910.399 143.389 L 908.111 140.279 910.428 139.039 C 914.246 136.995, 917.314 130.401, 917.388 124.077 C 917.481 116.109, 914.125 110.312, 907.500 107 C 902.250 104.375, 894.099 103.744, 877.750 104.698 M 353.400 108.400 C 351.530 110.270, 350 112.686, 350 113.769 C 350 116.186, 353.850 116.973, 365.750 116.989 C 374.859 117.001, 375.368 116.546, 372.483 110.967 C 370.551 107.231, 366.238 105, 360.950 105 C 357.564 105, 356.174 105.626, 353.400 108.400 M 745.999 135.250 L 745.999 165.500 752.749 165.346 L 759.500 165.192 759.461 149.346 C 759.440 140.631, 759.106 131.925, 758.719 130 C 758.107 126.954, 758.396 127.232, 760.943 132.138 C 762.552 135.239, 765.832 140.864, 768.230 144.638 C 770.628 148.412, 774.351 154.537, 776.503 158.250 L 780.416 165 788.708 165 L 797 165 797 135 L 797 105 789.378 105 L 781.756 105 782.174 123.564 C 782.404 133.775, 782.276 141.274, 781.889 140.230 C 781.067 138.006, 776.511 130.677, 766.672 115.750 L 759.587 105 752.793 105 L 746 105 745.999 135.250 M 78.204 114.045 C 77.502 115.169, 75.659 118.432, 74.109 121.295 C 72.558 124.158, 69.442 129.517, 67.184 133.204 C 63.465 139.276, 59 150.400, 59 153.594 C 59 156.029, 62.147 158, 66.034 158 C 68.175 158, 72.138 158.872, 74.842 159.938 C 81.708 162.644, 83.299 161.964, 84.780 155.692 C 85.454 152.836, 86.836 149.375, 87.852 148 C 89.933 145.182, 94.362 144.225, 96.626 146.105 C 98.803 147.912, 101.266 152.957, 101.945 157 C 102.492 160.256, 102.845 160.547, 107.016 161.176 C 114.676 162.330, 123.913 162.063, 127.452 160.585 C 131.178 159.027, 134.385 154.833, 131.233 155.639 C 130.075 155.935, 126.677 153.332, 120.988 147.791 C 116.307 143.231, 109.613 136.930, 106.112 133.790 L 99.747 128.080 87.733 138.790 C 69.070 155.427, 68.993 155.485, 67.132 154.313 C 63.564 152.067, 65.032 150.051, 79.811 136.903 L 94.734 123.627 87.777 117.813 C 83.950 114.616, 80.518 112, 80.150 112 C 79.782 112, 78.907 112.920, 78.204 114.045 M 887.750 116.570 C 887.337 116.990, 887 120.858, 887 125.167 L 887 133 892.326 133 C 896.600 133, 898.081 132.543, 899.826 130.686 C 902.505 127.834, 902.884 119.978, 900.439 117.950 C 898.663 116.476, 888.887 115.413, 887.750 116.570 M 240.007 118.707 C 238.035 120.089, 237.028 120.155, 233.273 119.151 C 228.964 117.998, 227 118.253, 227 119.965 C 227 120.431, 227.788 120.607, 228.751 120.355 C 231.085 119.744, 239.443 126.100, 237.733 127.186 C 235.992 128.292, 236.950 128.162, 241.043 126.735 C 245.417 125.211, 245.576 123.500, 241.345 123.500 C 236.735 123.500, 236.336 122.369, 240.425 120.891 C 242.391 120.180, 244 119.265, 244 118.858 C 244 117.236, 242.205 117.168, 240.007 118.707 M 702.209 118.046 C 694.316 121.214, 693.968 145.896, 701.729 152.002 C 707.820 156.792, 717.124 152.758, 719.029 144.500 C 721.193 135.122, 719.689 122.689, 715.935 118.935 C 713.824 116.824, 706.444 116.346, 702.209 118.046 M 828.223 117.671 C 827.521 117.954, 825.975 120.055, 824.787 122.342 C 821.970 127.767, 821.745 141.699, 824.393 146.803 C 827.154 152.125, 829.598 154, 833.777 154 C 842.077 154, 845.453 148.506, 845.453 135 C 845.453 124.885, 843.932 120.104, 840.055 118.030 C 838.088 116.977, 830.521 116.748, 828.223 117.671 M 335.550 118.887 C 337.849 121.034, 359.700 125.051, 368 124.853 C 372.131 124.754, 371.967 124.669, 366 123.818 C 348.723 121.355, 348.092 121.070, 360.749 121.447 C 367.486 121.647, 373.225 121.444, 373.503 120.996 C 374.200 119.867, 357.956 118.622, 351.384 119.300 C 348.342 119.614, 346 119.452, 346 118.928 C 346 118.417, 343.435 118, 340.300 118 C 336.936 118, 334.989 118.364, 335.550 118.887 M 380.667 119.667 C 379.014 121.320, 380.269 122.218, 383.500 121.694 C 385.425 121.381, 387 121.547, 387 122.063 C 387 122.578, 385.452 123, 383.559 123 C 381.666 123, 379.808 123.501, 379.430 124.113 C 378.935 124.914, 380.531 125.022, 385.121 124.499 C 393.094 123.589, 395.603 122.432, 393.942 120.430 C 392.721 118.959, 381.991 118.342, 380.667 119.667 M 950.673 121 C 949.931 123.077, 945 140.767, 945 141.353 C 945 141.615, 947.926 141.980, 951.502 142.165 C 955.078 142.349, 957.991 142.500, 957.975 142.500 C 957.959 142.500, 956.430 137.325, 954.577 131 C 952.725 124.675, 950.968 120.175, 950.673 121 M 339.678 124.656 C 339.305 125.028, 339 126.807, 339 128.608 C 339 130.409, 338.550 132.160, 338 132.500 C 337.450 132.840, 337 133.973, 337 135.019 C 337 136.064, 335.762 138.113, 334.250 139.572 L 331.500 142.225 334.250 141.593 C 337.261 140.902, 337.855 142.045, 335.500 144 C 334.675 144.685, 334 145.865, 334 146.622 C 334 147.380, 334.675 148, 335.500 148 C 336.325 148, 337 147.345, 337 146.544 C 337 145.743, 338.344 142.809, 339.986 140.024 C 341.628 137.238, 343.248 133.862, 343.584 132.521 C 344.229 129.953, 346.674 127.341, 347.583 128.250 C 348.420 129.087, 344.283 140.841, 341.452 145.672 C 340.048 148.068, 339.173 150.472, 339.509 151.014 C 340.522 152.654, 342.997 152.120, 343.048 150.250 C 343.120 147.582, 351.542 128.653, 352.850 128.217 C 354.734 127.589, 354.208 130.181, 350 142.258 C 345.654 154.729, 345.221 157.487, 347.472 158.351 C 348.499 158.745, 349.552 157.541, 350.955 154.369 C 353.925 147.654, 355.582 149.032, 355.143 157.852 C 354.831 164.110, 354.990 164.941, 356.393 164.403 C 357.616 163.933, 358 164.409, 358 166.393 C 358 168.044, 358.550 169, 359.500 169 C 360.574 169, 361 167.905, 361 165.149 C 361 163.031, 361.428 159.994, 361.951 158.399 C 362.474 156.805, 363.392 153.588, 363.990 151.250 C 365.130 146.794, 366.618 145.794, 367.708 148.750 C 368.064 149.713, 368.746 150.765, 369.225 151.088 C 369.703 151.412, 370.320 156.121, 370.595 161.553 C 371.122 171.939, 371.499 173.372, 373.073 170.971 C 373.901 169.709, 374.239 169.763, 375.452 171.350 C 378.130 174.853, 379.163 172.296, 378.437 163.965 C 377.719 155.738, 378.389 150.504, 380.029 151.518 C 380.563 151.848, 381.004 154.004, 381.009 156.309 C 381.022 162.914, 382.195 171, 383.139 171 C 384.584 171, 384.099 157.365, 382.337 148.393 C 381.135 142.280, 380.976 139.624, 381.764 138.836 C 383.164 137.436, 384.676 142.856, 386.043 154.177 C 387.551 166.661, 389.116 173, 390.691 173 C 393.195 173, 393.170 170.278, 390.573 159.703 C 387.804 148.431, 387.434 145, 388.987 145 C 390.745 145, 393.043 152.202, 393.677 159.702 C 394.314 167.241, 395.832 170.840, 397.848 169.594 C 399.767 168.408, 399.148 161.753, 396.409 154.126 C 394.362 148.423, 392.773 145.933, 388.836 142.250 C 386.095 139.686, 382.536 136.788, 380.927 135.809 C 379.317 134.830, 378 133.373, 378 132.571 C 378 129.755, 373.807 128.001, 367.027 127.982 C 361.310 127.965, 346.417 125.883, 341.928 124.472 C 341.063 124.200, 340.050 124.283, 339.678 124.656 M 102.602 125.835 C 102.254 126.398, 104.510 129.253, 107.615 132.179 C 110.719 135.106, 117.129 141.200, 121.858 145.721 C 127.776 151.379, 130.776 153.618, 131.479 152.900 C 132.178 152.186, 131.712 151.230, 130 149.866 C 128.625 148.770, 124.120 144.639, 119.990 140.686 C 104.936 126.282, 103.228 124.823, 102.602 125.835 M 567.250 127.798 L 561 128.095 561 146.441 C 561 162.247, 561.219 164.870, 562.582 165.393 C 565.025 166.331, 574.098 166.101, 578.057 165.001 C 587.682 162.327, 592.880 148.239, 588.386 137.007 C 585.558 129.938, 579.325 127.223, 567.250 127.798 M 228.518 129.250 C 228.287 129.938, 227.964 131.625, 227.799 133 C 227.629 134.423, 226.854 135.500, 226 135.500 C 225.175 135.500, 224.226 135.873, 223.892 136.329 C 223.558 136.785, 220.309 137.528, 216.673 137.979 C 213.023 138.431, 208.593 139.719, 206.781 140.853 C 201.703 144.034, 198 147.888, 198 149.993 C 198 152.968, 200.082 156.824, 202.569 158.453 C 204.748 159.881, 204.894 159.777, 206.643 155.549 C 209.507 148.625, 210.225 151.355, 207.467 158.683 C 206.102 162.311, 204.720 167.804, 204.398 170.889 C 204.075 173.975, 202.923 179.787, 201.837 183.805 C 200.752 187.823, 199.468 195.023, 198.984 199.805 C 198.500 204.587, 197.813 209.907, 197.457 211.626 C 196.929 214.175, 197.233 215.050, 199.099 216.357 C 201.239 217.855, 201.514 217.825, 203.316 215.892 C 204.962 214.124, 205.062 213.484, 203.996 211.493 C 202.728 209.123, 203.376 198.621, 204.921 196.500 C 206.062 194.934, 208 187.535, 208 184.745 C 208 182.816, 216.662 164.366, 218.639 162.083 C 219.682 160.879, 220.004 163.124, 219.046 164.914 C 216.928 168.871, 222.239 166.900, 227.750 161.684 C 229.865 159.682, 231.011 159.113, 231.032 160.054 C 231.064 161.527, 234.356 158.200, 236.633 154.394 C 238.469 151.323, 239.153 153.390, 237.561 157.200 C 236.755 159.129, 235.017 161.414, 233.700 162.277 C 231.310 163.843, 231.305 163.889, 231.628 180.185 C 231.844 191.049, 232.459 198.195, 233.465 201.512 C 234.297 204.255, 234.983 207.561, 234.989 208.857 C 234.997 210.593, 235.417 211.054, 236.582 210.607 C 237.452 210.273, 238.464 210, 238.832 210 C 239.199 210, 239.144 203.138, 238.709 194.750 C 237.991 180.915, 238.113 178.758, 240.023 171.500 C 241.181 167.100, 242.549 161.873, 243.064 159.884 C 244.403 154.710, 244.223 150.655, 242.506 147.364 C 241.685 145.789, 241.010 145.032, 241.006 145.683 C 241.003 146.333, 240.181 147.125, 239.180 147.443 C 238.180 147.760, 236.612 149.591, 235.697 151.510 C 234.781 153.430, 233.350 155, 232.516 155 C 230.539 155, 230.631 154.038, 232.888 151.102 C 234.722 148.717, 234.714 148.688, 231.328 145.715 C 227.884 142.691, 225.473 139.194, 226.277 138.390 C 226.518 138.148, 228.527 139.762, 230.740 141.975 C 232.954 144.189, 235.218 146, 235.772 146 C 236.325 146, 237.841 145.078, 239.139 143.951 C 241.363 142.021, 241.371 141.976, 239.275 143.176 C 236.061 145.016, 233.919 142.852, 236.324 140.195 C 237.246 139.176, 238 137.590, 238 136.671 C 238 135.752, 238.450 135, 239 135 C 239.550 135, 240 134.325, 240 133.500 C 240 132.675, 240.675 132, 241.500 132 C 243.369 132, 243.457 133.631, 241.646 134.700 C 239.804 135.788, 238.882 141, 240.532 141 C 242.068 141, 242.638 139.600, 243.533 133.628 C 244.282 128.636, 243.815 128.216, 239.637 130.120 C 237.675 131.014, 236.714 130.913, 234.867 129.620 C 232.111 127.689, 229.100 127.514, 228.518 129.250 M 595 146.333 C 595 156.417, 595.186 164.854, 595.413 165.083 C 595.640 165.312, 601.067 165.360, 607.474 165.188 C 617.771 164.913, 619.085 164.681, 618.800 163.188 C 618.530 161.775, 616.974 161.453, 609.239 161.212 L 600 160.925 600 154.462 L 600 148 606 148 C 611.333 148, 612 147.778, 612 146 C 612 144.222, 611.333 144, 606 144 L 600 144 600 138 L 600 132 608.500 132 C 616.333 132, 617 131.843, 617 130 C 617 128.121, 616.333 128, 606 128 L 595 128 595 146.333 M 380.879 130.645 C 379.702 132.064, 379.783 132.443, 381.462 133.395 C 382.534 134.003, 385.724 136.637, 388.552 139.250 C 391.380 141.863, 394.104 144, 394.606 144 C 395.108 144, 396.085 143.094, 396.777 141.986 C 397.922 140.151, 397.612 139.728, 393.292 137.236 C 390.683 135.731, 387.345 133.262, 385.873 131.750 C 382.733 128.522, 382.655 128.505, 380.879 130.645 M 566 146.884 L 566 162 570.032 162 C 575.600 162, 580.592 159.695, 582.315 156.329 C 584.582 151.901, 585.226 145.782, 583.955 140.736 C 582.328 134.274, 580.170 132.669, 572.443 132.177 L 566 131.767 566 146.884 M 212.667 142.667 C 211.240 144.093, 212.110 145.010, 214.356 144.447 C 216.738 143.849, 218.964 145.326, 220.903 148.791 C 221.424 149.722, 222.150 150.183, 222.516 149.817 C 223.422 148.912, 222.206 145.349, 220.363 143.506 C 218.839 141.981, 213.891 141.442, 212.667 142.667 M 193.219 150.181 C 192.311 151.089, 192.635 152.144, 194.620 154.746 C 197.933 159.090, 196.660 160.506, 193.152 156.380 C 191.292 154.191, 189.966 153.452, 188.712 153.906 C 187.127 154.479, 187.269 154.884, 189.962 157.464 C 195.042 162.331, 193.423 163.909, 188.016 159.360 C 185.565 157.297, 184.619 156.986, 183.690 157.935 C 182.766 158.878, 183.170 159.702, 185.500 161.624 C 189.375 164.821, 192.495 166.610, 191.562 165.100 C 190.033 162.626, 195.597 164.186, 198.565 167.063 L 201.725 170.126 202.766 166.022 C 203.759 162.110, 203.670 161.816, 200.864 159.741 C 198.943 158.321, 197.544 156.075, 196.841 153.282 C 195.702 148.760, 195.130 148.270, 193.219 150.181 M 179.227 162.798 C 177.835 165.748, 178.396 167, 181.109 167 C 183.647 167, 187.460 168.982, 194.720 174.075 C 199.125 177.165, 200.575 177.768, 200.815 176.609 C 201.176 174.865, 195.250 169.091, 193 168.994 C 190.868 168.902, 187.705 166.984, 183.787 163.407 L 180.399 160.315 179.227 162.798 M 225 167.453 C 223.625 168.222, 221.776 169.072, 220.892 169.340 C 220.008 169.609, 219.029 171.104, 218.717 172.664 C 218.405 174.224, 216.991 177.207, 215.575 179.294 C 211.323 185.560, 211.913 187.214, 221.750 196.612 C 230.337 204.816, 232.960 205.691, 229.624 199.239 C 228.674 197.402, 228.091 193.267, 228.028 187.922 C 227.973 183.290, 227.859 178.375, 227.773 177 C 227.688 175.625, 227.969 172.588, 228.397 170.250 C 229.239 165.656, 228.823 165.313, 225 167.453 M 176 169.125 C 176 170.229, 175.493 172.079, 174.874 173.236 C 174.147 174.593, 173.752 182.293, 173.759 194.920 L 173.771 214.500 178.386 217.844 L 183 221.187 183 215.777 C 183 208.632, 181.411 199.839, 178.837 192.739 C 176.593 186.551, 176.635 177.954, 178.921 175.691 C 179.857 174.764, 179.973 175.647, 179.443 179.675 C 178.881 183.944, 179.253 186.221, 181.564 192.675 C 183.927 199.275, 184.431 202.486, 184.782 213.181 L 185.197 225.862 189.225 227.473 C 191.915 228.550, 194.628 228.878, 197.395 228.463 C 201.515 227.846, 201.536 227.821, 201.169 223.970 C 200.908 221.240, 200.091 219.634, 198.397 218.524 C 196.006 216.958, 195.998 216.888, 196.601 203.725 C 196.935 196.451, 197.836 188.281, 198.604 185.568 C 200.267 179.695, 200.309 179, 199 179 C 198.450 179, 198 180.098, 198 181.441 C 198 184.050, 195.880 186.140, 195.226 184.177 C 195.010 183.530, 193.746 183, 192.417 183 C 190.620 183, 190 182.455, 190 180.878 C 190 179.059, 189.775 178.942, 188.424 180.063 C 187.118 181.147, 186.691 181.126, 185.934 179.936 C 185.432 179.146, 185.208 177.988, 185.436 177.363 C 185.689 176.668, 185.102 176.422, 183.925 176.730 C 181.737 177.302, 181.332 175.117, 183.035 171.934 C 183.809 170.489, 183.746 169.998, 182.785 169.994 C 182.078 169.990, 180.262 169.342, 178.750 168.553 C 176.187 167.216, 176 167.255, 176 169.125 M 208.272 195.433 C 203.685 210.005, 204.226 212.735, 211.584 212.150 C 215.539 211.835, 216.374 212.174, 219.604 215.404 C 222.743 218.543, 223.161 219.517, 222.835 222.936 C 222.443 227.044, 222.767 227.070, 226.818 223.250 C 227.546 222.563, 228.561 222, 229.071 222 C 229.582 222, 230 221.056, 230 219.901 C 230 218.747, 230.708 216.311, 231.572 214.489 L 233.145 211.175 228.822 207.218 C 226.445 205.042, 222.416 201.515, 219.869 199.381 C 217.321 197.246, 214.171 193.895, 212.867 191.933 L 210.497 188.366 208.272 195.433 M 552 196 L 552 200 836 200 L 1120 200 1120 196 L 1120 192 836 192 L 552 192 552 196 M 176.947 195 C 176.818 195.771, 176.778 210.155, 176.895 213.250 C 176.953 214.762, 177.450 216, 178 216 C 179.300 216, 179.300 198.011, 178 196 C 177.467 195.175, 176.993 194.725, 176.947 195 M 235.593 214.250 C 234.208 215.488, 232.772 217.787, 232.401 219.361 C 231.787 221.970, 231.922 222.160, 233.938 221.520 C 235.153 221.134, 237.482 221.371, 239.113 222.047 C 241.775 223.149, 242.338 223.031, 244.620 220.888 C 247.144 218.516, 247.172 218.514, 248.699 220.500 C 250.166 222.407, 250.207 222.360, 249.581 219.500 C 248.723 215.577, 244.630 212, 241 212 C 239.411 212, 236.978 213.012, 235.593 214.250 M 207.750 215.080 C 205.748 216.246, 203 221.123, 203 223.509 C 203 224.430, 203.473 224.826, 204.107 224.434 C 204.715 224.058, 206.970 224.330, 209.118 225.039 C 212.734 226.232, 213.200 226.161, 215.426 224.070 C 217.803 221.836, 217.841 221.834, 218.900 223.813 C 220.325 226.476, 217.745 229.557, 213 230.859 C 209.853 231.723, 209.769 231.829, 212.173 231.910 C 213.695 231.961, 216.171 230.885, 217.923 229.411 C 220.405 227.323, 221 226.056, 221 222.863 C 221 216.044, 213.579 211.685, 207.750 215.080 M 233 223.639 C 233 224.196, 234.042 225.630, 235.314 226.826 C 238.510 229.828, 243.182 229.654, 246.694 226.402 L 249.500 223.805 246.615 225.902 C 242.717 228.736, 239.177 228.543, 235.805 225.313 C 234.262 223.835, 233 223.082, 233 223.639 M 227 226.500 C 225.708 227.875, 224.039 229, 223.291 229 C 222.255 229, 222.177 229.462, 222.965 230.934 C 223.534 231.998, 224 234.248, 224 235.934 C 224 238.687, 224.313 239, 227.056 239 C 229.715 239, 230.370 238.417, 232.097 234.514 L 234.081 230.029 231.852 227.014 C 230.627 225.356, 229.562 224, 229.486 224 C 229.411 224, 228.292 225.125, 227 226.500 M 185.421 234.897 C 185.937 240.133, 185.787 241.926, 184.801 242.324 C 183.962 242.662, 183.855 243.141, 184.500 243.674 C 185.050 244.128, 185.644 245.341, 185.821 246.368 C 185.998 247.396, 186.649 248.779, 187.268 249.442 C 188.601 250.869, 192.964 250.262, 193.082 248.633 C 193.127 248.010, 193.356 246.352, 193.590 244.950 C 193.988 242.562, 193.792 242.426, 190.507 242.809 C 188.472 243.047, 187 242.780, 187 242.173 C 187 241.597, 188.436 240.986, 190.191 240.813 C 193.083 240.529, 193.494 240.056, 194.587 235.750 C 195.714 231.309, 195.668 231, 193.864 231 C 192.804 231, 190.317 230.324, 188.338 229.497 L 184.741 227.994 185.421 234.897 M 222.242 244.234 C 222.510 248.168, 223.841 249.259, 227.500 248.544 C 228.600 248.329, 229.725 248.118, 230 248.075 C 230.275 248.033, 230.532 246.311, 230.570 244.249 L 230.640 240.500 226.312 240.473 L 221.985 240.447 222.242 244.234 M 619.183 247.902 C 609.176 251.358, 602.983 260.043, 603.022 270.566 C 603.050 278.212, 605.465 283.479, 611.297 288.613 C 620.226 296.472, 631.570 297.126, 640.750 290.311 L 644 287.898 644 290.949 C 644 293.537, 644.380 294, 646.500 294 L 649 294 649 282 L 649 270 638 270 C 627.667 270, 627 270.121, 627 272 C 627 273.843, 627.667 274, 635.500 274 L 644 274 644 277.813 C 644 284.216, 636.056 290, 627.262 290 C 611.867 290, 602.539 273.994, 610.258 260.823 C 616.613 249.979, 631.003 247.795, 640.597 256.219 C 643.341 258.629, 644.306 258.991, 645.452 258.040 C 646.238 257.388, 646.629 256.196, 646.320 255.392 C 645.492 253.234, 638.104 248.548, 633.384 247.187 C 627.891 245.603, 625.488 245.724, 619.183 247.902 M 772.581 248.014 C 758.446 253.533, 752.438 269.051, 759.481 281.848 C 767.590 296.581, 786.702 299.231, 798.653 287.280 C 802.307 283.627, 802.862 281.545, 800.431 280.612 C 799.423 280.225, 797.920 281.131, 796.223 283.147 C 783.858 297.841, 758.801 287.058, 761.392 268.158 C 763.605 252.008, 783.077 245.544, 795.090 256.971 C 798.941 260.635, 802 261.354, 802 258.596 C 802 256.296, 794.303 249.923, 789.168 247.972 C 782.751 245.534, 778.909 245.543, 772.581 248.014 M 571.651 252.183 C 570.341 255.107, 565.608 265.250, 561.134 274.722 C 556.660 284.194, 553 292.406, 553 292.972 C 553 293.537, 554.026 294, 555.280 294 C 557.090 294, 557.959 292.971, 559.500 289 L 561.440 284 575.639 284 L 589.837 284 592.097 289 C 593.908 293.007, 594.839 294, 596.785 294 C 599.550 294, 599.717 294.773, 594.257 282.269 C 582.654 255.698, 578.445 247.501, 576.237 247.183 C 574.429 246.922, 573.607 247.818, 571.651 252.183 M 661 270.500 L 661 294.050 677.250 293.775 C 692.742 293.513, 693.500 293.407, 693.500 291.500 C 693.500 289.610, 692.741 289.485, 679.750 289.222 L 666 288.944 665.999 281.222 L 665.998 273.500 677.249 273.500 C 688.155 273.500, 688.510 273.431, 688.820 271.250 C 689.135 269.028, 688.996 269, 677.570 269 L 666 269 666 260.528 L 666 252.056 679.750 251.778 C 692.741 251.515, 693.500 251.390, 693.500 249.500 C 693.500 247.593, 692.742 247.487, 677.250 247.225 L 661 246.950 661 270.500 M 705.477 248.200 C 705.192 248.941, 705.081 259.437, 705.230 271.524 C 705.499 293.395, 705.511 293.502, 707.728 293.817 L 709.956 294.133 710.228 274.953 L 710.500 255.773 717.417 264.503 C 721.222 269.305, 725.074 273.969, 725.978 274.867 C 726.881 275.765, 730.719 280.457, 734.506 285.294 C 739.702 291.928, 741.897 294.016, 743.446 293.794 C 745.450 293.507, 745.500 292.939, 745.500 270.500 L 745.500 247.500 743.250 247.180 L 741 246.861 741 266.625 L 741 286.389 738.735 283.319 C 737.489 281.630, 734.382 277.830, 731.830 274.874 C 729.277 271.918, 723.200 264.554, 718.325 258.510 C 709.779 247.914, 706.574 245.342, 705.477 248.200 M 814 270.500 C 814 293.333, 814.057 294, 816 294 C 817.943 294, 818 293.333, 818 270.500 C 818 247.667, 817.943 247, 816 247 C 814.057 247, 814 247.667, 814 270.500 M 844.502 255.250 C 842.380 259.788, 837.574 269.943, 833.822 277.817 C 830.070 285.692, 827 292.554, 827 293.067 C 827 293.580, 828.013 293.999, 829.250 293.999 C 830.987 293.998, 832.005 292.858, 833.715 288.999 L 835.931 284 850.438 284 L 864.944 284 867.095 289 C 868.814 292.994, 869.724 294, 871.623 294 C 872.930 294, 874 293.786, 874 293.523 C 874 293.261, 869.907 284.374, 864.905 273.773 C 859.903 263.173, 855.129 252.813, 854.297 250.750 C 853.188 248.004, 852.191 247, 850.572 247 C 848.780 247, 847.627 248.567, 844.502 255.250 M 904 270.498 L 904 294.236 916.965 293.833 C 929.458 293.443, 930.085 293.319, 934.206 290.423 C 947.678 280.955, 946.840 257.910, 932.736 249.967 C 929.070 247.902, 926.853 247.526, 916.250 247.170 L 904 246.759 904 270.498 M 956 270.500 L 956 294 972 294 L 988 294 988 291.500 L 988 289 974.500 289 L 961 289 961 281.532 L 961 274.063 972.750 273.782 C 983.739 273.518, 984.500 273.371, 984.500 271.500 C 984.500 269.626, 983.741 269.483, 972.500 269.224 L 960.500 268.947 960.823 260.474 L 961.147 252 974.573 252 L 988 252 988 249.500 L 988 247 972 247 L 956 247 956 270.500 M 185 253.896 C 185 255.944, 186.006 257.676, 188.434 259.808 C 192.404 263.293, 196.228 264.815, 196.789 263.133 C 196.997 262.510, 197.917 261.986, 198.833 261.968 C 200.299 261.940, 200.319 261.789, 198.998 260.718 C 198.172 260.048, 196.659 257.909, 195.636 255.964 C 193.974 252.804, 193.415 252.470, 190.388 252.823 C 188.336 253.063, 187 252.781, 187 252.109 C 187 251.499, 186.550 251, 186 251 C 185.450 251, 185 252.303, 185 253.896 M 223 253.846 C 223 257.183, 225.617 261.179, 229.448 263.690 L 232.743 265.850 234.007 263.487 C 235.092 261.459, 234.969 260.613, 233.136 257.505 C 231.961 255.514, 231 253.349, 231 252.693 C 231 251.968, 229.431 251.500, 227 251.500 C 223.470 251.500, 223 251.776, 223 253.846 M 908 270.409 L 908 289 917.550 289 C 924.079 289, 928.016 288.526, 929.998 287.501 C 940.837 281.896, 942.165 262.809, 932.242 255.233 C 928.970 252.735, 927.776 252.471, 918.331 252.159 L 908 251.818 908 270.409 M 847.559 259.112 C 845.998 262.625, 843.233 268.538, 841.415 272.250 L 838.108 279 850.054 279 C 856.624 279, 862 278.822, 862 278.604 C 862 278.386, 859.847 273.548, 857.215 267.854 C 854.584 262.159, 851.973 256.425, 851.414 255.112 C 850.460 252.869, 850.224 253.114, 847.559 259.112 M 575.394 255.140 C 574.826 255.888, 573.092 259.425, 571.541 263 C 569.990 266.575, 567.656 271.525, 566.354 274 L 563.987 278.500 575.628 278.783 C 582.030 278.938, 587.436 278.897, 587.642 278.691 C 587.848 278.486, 585.409 272.796, 582.222 266.049 C 577.829 256.748, 576.178 254.109, 575.394 255.140 M 47 358.818 C 47 431.720, 47.191 442.287, 48.596 447.068 C 50.869 454.803, 55.768 461.006, 62.500 464.676 C 70.184 468.865, 72.383 468.976, 148.128 468.988 C 226.968 469.001, 224.049 468.805, 230.879 474.552 L 234 477.178 234 376.589 L 234 276 140.500 276 L 47 276 47 358.818 M 239 376.674 L 239 477.349 241.250 475.307 C 248.098 469.092, 242.021 469.552, 324.955 468.969 C 382.065 468.567, 401.415 468.129, 404.250 467.172 C 408.168 465.849, 409.302 464, 406.194 464 C 405.201 464, 401.568 463.047, 398.120 461.883 L 391.852 459.766 390.369 461.883 C 389.343 463.349, 387.817 464, 385.410 464 C 382.512 464, 381.597 463.431, 379.917 460.584 C 378.078 457.468, 377.638 457.243, 374.900 458.029 C 372.555 458.701, 370.980 458.397, 367.699 456.637 C 363.412 454.337, 355 446.836, 355 445.314 C 355 443.828, 350.938 436.831, 346.910 431.378 C 344.759 428.467, 343 425.442, 343 424.657 C 343 423.871, 341.313 422.490, 339.250 421.588 C 337.188 420.686, 334.226 419.284, 332.669 418.474 C 331.112 417.663, 329.347 417, 328.748 417 C 328.148 417, 326.834 416.254, 325.826 415.343 C 324.114 413.793, 323.557 413.854, 317.248 416.272 C 313.536 417.695, 308.025 419.611, 305 420.530 C 301.975 421.450, 298.150 422.655, 296.500 423.209 C 286.463 426.580, 279.749 428, 273.844 428 C 267.753 428, 266.952 427.754, 265.016 425.293 C 263.528 423.401, 263.074 421.821, 263.510 420.043 C 264.203 417.214, 271.359 405.777, 273.601 403.917 C 274.391 403.261, 275.794 401.099, 276.719 399.112 C 277.645 397.126, 282.604 391.225, 287.740 386 L 297.079 376.500 293.539 373.500 C 291.593 371.850, 289.966 369.825, 289.924 369 C 289.803 366.612, 287.160 374.212, 287.076 377.191 C 287.034 378.671, 286.505 380.188, 285.899 380.562 C 285.285 380.942, 285.045 382.476, 285.357 384.034 C 285.802 386.262, 285.403 387.161, 283.377 388.488 C 280.911 390.105, 280.572 390.016, 271.353 385.348 C 266.135 382.705, 261.426 380.013, 260.888 379.365 C 260.206 378.543, 260.864 377.294, 263.059 375.243 C 265.981 372.512, 266.228 371.758, 266.483 364.811 C 266.633 360.693, 267.266 356.372, 267.888 355.209 C 269.277 352.614, 278.584 347.797, 281.425 348.203 C 283.021 348.432, 283.624 349.430, 284.038 352.528 C 284.883 358.856, 289 363.369, 289 357.967 C 289 355.658, 285.006 345.914, 283.173 343.750 C 282.256 342.667, 280.283 342, 278 342 C 275.553 342, 273.687 341.311, 272.460 339.955 C 270.818 338.141, 270.744 337.407, 271.805 333.441 C 273.580 326.804, 273.351 325.690, 269.227 320.891 C 262.553 313.123, 259.870 309.026, 257.313 302.696 C 254.472 295.660, 252.456 293, 249.967 293 C 247.165 293, 245.815 290.505, 246.536 286.661 C 246.919 284.619, 246.653 281.681, 245.894 279.585 C 244.828 276.634, 244.103 276, 241.799 276 L 239 276 239 376.674 M 249 277.441 C 249 278.234, 249.502 279.192, 250.115 279.571 C 250.792 279.990, 251.037 281.979, 250.738 284.630 C 250.467 287.034, 250.606 289, 251.046 289 C 253.295 289, 258.021 294.639, 260.045 299.737 C 262.433 305.753, 267.009 312.797, 272.798 319.366 C 276.132 323.150, 276.197 323.394, 275.852 330.866 L 275.500 338.500 278.815 338.177 C 280.638 338, 283.162 338.531, 284.425 339.359 C 287.472 341.355, 292.925 355.219, 292.740 360.500 C 292.567 365.478, 293.694 370, 295.109 370 C 295.698 370, 296.972 370.979, 297.941 372.176 L 299.703 374.351 306.601 369.804 C 310.396 367.304, 316.367 363.737, 319.871 361.879 C 325.427 358.932, 326.875 357.514, 331.189 350.794 C 336.363 342.735, 341.451 337.539, 345.784 335.892 C 349.507 334.477, 350.778 336.375, 351.216 344 L 351.588 350.500 359.787 350.790 C 370.133 351.157, 375.646 349.714, 378.950 345.775 C 380.352 344.102, 383.139 340.990, 385.141 338.858 L 388.782 334.982 385.494 331.694 C 382.069 328.269, 380.015 322.843, 380.006 317.193 C 379.997 312.209, 381.987 305.321, 383.949 303.546 C 385.543 302.103, 385.917 302.147, 388.346 304.057 C 389.806 305.206, 391 306.758, 391 307.506 C 391 308.255, 393.241 311.660, 395.981 315.074 C 398.721 318.487, 401.237 322.744, 401.572 324.534 C 401.908 326.323, 402.029 332.685, 401.841 338.672 C 401.532 348.531, 401.199 350.166, 398.304 356.028 C 396.546 359.588, 392.874 365.002, 390.143 368.061 C 386.053 372.641, 385.442 373.789, 386.678 374.568 C 387.904 375.342, 387.964 375.985, 387.006 378.088 C 384.901 382.708, 377.010 386.739, 364.846 389.408 C 363.387 389.728, 359.807 391.876, 356.890 394.181 C 351.290 398.608, 336.120 407.879, 331.022 409.991 C 327.374 411.502, 327.089 413, 330.450 413 C 331.798 413, 333.260 413.601, 333.700 414.335 C 334.361 415.437, 340.434 417.890, 346.872 419.655 C 347.815 419.913, 348.062 420.938, 347.663 422.937 C 347.177 425.365, 347.733 426.514, 351.041 429.923 C 353.508 432.465, 355 434.944, 355 436.501 C 355 437.876, 355.420 439, 355.933 439 C 356.446 439, 357.181 439.996, 357.568 441.214 C 358.446 443.980, 365.571 451.187, 369.422 453.205 C 371.579 454.335, 373.298 454.496, 376.219 453.840 C 380.919 452.783, 381.571 453.106, 382.321 456.853 C 382.639 458.445, 383.574 460.006, 384.399 460.323 C 385.311 460.673, 385.722 460.429, 385.447 459.699 C 384.802 457.984, 388.823 451.778, 390.280 452.241 C 390.951 452.455, 391.921 453.559, 392.436 454.696 C 393.119 456.203, 395.279 457.223, 400.422 458.464 C 404.299 459.400, 408.710 460.897, 410.223 461.791 C 412.915 463.381, 413.055 463.341, 416.613 459.958 C 418.614 458.056, 421.432 454.025, 422.875 451 L 425.500 445.500 425.787 360.750 L 426.075 276 337.537 276 C 261.116 276, 249 276.197, 249 277.441 M 136.500 302.683 C 126.842 305.394, 124.712 305.610, 118.485 304.509 C 115.186 303.926, 112.825 304.442, 105.256 307.400 C 100.189 309.380, 95.004 311, 93.733 311 C 89.973 311, 82.683 315.249, 80.307 318.825 C 79.092 320.654, 77.377 324.704, 76.496 327.825 C 75.615 330.946, 72.523 337.100, 69.625 341.500 C 66.728 345.900, 63.489 350.850, 62.429 352.500 C 60.782 355.061, 60.513 357.255, 60.589 367.500 C 60.671 378.597, 60.958 380.328, 64.405 390.500 C 69.459 405.415, 75.952 418.475, 81.308 424.500 L 85.753 429.500 94.627 429.500 C 107.255 429.500, 114.853 432.450, 119.864 439.298 C 121.864 442.031, 125.573 446.457, 128.107 449.134 C 132.292 453.554, 133.127 454, 137.222 454 C 140.239 454, 142.584 453.328, 144.312 451.969 C 148.127 448.968, 159.931 431.596, 162.917 424.589 C 164.343 421.240, 166.917 416.025, 168.636 413 C 170.356 409.975, 172.323 405.700, 173.008 403.500 C 174.591 398.415, 176.474 396.275, 180.057 395.488 C 187.227 393.913, 192.153 385.854, 192.372 375.341 C 192.475 370.393, 192.057 368.581, 190.250 366.131 C 187.395 362.260, 187.307 356.326, 190.001 349.239 C 191.100 346.346, 192 342.743, 192 341.232 L 192 338.485 199.804 338.370 C 208.190 338.246, 212.365 336.769, 217.250 332.199 C 218.762 330.784, 220 328.855, 220 327.913 C 220 326.971, 217.412 323.832, 214.250 320.937 C 205.471 312.900, 191.391 307.039, 180.800 307.012 C 177.962 307.005, 172.267 305.613, 166.430 303.500 C 154.702 299.254, 149.242 299.105, 136.500 302.683 M 1405.119 307.521 C 1399.409 311.595, 1394.532 315.134, 1394.281 315.386 C 1393.923 315.744, 1398.098 323.883, 1399.687 325.926 C 1400.034 326.372, 1422.871 316.183, 1424.352 314.922 C 1425.237 314.168, 1417.449 299.957, 1416.206 300.057 C 1415.818 300.088, 1410.829 303.447, 1405.119 307.521 M 141.500 308.069 C 128.614 310.866, 126.825 311.458, 125.872 313.239 C 125.040 314.794, 125.509 315.744, 128.503 318.567 C 132.844 322.662, 132.754 325.129, 128.216 326.466 C 125.246 327.340, 124.996 327.706, 125.574 330.338 C 126.210 333.231, 126.195 333.241, 122.356 332.583 C 111.827 330.781, 111.583 330.792, 108.007 333.209 C 106.086 334.508, 104.368 336.330, 104.189 337.258 C 103.509 340.786, 115.590 345.090, 117.500 342 C 118.465 340.439, 121.719 340.826, 122.393 342.582 C 122.727 343.452, 123.003 346.039, 123.007 348.332 C 123.010 350.624, 123.798 353.680, 124.757 355.123 C 126.597 357.892, 139.667 369, 141.085 369 C 141.542 369, 143.831 367.178, 146.173 364.950 C 148.514 362.723, 152.920 359.461, 155.965 357.700 C 161.043 354.764, 162.408 354.459, 172.499 354 L 183.498 353.500 184.710 349.791 C 185.377 347.750, 186.142 342.800, 186.411 338.791 C 186.680 334.781, 187.196 330.283, 187.558 328.795 C 188.034 326.839, 187.632 325.347, 186.108 323.410 C 184.949 321.936, 184 319.941, 184 318.976 C 184 315.389, 180.495 313.281, 169.313 310.141 C 157.770 306.900, 149.667 306.296, 141.500 308.069 M 108.083 316.444 C 99.552 322.185, 93.085 331.304, 93.028 337.670 L 93 340.840 98.750 335.106 C 104.954 328.919, 113.483 324.147, 119.866 323.291 C 123.687 322.779, 123.817 322.643, 122.908 320.128 C 119.831 311.611, 116.496 310.782, 108.083 316.444 M 187.905 315.250 C 188.863 317.769, 189 318.409, 189 320.357 C 189 321.325, 190.508 321.721, 194.250 321.739 C 198.798 321.759, 202.263 322.729, 211.430 326.548 C 213.276 327.317, 213.287 327.248, 211.693 324.972 C 209.123 321.303, 202.325 317.181, 195.227 314.988 C 187.145 312.492, 186.860 312.502, 187.905 315.250 M 159.938 316.281 C 157.779 319.350, 155.568 331.968, 156.948 333.348 C 157.527 333.927, 158 335.111, 158 335.980 C 158 336.849, 159.500 338.975, 161.334 340.704 C 163.167 342.434, 165.088 345.317, 165.603 347.111 C 166.358 349.742, 167.127 350.440, 169.583 350.721 C 173.589 351.178, 176.989 347.814, 175.283 345.081 C 174.400 343.668, 174.500 342.928, 175.741 341.687 C 176.954 340.475, 177.059 339.776, 176.188 338.726 C 175.330 337.693, 175.351 337.045, 176.274 336.109 C 177.244 335.125, 177.104 334.573, 175.602 333.464 C 174.065 332.330, 173.937 331.781, 174.928 330.587 C 175.923 329.388, 175.773 328.875, 174.127 327.847 C 172.534 326.852, 172.349 326.284, 173.263 325.183 C 174.169 324.091, 174.035 323.499, 172.652 322.488 C 171.531 321.668, 171.270 320.951, 171.940 320.537 C 173.658 319.475, 173.177 318.631, 169.502 316.250 C 165.135 313.421, 161.944 313.432, 159.938 316.281 M 132.513 325.979 C 131.424 327.742, 133.920 330.823, 136.980 331.496 C 140.487 332.266, 142.001 334, 139.166 334 C 135.315 334, 135.605 337.282, 139.787 341.014 C 143.362 344.204, 143.601 344.715, 142.376 346.560 C 141.219 348.303, 141.271 348.942, 142.746 351.046 C 143.692 352.396, 144.336 354.270, 144.177 355.211 C 143.791 357.496, 145.853 361.216, 147.248 360.751 C 148.621 360.293, 149.257 351.277, 147.972 350.483 C 147.420 350.142, 147.513 349.152, 148.200 348.052 C 149.119 346.579, 149.006 345.658, 147.650 343.588 C 146.710 342.154, 145.101 340.456, 144.076 339.815 C 142.269 338.687, 142.274 338.599, 144.232 337.013 C 147.278 334.547, 145.723 331.208, 140.442 328.871 C 138.045 327.811, 135.813 326.506, 135.482 325.972 C 134.711 324.723, 133.287 324.727, 132.513 325.979 M 192.404 326.765 C 191.801 327.169, 191.019 328.682, 190.666 330.127 C 190.095 332.462, 190.370 332.824, 193.137 333.377 C 200.212 334.792, 209.928 333.310, 208.519 331.030 C 208.188 330.495, 205.854 329.144, 203.331 328.028 C 198.639 325.953, 194.355 325.458, 192.404 326.765 M 855.324 328.439 C 845.035 331.657, 839 338.662, 839 347.388 C 839 353.135, 840.686 356.587, 845.685 361.075 C 849.639 364.625, 852.404 366.012, 864.897 370.715 C 872.993 373.763, 875.203 375.846, 873.070 378.416 C 872.202 379.461, 870.112 380, 866.925 380 C 861.239 380, 857.270 378.427, 856.452 375.848 C 855.939 374.231, 854.741 374, 846.887 374 L 837.909 374 838.567 377.750 C 839.558 383.394, 842.081 387.165, 847.155 390.585 C 858.167 398.007, 878.721 397.396, 887.583 389.383 C 891.773 385.594, 893.208 382.210, 893.266 375.976 C 893.315 370.836, 892.877 369.284, 890.373 365.710 C 886.884 360.733, 878.674 355.523, 871 353.418 C 863.282 351.301, 859.044 349.277, 858.307 347.357 C 856.664 343.076, 867.574 341.304, 872.365 345.073 C 873.814 346.212, 875 347.787, 875 348.573 C 875 349.703, 876.870 350, 884 350 C 892.673 350, 892.999 349.918, 892.978 347.750 C 892.940 343.886, 889.482 337.653, 885.268 333.853 C 878.424 327.683, 865.320 325.314, 855.324 328.439 M 990.500 327.646 C 980.920 330.188, 970.803 338.629, 966.268 347.864 C 963.944 352.595, 963.500 354.784, 963.500 361.500 C 963.500 368.250, 963.940 370.397, 966.318 375.239 C 969.907 382.548, 976.257 388.898, 983.675 392.596 C 988.731 395.117, 990.622 395.500, 998 395.500 C 1005.215 395.500, 1007.407 395.077, 1012.500 392.699 C 1020.294 389.061, 1026.521 382.981, 1030.116 375.500 C 1032.539 370.457, 1032.999 368.247, 1032.999 361.643 C 1033 354.986, 1032.545 352.832, 1030.017 347.536 C 1024.335 335.631, 1012.665 327.915, 999.555 327.395 C 995.675 327.241, 991.600 327.354, 990.500 327.646 M 1294.286 328.390 C 1283.888 331.789, 1275.723 339.029, 1271.177 348.880 C 1259.546 374.085, 1286.987 403.161, 1313.826 394.070 C 1317.306 392.892, 1321.890 390.777, 1324.014 389.372 C 1327.733 386.911, 1335 378.595, 1335 376.800 C 1335 376.321, 1332.862 375.029, 1330.250 373.930 C 1327.638 372.830, 1324.210 371.323, 1322.634 370.581 C 1319.905 369.296, 1319.592 369.408, 1316.065 372.935 C 1311.303 377.697, 1304.724 379.724, 1299.561 378.020 C 1285.026 373.223, 1282.385 355.722, 1294.922 347.274 C 1297.394 345.608, 1299.735 345, 1303.683 345 C 1309.524 345, 1312.910 346.557, 1317 351.123 L 1319.500 353.914 1326.944 350.429 C 1331.039 348.513, 1334.575 346.758, 1334.803 346.530 C 1335.431 345.903, 1331.025 339.876, 1327.562 336.624 C 1319.518 329.068, 1303.977 325.223, 1294.286 328.390 M 1398.500 328.849 C 1392.256 330.982, 1384.800 336.050, 1381.686 340.277 C 1374.757 349.682, 1372.951 362.546, 1377.023 373.500 C 1379.939 381.348, 1383.007 385.320, 1389.460 389.605 C 1401.958 397.903, 1417.042 397.903, 1429.540 389.605 C 1438.359 383.749, 1443.495 375.128, 1444.629 364.274 C 1447.107 340.566, 1421.580 320.962, 1398.500 328.849 M 1689.500 328.342 C 1678.688 331.933, 1670.360 338.953, 1666.180 348 C 1662.484 355.999, 1662.521 367.301, 1666.270 375 C 1669.157 380.929, 1673.688 386.370, 1678.540 389.731 C 1682.714 392.622, 1693.114 396, 1697.843 396 C 1702.409 396, 1709.629 393.646, 1712.200 391.319 C 1713.880 389.798, 1714 389.833, 1714 391.845 C 1714 393.861, 1714.486 394, 1721.522 394 L 1729.043 394 1728.772 374.750 L 1728.500 355.500 1712 355.500 L 1695.500 355.500 1695.500 362.500 L 1695.500 369.500 1703.250 369.792 C 1711.985 370.121, 1713.107 371.364, 1707.971 375.020 C 1701.396 379.703, 1694.634 379.623, 1687.735 374.782 C 1681.355 370.306, 1679.439 358.398, 1684.083 352.085 C 1687.287 347.731, 1692.853 345, 1698.526 345 C 1703.451 345, 1706.170 346.039, 1709.733 349.283 L 1711.966 351.316 1718.983 346.650 C 1722.842 344.084, 1726 341.590, 1726 341.108 C 1726 339.336, 1717.577 332.696, 1712.214 330.240 C 1705.609 327.217, 1695.445 326.367, 1689.500 328.342 M 553 336.985 L 553 346 563 346 L 573 346 573 370 L 573 394 582 394 L 591 394 591 370 L 591 346 601.039 346 L 611.078 346 610.789 337.250 L 610.500 328.500 581.750 328.235 L 553 327.969 553 336.985 M 621.998 361.146 L 621.995 394.500 630.498 394.177 L 639 393.853 639 385.427 L 639 377 642.932 377 C 646.716 377, 647.093 377.318, 652.952 385.434 L 659.041 393.868 669.108 394.184 C 674.645 394.358, 679.351 394.322, 679.567 394.104 C 679.782 393.886, 678.569 391.861, 676.871 389.604 C 675.172 387.347, 672.228 383.114, 670.328 380.198 L 666.872 374.897 670.512 371.198 C 676.338 365.280, 678.222 360.709, 678.222 352.500 C 678.222 344.334, 676.254 339.486, 670.838 334.311 C 665.457 329.171, 663.157 328.690, 641.750 328.222 L 622 327.791 621.998 361.146 M 712.549 328.921 C 711.798 330.135, 686 392.916, 686 393.528 C 686 393.787, 690.291 394, 695.536 394 L 705.071 394 707.013 389.470 L 708.955 384.940 721.572 385.220 L 734.189 385.500 735.502 389.324 C 736.225 391.428, 737.025 393.358, 737.280 393.614 C 737.536 393.869, 741.825 393.948, 746.811 393.789 L 755.877 393.500 752.040 383.500 C 749.930 378, 746.962 370.125, 745.446 366 C 743.929 361.875, 741.672 356.250, 740.431 353.500 C 739.190 350.750, 736.830 345.125, 735.188 341 C 729.513 326.744, 730.845 328, 721.399 328 C 716.844 328, 712.862 328.415, 712.549 328.921 M 765.667 328.667 C 765.300 329.033, 765 343.883, 765 361.667 L 765 394 774.476 394 L 783.953 394 784.226 377.078 L 784.500 360.155 798 377.066 L 811.500 393.976 819.264 393.988 L 827.027 394 826.764 361.250 L 826.500 328.500 818 328.500 L 809.500 328.500 809.226 345.733 L 808.953 362.966 801.183 353.733 C 796.909 348.655, 790.757 341.125, 787.510 337 C 784.263 332.875, 781.133 329.169, 780.554 328.765 C 779.235 327.846, 766.571 327.762, 765.667 328.667 M 905.684 328.649 C 905.308 329.026, 905 343.850, 905 361.593 L 905 393.853 913.502 394.177 L 922.005 394.500 922.002 383.250 L 922 372 935.500 372 L 949 372 949 364 L 949 356 935.500 356 L 922 356 922 351.025 L 922 346.050 938.250 345.775 L 954.500 345.500 954.500 337 L 954.500 328.500 930.434 328.233 C 917.198 328.086, 906.060 328.273, 905.684 328.649 M 1045.750 328.571 C 1045.338 328.990, 1045 343.850, 1045 361.593 L 1045 393.853 1053.502 394.177 L 1062.005 394.500 1062.002 385.750 L 1062 377 1065.941 377 C 1069.761 377, 1070.058 377.258, 1075.691 385.475 L 1081.500 393.949 1092.319 393.975 L 1103.138 394 1097.413 385.750 C 1094.265 381.212, 1091.099 376.856, 1090.378 376.069 C 1089.276 374.866, 1089.613 374.268, 1092.499 372.307 C 1097.411 368.969, 1101.085 362.162, 1101.706 355.250 C 1102.690 344.299, 1098.058 335.187, 1089.361 330.965 C 1084.890 328.795, 1082.974 328.573, 1065.500 328.207 C 1055.050 327.988, 1046.162 328.152, 1045.750 328.571 M 1114.667 328.667 C 1113.959 329.374, 1113.710 393.374, 1114.412 394.083 C 1114.639 394.313, 1118.689 394.354, 1123.412 394.177 L 1132 393.853 1132.023 379.677 L 1132.046 365.500 1137.023 375.810 C 1139.760 381.480, 1142.014 386.655, 1142.032 387.310 C 1142.118 390.524, 1144.755 392, 1150.414 392 L 1156.107 392 1162.483 378.750 L 1168.860 365.500 1168.930 379.677 L 1169 393.853 1177.630 394.177 C 1182.816 394.371, 1186.413 394.097, 1186.644 393.491 C 1186.856 392.937, 1186.910 378.087, 1186.764 360.491 L 1186.500 328.500 1177.726 328.211 L 1168.952 327.921 1166.097 334.211 C 1164.527 337.670, 1161.536 344.100, 1159.451 348.500 C 1157.365 352.900, 1154.416 359.193, 1152.898 362.485 L 1150.136 368.470 1146.568 360.850 C 1144.606 356.659, 1143 352.995, 1143 352.708 C 1143 352.420, 1140.975 347.851, 1138.500 342.554 C 1136.025 337.257, 1134 332.523, 1134 332.033 C 1134 329.254, 1130.611 328, 1123.095 328 C 1118.826 328, 1115.033 328.300, 1114.667 328.667 M 1222.200 329.200 C 1221.540 329.860, 1221 330.973, 1221 331.674 C 1221 333.025, 1216.190 345.498, 1212.793 352.955 C 1209.570 360.029, 1196.847 391.377, 1196.665 392.691 C 1196.471 394.094, 1195.743 394, 1206.793 394 L 1215.587 394 1217.135 389.750 L 1218.683 385.500 1231.124 385.222 L 1243.566 384.943 1245.122 389.222 L 1246.678 393.500 1256.341 394 C 1262.454 394.316, 1266 394.133, 1265.993 393.500 C 1265.986 392.950, 1261.906 382.600, 1256.927 370.500 C 1251.947 358.400, 1246.256 344.450, 1244.280 339.500 C 1242.304 334.550, 1240.253 329.938, 1239.721 329.250 C 1238.438 327.589, 1223.852 327.548, 1222.200 329.200 M 1345.667 328.667 C 1344.959 329.374, 1344.710 393.374, 1345.412 394.083 C 1345.639 394.313, 1349.689 394.354, 1354.412 394.177 L 1363 393.853 1363 360.927 L 1363 328 1354.667 328 C 1350.083 328, 1346.033 328.300, 1345.667 328.667 M 1456.667 328.667 C 1455.959 329.374, 1455.710 393.374, 1456.412 394.083 C 1456.639 394.313, 1460.678 394.355, 1465.389 394.177 L 1473.953 393.854 1474.227 376.951 L 1474.500 360.048 1488 376.996 L 1501.500 393.944 1509.250 393.972 L 1517 394 1517 360.961 L 1517 327.922 1508.250 328.211 L 1499.500 328.500 1499.226 345.763 L 1498.953 363.026 1492.904 355.763 C 1489.577 351.768, 1486.100 347.590, 1485.178 346.477 C 1484.255 345.365, 1480.823 341.090, 1477.552 336.977 C 1474.280 332.865, 1471.130 329.169, 1470.552 328.765 C 1469.235 327.846, 1457.570 327.763, 1456.667 328.667 M 1560.750 328.563 C 1560.338 328.987, 1560 343.883, 1560 361.667 L 1560 394 1580.250 393.990 C 1599.390 393.981, 1600.776 393.852, 1605.541 391.633 C 1611.196 389, 1614.851 385.127, 1618.778 377.607 C 1621.166 373.034, 1621.448 371.402, 1621.473 362 C 1621.497 352.751, 1621.191 350.845, 1618.910 346 C 1615.270 338.272, 1611.785 334.531, 1605.240 331.329 C 1599.763 328.649, 1598.934 328.543, 1580.536 328.175 C 1570.066 327.965, 1561.162 328.140, 1560.750 328.563 M 1634.704 328.630 C 1634.317 329.017, 1634 343.850, 1634 361.593 L 1634 393.853 1642.630 394.177 C 1647.816 394.371, 1651.413 394.097, 1651.644 393.491 C 1651.856 392.937, 1651.910 378.087, 1651.764 360.491 L 1651.500 328.500 1643.454 328.213 C 1639.028 328.055, 1635.091 328.242, 1634.704 328.630 M 1741.704 328.630 C 1741.317 329.017, 1741 343.883, 1741 361.667 L 1741 394 1750.014 394 L 1759.027 394 1758.764 361.250 L 1758.500 328.500 1750.454 328.213 C 1746.028 328.055, 1742.091 328.242, 1741.704 328.630 M 1770 336.985 L 1770 346 1779.750 345.999 L 1789.500 345.998 1789.215 369.999 L 1788.931 394 1797.965 394 L 1807 394 1807 370 L 1807 346 1817.539 346 L 1828.078 346 1827.789 337.250 L 1827.500 328.500 1798.750 328.235 L 1770 327.969 1770 336.985 M 1850.428 328.765 C 1849.838 329.169, 1847.274 334.675, 1844.730 341 C 1842.186 347.325, 1836.304 361.725, 1831.658 373 C 1827.013 384.275, 1823.285 393.583, 1823.374 393.685 C 1823.463 393.786, 1827.803 393.965, 1833.018 394.081 L 1842.500 394.293 1844.132 389.896 L 1845.764 385.500 1858.289 385.221 L 1870.814 384.942 1872.238 389.221 L 1873.662 393.500 1883.331 393.786 C 1888.649 393.944, 1893 393.795, 1893 393.456 C 1893 392.536, 1880.320 360.763, 1877.118 353.661 C 1875.591 350.272, 1872.842 343.675, 1871.010 339 C 1869.177 334.325, 1867.245 329.938, 1866.717 329.250 C 1865.667 327.885, 1852.293 327.487, 1850.428 328.765 M 1903.704 328.630 C 1903.317 329.017, 1903 343.883, 1903 361.667 L 1903 394 1927.500 394 L 1952 394 1952 385.500 L 1952 377 1936.518 377 L 1921.036 377 1920.768 352.750 L 1920.500 328.500 1912.454 328.213 C 1908.028 328.055, 1904.091 328.242, 1903.704 328.630 M 1979 328.931 C 1979 329.482, 1980.688 332.593, 1982.750 335.845 C 1989.018 345.728, 1994.240 353.893, 1999.733 362.398 L 2004.966 370.500 2004.981 382.500 L 2004.995 394.500 2013.498 394.177 L 2022 393.853 2022 381.661 L 2022 369.469 2029.811 357.484 C 2044.062 335.621, 2047.790 329.507, 2047.334 328.750 C 2046.751 327.783, 2028.837 327.797, 2027.443 328.765 C 2026.861 329.169, 2023.486 334.327, 2019.943 340.228 C 2016.399 346.128, 2013.234 350.965, 2012.909 350.978 C 2012.584 350.990, 2011.088 348.740, 2009.585 345.979 C 2008.082 343.217, 2005.149 338.154, 2003.067 334.729 L 1999.283 328.500 1989.141 328.215 C 1982.849 328.038, 1979 328.310, 1979 328.931 M 128.952 342.838 C 126.734 344.634, 126.975 347.508, 129.279 346.740 C 129.882 346.539, 131.191 347.191, 132.188 348.188 C 135.915 351.915, 142.343 349.379, 140.046 345.087 C 137.782 340.857, 132.677 339.822, 128.952 342.838 M 393.404 348.827 C 382.387 358.734, 369.714 367.485, 355.500 375 C 350 377.908, 339.650 383.442, 332.500 387.298 C 325.350 391.153, 313.425 397.296, 306 400.947 C 283.056 412.230, 268.383 421.193, 269.609 423.176 C 270.380 424.424, 275.777 424.141, 282.800 422.485 C 289.828 420.828, 294.417 418.756, 297.699 415.757 C 299.198 414.387, 300.472 413.997, 301.699 414.531 C 302.690 414.963, 304.175 415.210, 305 415.081 C 307.944 414.621, 324.597 407.721, 330 404.722 C 335.340 401.758, 354 389.997, 354 389.594 C 354 389.485, 351.637 389.651, 348.750 389.965 C 345.863 390.279, 342.171 390.301, 340.547 390.016 C 337.705 389.516, 337.930 389.267, 346.547 383.378 C 351.471 380.012, 358.272 375.865, 361.659 374.161 C 365.047 372.457, 372.422 367.336, 378.050 362.782 C 391.024 352.281, 391.945 351.611, 392.566 352.232 C 392.847 352.514, 388.110 357.363, 382.039 363.009 C 375.967 368.655, 371 373.662, 371 374.137 C 371 375.957, 374.192 374.858, 379.056 371.364 C 384.681 367.323, 395.021 354.369, 396.836 349.088 C 397.481 347.211, 397.892 345.558, 397.749 345.415 C 397.605 345.272, 395.650 346.807, 393.404 348.827 M 639.208 352.750 L 639.500 360.500 646.479 360.801 C 650.318 360.966, 654.492 360.842, 655.755 360.525 C 661.686 359.037, 663.788 352.543, 659.927 347.635 C 657.949 345.120, 657.424 345, 648.385 345 L 638.916 345 639.208 352.750 M 989.395 346.901 C 985.491 349.282, 981.954 354.924, 981.297 359.819 C 980.691 364.341, 983.957 372.035, 987.751 375.019 C 993.883 379.843, 1002.800 379.564, 1008.990 374.355 C 1013.310 370.720, 1015 366.934, 1015 360.894 C 1015 355.016, 1012.175 350.297, 1006.634 346.919 C 1002.411 344.344, 993.604 344.334, 989.395 346.901 M 1062.208 352.750 L 1062.500 360.500 1069.579 360.790 C 1077.800 361.128, 1081.244 360.083, 1083.558 356.552 C 1085.507 353.578, 1084.898 349.898, 1081.975 346.975 C 1080.300 345.300, 1078.628 345, 1070.958 345 L 1061.916 345 1062.208 352.750 M 1400.389 346.905 C 1387.871 354.538, 1390.100 372.883, 1404.111 377.537 C 1408.438 378.974, 1409.809 379.033, 1413.676 377.951 C 1419.634 376.283, 1424.495 371.588, 1425.982 366.066 C 1429.100 354.487, 1421.569 344.996, 1409.270 345.004 C 1405.369 345.006, 1402.492 345.622, 1400.389 346.905 M 1578 361.403 L 1578 377 1587.015 377 C 1595.808 377, 1596.114 376.920, 1599.492 373.750 C 1606.195 367.460, 1606.655 356.869, 1600.518 350.169 L 1597.156 346.500 1587.578 346.153 L 1578 345.807 1578 361.403 M 276.500 353.217 C 275.400 353.821, 273.852 354.614, 273.060 354.979 C 271.011 355.923, 268.936 365.765, 270.200 368.540 C 270.934 370.151, 270.770 371.545, 269.572 373.861 C 268.679 375.588, 267.510 377, 266.974 377 C 265.335 377, 265.892 378.727, 267.750 379.409 C 268.712 379.762, 271.525 381.138, 274 382.466 C 276.475 383.795, 278.964 384.909, 279.532 384.941 C 280.099 384.973, 281.145 382.863, 281.857 380.250 C 282.568 377.637, 283.566 374.466, 284.075 373.203 C 285.781 368.966, 285.139 363.576, 282.500 360 C 281.125 358.136, 280 355.574, 280 354.306 C 280 351.760, 279.458 351.591, 276.500 353.217 M 118 353.632 C 118 356.594, 132.281 371.632, 137.500 374.167 C 138.600 374.701, 137.025 372.976, 134 370.333 C 126.648 363.912, 122.143 359.083, 120.393 355.750 C 119.025 353.146, 118 352.238, 118 353.632 M 720.683 353.704 C 720.082 354.677, 715 368.014, 715 368.619 C 715 368.829, 717.915 369, 721.479 369 L 727.958 369 725.328 361.750 C 722.513 353.991, 721.544 352.311, 720.683 353.704 M 1227.616 360.057 C 1226.177 363.939, 1225 367.539, 1225 368.057 C 1225 368.576, 1227.700 369, 1231 369 C 1234.300 369, 1237 368.699, 1237 368.331 C 1237 366.811, 1231.496 353, 1230.890 353 C 1230.528 353, 1229.055 356.176, 1227.616 360.057 M 1854.629 360.250 C 1853.178 364.238, 1851.993 367.837, 1851.995 368.250 C 1851.998 368.663, 1854.700 369, 1858 369 C 1861.300 369, 1864.002 368.663, 1864.005 368.250 C 1864.016 366.559, 1858.677 353, 1858 353 C 1857.597 353, 1856.080 356.262, 1854.629 360.250 M 108.025 356.215 C 108.011 357.158, 108.895 358.409, 109.990 358.994 C 111.084 359.580, 112.687 361.427, 113.551 363.099 C 115.057 366.011, 114.991 366.422, 111.992 372.820 C 107.241 382.955, 107.952 388.482, 114.561 392.781 C 119.098 395.733, 121.992 400.555, 121.996 405.173 C 121.999 407.800, 122.959 410.104, 125.368 413.260 C 127.221 415.687, 129.303 419.434, 129.995 421.586 C 130.687 423.739, 131.900 426.243, 132.692 427.151 C 134.730 429.490, 140.107 430.254, 145.309 428.944 C 152.325 427.177, 156.578 422.910, 161.576 412.625 C 167.856 399.703, 167.411 397, 159.004 397 C 155.470 397, 153.146 396.197, 148.954 393.526 C 145.954 391.615, 142.347 390.040, 140.939 390.026 C 137.402 389.990, 134 386.557, 134 383.024 C 134 380.687, 132.619 378.907, 126.852 373.813 C 122.920 370.341, 118.758 366.398, 117.602 365.052 C 110.747 357.068, 108.049 354.578, 108.025 356.215 M 161.173 362.905 C 158.090 363.970, 154.160 366.378, 151.844 368.622 C 146.282 374.011, 145.577 375.557, 147.455 378.240 C 149.207 380.740, 149.495 384.576, 148 385.500 C 146.527 386.411, 146.782 387.703, 148.572 388.389 C 149.472 388.735, 151.557 387.914, 153.453 386.468 C 158.435 382.668, 166.304 381.352, 175.729 382.742 C 184.545 384.042, 185.424 383.589, 186.637 377.122 C 187.161 374.328, 186.694 372.433, 184.400 368.046 C 182.805 364.995, 181.050 362.169, 180.500 361.765 C 178.579 360.354, 166.496 361.067, 161.173 362.905 M 329 376.851 C 311.990 385.336, 304.579 389.844, 298.500 395.403 L 294.500 399.061 300 395.694 C 303.025 393.842, 309.590 390.259, 314.590 387.732 C 326.923 381.498, 345 370.575, 345 369.358 C 345 368.844, 345.854 368.444, 329 376.851 M 158.289 372.690 C 157.932 373.620, 158.146 374.549, 158.764 374.755 C 159.382 374.961, 159.667 375.703, 159.398 376.404 C 159.129 377.106, 159.656 378.300, 160.569 379.057 C 162.013 380.255, 162.475 380.131, 164.115 378.107 C 166.406 375.276, 166.445 374.588, 164.429 372.571 C 162.361 370.504, 159.104 370.567, 158.289 372.690 M 177.571 372.571 C 175.729 374.414, 175.629 375.438, 177.035 378.066 C 178.023 379.911, 181.910 380.823, 182.082 379.250 C 182.127 378.837, 182.377 377.192, 182.637 375.593 C 183.319 371.406, 180.449 369.694, 177.571 372.571 M 159.500 386.899 L 155.500 388.746 158.500 389.597 C 165.558 391.598, 179 389.954, 179 387.090 C 179 384.535, 164.920 384.397, 159.500 386.899 M 126.213 387.188 C 124.016 389.384, 124.886 395.388, 128.418 402.409 C 131.821 409.171, 135.546 412.495, 138.466 411.374 C 139.344 411.038, 140.790 412.291, 142.321 414.716 C 144.382 417.981, 145.334 418.613, 148.317 418.698 C 152.357 418.812, 152.753 418.204, 153.546 410.665 C 154.259 403.896, 152.591 400.610, 148.229 400.187 C 146.251 399.995, 144.588 399.099, 143.932 397.873 C 143.115 396.346, 142.218 396.013, 140.148 396.468 C 138.002 396.939, 136.841 396.443, 134.591 394.095 C 133.028 392.463, 131.242 390.122, 130.624 388.893 C 129.243 386.148, 127.807 385.593, 126.213 387.188 M 259.709 390.624 C 258.340 391.993, 258.988 396.781, 260.627 397.410 C 262.987 398.316, 265.148 396.077, 264.801 393.086 C 264.505 390.545, 261.325 389.008, 259.709 390.624 M 826.381 430.788 C 819.284 433.934, 815.493 436.956, 811.182 442.908 C 798.903 459.857, 806.444 484.447, 826.774 493.754 C 836.913 498.396, 850.669 496.946, 860.421 490.209 C 865.110 486.970, 872.426 478.022, 871.299 476.906 C 870.859 476.471, 867.223 474.722, 863.217 473.020 L 855.934 469.925 853.264 473.099 C 848.415 478.860, 839.400 480.707, 832.381 477.377 C 825.563 474.141, 821.829 465.252, 824.013 457.454 C 827.759 444.074, 842.451 440.216, 852.269 450.033 L 856.110 453.875 864.016 450.312 L 871.921 446.749 870.541 444.124 C 869.782 442.681, 867.212 439.608, 864.830 437.295 C 855.426 428.163, 838.694 425.331, 826.381 430.788 M 900.185 430.832 C 891.683 434.424, 887.054 438.545, 883.019 446.115 C 878.433 454.720, 877.725 464.640, 881.066 473.496 C 884.131 481.621, 891.998 489.828, 900.285 493.547 C 915.468 500.361, 934.520 494.688, 943.375 480.715 C 947.885 473.598, 949 469.865, 949 461.888 C 949 452.020, 946.140 445.138, 939.128 438.135 C 934.506 433.519, 932.222 432.091, 926.493 430.236 C 916.917 427.134, 908.485 427.326, 900.185 430.832 M 1246.520 430.754 C 1238.199 433.905, 1231.977 439.726, 1228.086 448 C 1225.939 452.567, 1225.500 454.942, 1225.500 462 C 1225.500 469.416, 1225.873 471.237, 1228.429 476.281 C 1232.050 483.427, 1239.270 490.319, 1246.699 493.720 C 1251.301 495.827, 1253.842 496.300, 1260.548 496.300 C 1267.601 496.300, 1269.662 495.875, 1275.131 493.292 C 1278.634 491.637, 1283.350 488.393, 1285.612 486.083 C 1289.619 481.992, 1292.760 477.315, 1291.918 476.695 C 1291.688 476.526, 1288.183 474.952, 1284.129 473.197 L 1276.759 470.008 1272.950 473.932 C 1266.655 480.418, 1256.219 480.765, 1249.330 474.716 C 1242.964 469.127, 1241.426 462.064, 1244.905 454.401 C 1247.079 449.616, 1250.830 446.661, 1256.762 445.064 C 1262.493 443.521, 1268.322 445.322, 1273.120 450.120 L 1276.788 453.788 1283.916 450.538 C 1287.836 448.751, 1291.326 447.007, 1291.671 446.663 C 1292.592 445.741, 1287.061 438.149, 1283.478 435.415 C 1281.775 434.117, 1277.361 431.917, 1273.668 430.527 C 1264.564 427.100, 1255.980 427.172, 1246.520 430.754 M 1388 430.548 C 1380.313 433.445, 1374.099 439.501, 1370.093 448 C 1367.920 452.610, 1367.507 454.876, 1367.544 462 C 1367.581 469.243, 1368 471.325, 1370.373 476.079 C 1374.067 483.482, 1380.884 490.326, 1387.839 493.618 C 1392.555 495.851, 1394.835 496.290, 1401.500 496.249 C 1410.503 496.194, 1415.797 494.612, 1422.568 489.953 C 1427.101 486.834, 1433 479.786, 1433 477.489 C 1433 476.822, 1429.628 474.862, 1425.507 473.132 L 1418.013 469.987 1414.063 473.937 C 1404.293 483.707, 1388.059 478.955, 1384.973 465.423 C 1383.704 459.862, 1385.460 454.305, 1389.882 449.882 C 1397.103 442.662, 1406.920 442.684, 1414.173 449.938 L 1417.919 453.684 1425.209 450.475 C 1429.377 448.641, 1432.639 446.565, 1432.824 445.628 C 1433.013 444.677, 1430.702 441.567, 1427.324 438.225 C 1422.525 433.476, 1420.268 432.066, 1414.500 430.216 C 1405.156 427.219, 1396.545 427.327, 1388 430.548 M 1494 430.593 C 1479.139 436.298, 1469.697 452.961, 1472.944 467.750 C 1479.034 495.482, 1512.067 505.992, 1532.377 486.659 C 1538.961 480.391, 1542.446 471.631, 1542.384 461.500 C 1542.293 446.564, 1534.337 435.008, 1520.869 430.250 C 1512.102 427.152, 1502.648 427.273, 1494 430.593 M 1703.500 430.500 C 1696.389 433.406, 1693.717 436.383, 1692.157 443.138 C 1689.179 456.042, 1695.847 464.197, 1714.500 470.465 C 1722.906 473.289, 1726 475.085, 1726 477.139 C 1726 481.806, 1713.319 482.086, 1709.298 477.508 C 1707.290 475.221, 1706.387 475, 1699.048 475 C 1691.121 475, 1691 475.038, 1691 477.511 C 1691 481.675, 1694.807 488.338, 1698.769 491.109 C 1704.305 494.981, 1709.527 496.327, 1719 496.326 C 1731.230 496.324, 1739.704 492.281, 1743.738 484.523 C 1745.753 480.648, 1745.718 472.289, 1743.669 468.327 C 1740.313 461.837, 1734.761 458.351, 1716.584 451.321 C 1710.497 448.967, 1708.659 446.508, 1711.441 444.441 C 1715.860 441.160, 1727 444.118, 1727 448.573 C 1727 449.703, 1728.870 450, 1736 450 C 1744.673 450, 1744.999 449.918, 1744.978 447.750 C 1744.945 444.342, 1741.610 437.836, 1738.310 434.739 C 1731.046 427.923, 1714.681 425.930, 1703.500 430.500 M 553 437.500 L 553 446 562.983 446 L 572.965 446 573.233 470.750 L 573.500 495.500 582 495.500 L 590.500 495.500 590.767 470.750 L 591.035 446 601.017 446 L 611 446 611 437.500 L 611 429 582 429 L 553 429 553 437.500 M 622 462.517 L 622 496.035 646.750 495.767 L 671.500 495.500 671.789 486.750 L 672.078 478 655.539 478 L 639 478 639 474.500 L 639 471 653 471 L 667 471 667 462.500 L 667 454 653 454 L 639 454 639 450 L 639 446 655.500 446 L 672 446 672 437.500 L 672 429 647 429 L 622 429 622 462.517 M 685.237 462.250 L 685.500 495.500 709.500 495.500 L 733.500 495.500 733.789 486.750 L 734.078 478 718.539 478 L 703 478 703 453.500 L 703 429 693.987 429 L 684.973 429 685.237 462.250 M 745.237 462.250 L 745.500 495.500 770.500 495.500 L 795.500 495.500 795.789 486.750 L 796.078 478 779.039 478 L 762 478 762 474.528 L 762 471.056 775.750 470.778 L 789.500 470.500 789.500 462.500 L 789.500 454.500 775.750 454.222 L 762 453.944 762 449.972 L 762 446 779 446 L 796 446 796 437.500 L 796 429 770.487 429 L 744.973 429 745.237 462.250 M 961.237 462.250 L 961.500 495.500 967.969 495.803 C 979.465 496.343, 978.901 497.062, 979.222 481.455 L 979.500 467.934 983.923 478.217 C 990.445 493.383, 990.236 493.147, 996.870 492.796 C 1001.351 492.558, 1002.652 492.091, 1003.475 490.423 C 1004.039 489.281, 1006.750 483.656, 1009.500 477.923 L 1014.500 467.500 1015 481.500 L 1015.500 495.500 1024 495.500 L 1032.500 495.500 1032.763 462.250 L 1033.027 429 1024.066 429 L 1015.106 429 1010.749 438.250 C 1008.353 443.337, 1004.167 452.354, 1001.446 458.286 L 996.500 469.073 993 461.702 C 988.388 451.989, 984.998 444.159, 985.008 443.240 C 985.012 442.833, 983.549 439.467, 981.758 435.760 L 978.500 429.021 969.737 429.010 L 960.973 429 961.237 462.250 M 1047 451.134 C 1047 464.692, 1047.438 474.729, 1048.130 477.038 C 1050.010 483.313, 1055.918 490.138, 1062.295 493.399 C 1067.355 495.987, 1069.070 496.333, 1076.819 496.333 C 1084.519 496.333, 1086.336 495.972, 1091.519 493.406 C 1098.386 490.007, 1104.072 483.287, 1106.162 476.099 C 1107.091 472.907, 1107.500 465.075, 1107.500 450.500 L 1107.500 429.500 1098.750 429.211 L 1090 428.922 1090 448.441 C 1090 470.934, 1089.146 474.754, 1083.521 477.423 C 1079.545 479.310, 1073.448 479.444, 1070 477.721 C 1064.783 475.115, 1064.003 471.413, 1064.002 449.250 L 1064 429 1055.500 429 L 1047 429 1047 451.134 M 1121.237 462.250 L 1121.500 495.500 1130 495.500 L 1138.500 495.500 1139 477.500 C 1139.448 461.388, 1139.647 459.762, 1140.901 462 C 1142.704 465.216, 1164.806 493.090, 1166.902 494.790 C 1167.933 495.627, 1170.779 495.978, 1174.996 495.790 L 1181.500 495.500 1181.763 462.250 L 1182.027 429 1173.037 429 L 1164.047 429 1163.774 446.198 L 1163.500 463.396 1153.302 450.448 C 1147.694 443.327, 1141.619 435.615, 1139.802 433.311 L 1136.500 429.122 1128.737 429.061 L 1120.973 429 1121.237 462.250 M 1196.237 462.250 L 1196.500 495.500 1205.250 495.789 L 1214 496.078 1214 462.539 L 1214 429 1204.987 429 L 1195.973 429 1196.237 462.250 M 1320.097 430.819 C 1318.166 434.426, 1300 479.402, 1300 480.574 C 1300 481.221, 1298.875 484.295, 1297.500 487.404 C 1293.631 496.153, 1293.609 496.124, 1303.750 495.789 L 1312.500 495.500 1314.783 490.720 L 1317.066 485.941 1329.646 486.220 L 1342.226 486.500 1343.793 490.500 C 1344.654 492.700, 1345.841 494.831, 1346.430 495.235 C 1347.936 496.269, 1363.768 496.184, 1364.415 495.138 C 1364.708 494.664, 1358.994 479.702, 1351.717 461.888 L 1338.487 429.500 1329.799 429.212 C 1322.124 428.957, 1320.993 429.145, 1320.097 430.819 M 1444.237 462.250 L 1444.500 495.500 1452.500 495.500 L 1460.500 495.500 1460.763 462.250 L 1461.027 429 1452.500 429 L 1443.973 429 1444.237 462.250 M 1554.237 462.250 L 1554.500 495.500 1563 495.500 L 1571.500 495.500 1572 477.849 L 1572.500 460.198 1586.895 478.142 L 1601.289 496.085 1607.895 495.792 L 1614.500 495.500 1614.763 462.250 L 1615.027 429 1606.537 429 L 1598.046 429 1597.773 446.506 L 1597.500 464.011 1585.756 449.159 C 1568.585 427.441, 1570.458 429, 1561.534 429 L 1553.973 429 1554.237 462.250 M 1630 462.517 L 1630 496.034 1655.250 495.767 L 1680.500 495.500 1680.789 486.750 L 1681.078 478 1664.289 478 L 1647.500 478 1647.500 474.500 L 1647.500 471 1661.250 471 L 1675 471 1675 462.500 L 1675 454 1661.250 454 L 1647.500 454 1647.500 450 L 1647.500 446 1664.250 446 L 1681 446 1681 437.500 L 1681 429 1655.500 429 L 1630 429 1630 462.517 M 909.685 445.017 C 898.701 448.314, 893.651 462.049, 900.018 471.311 C 903.950 477.032, 906.807 478.500, 914 478.498 C 921.701 478.495, 925.878 476.119, 929.023 469.956 C 934.077 460.048, 928.850 447.997, 918.219 445.044 C 913.972 443.864, 913.529 443.863, 909.685 445.017 M 1502.655 445.459 C 1492.584 449.050, 1487.999 459.874, 1492.517 469.395 C 1497.900 480.737, 1514.051 482.354, 1521.707 472.317 C 1524.772 468.300, 1525.805 460.970, 1524.055 455.667 C 1522.594 451.241, 1517.271 446.447, 1512.277 445.060 C 1507.608 443.763, 1507.384 443.773, 1502.655 445.459 M 1326.363 460.286 L 1323.298 468.500 1326.671 468.812 C 1328.527 468.983, 1331.289 468.983, 1332.809 468.812 L 1335.574 468.500 1332.501 460.286 L 1329.429 452.072 1326.363 460.286 M 79 487.662 C 76.017 488.841, 73 492.400, 73 494.740 C 73 498.505, 74.586 500.574, 80.049 503.935 C 84.031 506.385, 85.063 507.542, 84.815 509.281 C 84.564 511.053, 83.745 511.562, 80.750 511.810 C 77.994 512.038, 77 511.735, 77 510.667 C 77 508.672, 74.056 507.690, 73.378 509.458 C 72.164 512.622, 73.493 514.465, 77.456 515.109 C 85.071 516.347, 91 512.987, 91 507.434 C 91 503.998, 87.814 500.507, 81.880 497.438 C 78.549 495.715, 78.080 492.563, 80.928 491.039 C 83.453 489.687, 86 490.726, 86 493.107 C 86 494.333, 86.704 495, 88 495 C 89.547 495, 90 494.333, 90 492.059 C 90 490.441, 89.620 488.883, 89.155 488.596 C 87.699 487.696, 80.571 487.040, 79 487.662 M 186.035 488.306 C 180.817 490.103, 178 494.984, 178 502.225 C 178 507.400, 178.360 508.514, 180.829 510.983 C 184.358 514.512, 189.720 516.078, 194.547 514.989 C 202.097 513.287, 206.118 505.910, 203.946 497.750 C 202.585 492.639, 200.577 490.180, 196.282 488.362 C 192.438 486.735, 190.625 486.725, 186.035 488.306 M 272.285 488.443 C 265.919 491.277, 266.729 498.386, 274 503.502 C 279.567 507.419, 280.296 511.295, 275.568 511.834 C 273.420 512.079, 272.165 511.545, 270.880 509.841 C 269.337 507.796, 269.046 507.718, 268.477 509.198 C 267.207 512.508, 268.400 514.481, 272.011 515.045 C 279.667 516.240, 285.278 512.740, 284.799 507.069 C 284.549 504.117, 283.635 502.891, 279.250 499.627 C 273.966 495.694, 272.837 493.210, 275.373 491.105 C 277.226 489.568, 280 490.768, 280 493.107 C 280 494.333, 280.704 495, 282 495 C 283.547 495, 284 494.333, 284 492.059 C 284 490.441, 283.659 488.907, 283.242 488.650 C 281.006 487.268, 275.172 487.157, 272.285 488.443 M 294.316 488.943 C 289.311 491.216, 287 495.146, 287 501.385 C 287 507.312, 288.224 510.261, 291.600 512.474 C 298.080 516.719, 306.041 516.113, 311.171 510.983 C 313.671 508.483, 314 507.429, 314 501.921 C 314 494.255, 311.281 490, 305.225 488.185 C 300.059 486.638, 299.275 486.692, 294.316 488.943 M 351.778 489.203 C 343.906 493.767, 342.516 506.414, 349.264 512.079 C 356.099 517.819, 368.025 515.324, 370.986 507.536 C 373.799 500.139, 371.042 492.167, 364.591 489.044 C 359.255 486.461, 356.449 486.496, 351.778 489.203 M 49 489.500 C 49 490.325, 49.675 491, 50.500 491 C 51.738 491, 52 492.833, 52 501.500 C 52 510.167, 51.738 512, 50.500 512 C 49.675 512, 49 512.675, 49 513.500 C 49 514.738, 50.833 515, 59.500 515 C 69.966 515, 70 514.992, 70 512.559 C 70 509.435, 68.052 508.208, 66.488 510.347 C 65.747 511.360, 63.870 512, 61.640 512 L 58 512 58 507.171 C 58 502.805, 58.216 502.349, 60.250 502.421 C 61.487 502.464, 62.860 503.063, 63.300 503.750 C 64.773 506.054, 66 505.032, 66 501.500 C 66 498.997, 65.556 498, 64.441 498 C 63.584 498, 63.160 498.450, 63.500 499 C 63.861 499.583, 62.844 500, 61.059 500 C 58.100 500, 58 499.853, 58 495.500 C 58 491.016, 58.013 491, 61.531 491 C 63.748 491, 65.277 491.559, 65.638 492.500 C 66.682 495.220, 69 494.186, 69 491 L 69 488 59 488 C 50.778 488, 49 488.267, 49 489.500 M 94 491.500 C 94 495.368, 96.386 496.456, 97.290 493 C 97.643 491.649, 98.654 491, 100.406 491 L 103 491 103 501.500 C 103 510.167, 102.738 512, 101.500 512 C 100.675 512, 100 512.675, 100 513.500 C 100 514.679, 101.389 515, 106.500 515 C 111.611 515, 113 514.679, 113 513.500 C 113 512.675, 112.325 512, 111.500 512 C 110.262 512, 110 510.167, 110 501.500 C 110 491.044, 110.010 491, 112.433 491 C 114.009 491, 115.095 491.724, 115.517 493.055 C 116.458 496.019, 118.447 494.884, 118.813 491.173 L 119.127 488 106.563 488 L 94 488 94 491.500 M 126.337 500 C 123.227 506.600, 120.080 512, 119.342 512 C 118.604 512, 118 512.675, 118 513.500 C 118 514.580, 119.105 515, 121.941 515 C 126.019 515, 128.262 513.422, 125.623 512.409 C 124.416 511.946, 124.336 511.356, 125.220 509.416 C 126.178 507.314, 126.994 507, 131.500 507 C 136.054 507, 136.816 507.302, 137.818 509.500 C 138.768 511.586, 138.698 512, 137.395 512 C 136.536 512, 136.023 512.563, 136.254 513.250 C 136.566 514.178, 140.648 514.500, 152.087 514.500 C 166.407 514.500, 167.721 514.343, 170.611 512.281 C 177.159 507.610, 177.198 495.417, 170.680 490.589 C 168.363 488.873, 166.086 488.439, 157.930 488.156 C 149.367 487.860, 148 488.032, 148 489.406 C 148 490.283, 148.675 491, 149.500 491 C 150.738 491, 151 492.833, 151 501.500 C 151 511.889, 150.975 512, 148.622 512 C 145.585 512, 145.309 511.600, 139.478 498.750 C 136.794 492.837, 134.012 488, 133.294 488 C 132.577 488, 129.446 493.400, 126.337 500 M 316 489.333 C 316 490.132, 316.675 491.045, 317.500 491.362 C 318.689 491.818, 319 493.922, 319 501.500 C 319 509.078, 318.689 511.182, 317.500 511.638 C 316.675 511.955, 316 512.841, 316 513.607 C 316 514.591, 317.320 515, 320.500 515 C 323.680 515, 325 514.591, 325 513.607 C 325 512.841, 324.325 511.955, 323.500 511.638 C 322.358 511.200, 322 509.337, 322 503.836 L 322 496.609 326.250 502.627 C 332.874 512.007, 335.701 515, 337.935 515 C 339.896 515, 340 514.447, 340 504.071 C 340 495.690, 340.350 492.793, 341.500 491.643 C 344.074 489.069, 343.193 488, 338.500 488 C 335.167 488, 334 488.389, 334 489.500 C 334 490.325, 334.675 491, 335.500 491 C 336.710 491, 337 492.570, 337 499.130 L 337 507.261 330.183 497.880 C 323.923 489.267, 323.065 488.475, 319.683 488.190 C 316.986 487.962, 316 488.268, 316 489.333 M 373 489.500 C 373 490.325, 373.675 491, 374.500 491 C 375.738 491, 376 492.833, 376 501.500 C 376 510.167, 375.738 512, 374.500 512 C 373.675 512, 373 512.697, 373 513.550 C 373 514.803, 374.087 515.042, 378.671 514.800 C 382.089 514.619, 384.506 514.003, 384.754 513.250 C 384.981 512.563, 384.454 512, 383.583 512 C 382.403 512, 382 510.982, 382 508 C 382 505.800, 382.375 504, 382.834 504 C 383.292 504, 385.372 506.475, 387.456 509.500 L 391.244 515 398.563 515 C 405.587 515, 408.785 513.721, 406.025 512.015 C 405.085 511.435, 405.063 510.751, 405.932 509.127 C 406.860 507.393, 407.994 507, 412.067 507 C 416.330 507, 417.186 507.329, 417.894 509.241 C 418.493 510.860, 418.275 511.812, 417.111 512.670 C 415.631 513.761, 415.632 513.909, 417.127 514.488 C 419.785 515.519, 428.307 514.612, 428.755 513.250 C 428.981 512.563, 428.478 512, 427.636 512 C 426.321 512, 419.219 498.820, 415.917 490.250 C 415.440 489.012, 414.352 488, 413.500 488 C 412.648 488, 411.561 489.012, 411.085 490.250 C 410.609 491.488, 408.164 496.887, 405.653 502.250 C 400.403 513.460, 398.965 514.207, 394.073 508.272 C 390.443 503.868, 390.403 503.574, 393 500.273 C 395.833 496.672, 395.579 492.601, 392.365 490.073 C 390.176 488.351, 388.314 488, 381.365 488 C 374.596 488, 373 488.286, 373 489.500 M 187.431 492.306 C 185.017 494.382, 184.750 495.282, 184.750 501.339 C 184.750 509.287, 186.476 512, 191.533 512 C 196.255 512, 197.333 510.010, 197.333 501.291 C 197.333 494.586, 197.064 493.471, 195.056 491.844 C 192.078 489.433, 190.672 489.518, 187.431 492.306 M 296.550 492.359 C 294.310 494.599, 294 495.747, 294 501.800 C 294 509.646, 295.540 512, 300.674 512 C 305.894 512, 308.659 506.566, 307.468 498.645 C 306.698 493.526, 305.158 491.329, 301.739 490.471 C 299.700 489.959, 298.521 490.388, 296.550 492.359 M 354.917 491.866 C 353.033 493.391, 352.535 494.946, 352.190 500.364 C 351.631 509.132, 353.432 512.255, 358.787 511.807 C 363.713 511.395, 365.190 508.492, 364.735 500.116 C 364.452 494.903, 363.966 493.391, 362.083 491.866 C 360.816 490.840, 359.203 490, 358.500 490 C 357.797 490, 356.184 490.840, 354.917 491.866 M 158 501.500 C 158 511.249, 158.140 512, 159.953 512 C 164.096 512, 166.990 509.750, 168.087 505.678 C 170.202 497.824, 166.907 491, 161 491 L 158 491 158 501.500 M 382 496 C 382 500.745, 382.171 501.115, 384.230 500.820 C 387.002 500.422, 388.936 495.712, 387.359 493.197 C 386.774 492.264, 385.329 491.356, 384.148 491.180 C 382.188 490.889, 382 491.310, 382 496 M 217.496 496.007 C 217.153 496.561, 217.577 497.284, 218.437 497.614 C 219.657 498.082, 220 499.815, 220 505.500 C 220 511.185, 219.657 512.918, 218.437 513.386 C 215.372 514.562, 218.207 516, 223.591 516 C 229.953 516, 235.381 514.025, 236.920 511.150 C 237.514 510.040, 238 507.109, 238 504.637 C 238 499.837, 236.475 497.511, 232.280 495.916 C 229.034 494.682, 218.274 494.748, 217.496 496.007 M 239.569 495.889 C 239.238 496.424, 239.425 497.144, 239.984 497.490 C 241.446 498.393, 241.299 512.734, 239.823 513.226 C 239.176 513.441, 238.977 514.154, 239.382 514.809 C 239.845 515.558, 242.882 516, 247.559 516 C 254.829 516, 255 515.943, 255 513.500 C 255 511.944, 254.433 511, 253.500 511 C 252.675 511, 252 511.450, 252 512 C 252 512.550, 250.650 513, 249 513 C 246.238 513, 246 512.722, 246 509.500 C 246 506.702, 246.389 506, 247.941 506 C 249.009 506, 250.160 506.450, 250.500 507 C 251.646 508.855, 253 508.018, 253 505.455 C 253 503.087, 252.755 502.955, 249.500 503.566 C 246.109 504.202, 246 504.125, 246 501.111 C 246 498.479, 246.376 498, 248.441 498 C 249.784 498, 251.160 498.450, 251.500 499 C 252.726 500.984, 255.149 500.071, 254.820 497.750 C 254.527 495.688, 253.900 495.476, 247.335 495.208 C 243.394 495.047, 239.899 495.354, 239.569 495.889 M 129.686 499.828 C 128.758 502.145, 128 504.256, 128 504.520 C 128 504.784, 129.575 505, 131.500 505 C 135.467 505, 135.486 504.937, 133.111 499.558 L 131.371 495.615 129.686 499.828 M 411 497.378 C 411 497.586, 410.319 499.386, 409.487 501.378 L 407.973 505 412.007 505 L 416.041 505 414 501 C 412.242 497.554, 411 496.054, 411 497.378 M 225 505.500 C 225 512.020, 225.232 513, 226.777 513 C 230.578 513, 233 510.119, 233 505.598 C 233 500.843, 230.819 498, 227.171 498 C 225.136 498, 225 498.469, 225 505.500" stroke="none" fill="#ffffff" fill-rule="evenodd"/></svg>